%TF.GenerationSoftware,KiCad,Pcbnew,7.0.5*%
%TF.CreationDate,2023-07-11T21:22:30+02:00*%
%TF.ProjectId,keyboard_pcb,6b657962-6f61-4726-945f-7063622e6b69,rev1.0*%
%TF.SameCoordinates,Original*%
%TF.FileFunction,Soldermask,Top*%
%TF.FilePolarity,Negative*%
%FSLAX46Y46*%
G04 Gerber Fmt 4.6, Leading zero omitted, Abs format (unit mm)*
G04 Created by KiCad (PCBNEW 7.0.5) date 2023-07-11 21:22:30*
%MOMM*%
%LPD*%
G01*
G04 APERTURE LIST*
%ADD10C,3.429000*%
%ADD11C,1.701800*%
%ADD12C,3.000000*%
%ADD13C,2.032000*%
%ADD14O,1.500000X1.500000*%
%ADD15O,1.800000X1.800000*%
%ADD16R,3.500000X1.700000*%
%ADD17O,1.700000X1.700000*%
%ADD18R,1.700000X1.700000*%
%ADD19C,0.800000*%
%ADD20O,2.000000X1.600000*%
%ADD21C,2.200000*%
%ADD22C,0.500000*%
G04 APERTURE END LIST*
D10*
%TO.C,K25*%
X105240000Y-94000000D03*
D11*
X110740000Y-94000000D03*
D12*
X110240000Y-90250000D03*
D11*
X99740000Y-94000000D03*
D12*
X105240000Y-88050000D03*
D13*
X105240000Y-99900000D03*
X100240000Y-97800000D03*
%TD*%
D12*
%TO.C,K24*%
X128240000Y-88250000D03*
D10*
X123240000Y-92000000D03*
D12*
X123240000Y-86050000D03*
D11*
X117740000Y-92000000D03*
X128740000Y-92000000D03*
D13*
X123240000Y-97900000D03*
X118240000Y-95800000D03*
%TD*%
D10*
%TO.C,K21*%
X177240000Y-104000000D03*
D11*
X171740000Y-104000000D03*
D12*
X177240000Y-98050000D03*
D11*
X182740000Y-104000000D03*
D12*
X182240000Y-100250000D03*
D13*
X177240000Y-109900000D03*
X172240000Y-107800000D03*
%TD*%
D11*
%TO.C,K02*%
X164740000Y-58000000D03*
D10*
X159240000Y-58000000D03*
D11*
X153740000Y-58000000D03*
D12*
X159240000Y-52050000D03*
X164240000Y-54250000D03*
D13*
X159240000Y-63900000D03*
X154240000Y-61800000D03*
%TD*%
D11*
%TO.C,K10*%
X189740000Y-87000000D03*
D12*
X195240000Y-81050000D03*
D10*
X195240000Y-87000000D03*
D12*
X200240000Y-83250000D03*
D11*
X200740000Y-87000000D03*
D13*
X195240000Y-92900000D03*
X190240000Y-90800000D03*
%TD*%
D14*
%TO.C,U2*%
X76111800Y-55738000D03*
X80961800Y-55738000D03*
D15*
X81261800Y-52708000D03*
X75811800Y-52708000D03*
D16*
X68746800Y-52578000D03*
D17*
X69646800Y-52578000D03*
X69646800Y-55118000D03*
D16*
X68746800Y-55118000D03*
D18*
X69646800Y-57658000D03*
D16*
X68746800Y-57658000D03*
X68746800Y-60198000D03*
D17*
X69646800Y-60198000D03*
D16*
X68746800Y-62738000D03*
D17*
X69646800Y-62738000D03*
X69646800Y-65278000D03*
D16*
X68746800Y-65278000D03*
X68746800Y-67818000D03*
D17*
X69646800Y-67818000D03*
D16*
X68746800Y-70358000D03*
D18*
X69646800Y-70358000D03*
D16*
X68746800Y-72898000D03*
D17*
X69646800Y-72898000D03*
D16*
X68746800Y-75438000D03*
D17*
X69646800Y-75438000D03*
X69646800Y-77978000D03*
D16*
X68746800Y-77978000D03*
D17*
X69646800Y-80518000D03*
D16*
X68746800Y-80518000D03*
X68746800Y-83058000D03*
D18*
X69646800Y-83058000D03*
D17*
X69646800Y-85598000D03*
D16*
X68746800Y-85598000D03*
X68746800Y-88138000D03*
D17*
X69646800Y-88138000D03*
D16*
X68746800Y-90678000D03*
D17*
X69646800Y-90678000D03*
D16*
X68746800Y-93218000D03*
D17*
X69646800Y-93218000D03*
D18*
X69646800Y-95758000D03*
D16*
X68746800Y-95758000D03*
X68746800Y-98298000D03*
D17*
X69646800Y-98298000D03*
X69646800Y-100838000D03*
D16*
X68746800Y-100838000D03*
D17*
X87426800Y-100838000D03*
D16*
X88326800Y-100838000D03*
D17*
X87426800Y-98298000D03*
D16*
X88326800Y-98298000D03*
X88326800Y-95758000D03*
D18*
X87426800Y-95758000D03*
D17*
X87426800Y-93218000D03*
D16*
X88326800Y-93218000D03*
X88326800Y-90678000D03*
D17*
X87426800Y-90678000D03*
X87426800Y-88138000D03*
D16*
X88326800Y-88138000D03*
X88326800Y-85598000D03*
D17*
X87426800Y-85598000D03*
D16*
X88326800Y-83058000D03*
D18*
X87426800Y-83058000D03*
D17*
X87426800Y-80518000D03*
D16*
X88326800Y-80518000D03*
D17*
X87426800Y-77978000D03*
D16*
X88326800Y-77978000D03*
D17*
X87426800Y-75438000D03*
D16*
X88326800Y-75438000D03*
D17*
X87426800Y-72898000D03*
D16*
X88326800Y-72898000D03*
X88326800Y-70358000D03*
D18*
X87426800Y-70358000D03*
D17*
X87426800Y-67818000D03*
D16*
X88326800Y-67818000D03*
X88326800Y-65278000D03*
D17*
X87426800Y-65278000D03*
D16*
X88326800Y-62738000D03*
D17*
X87426800Y-62738000D03*
X87426800Y-60198000D03*
D16*
X88326800Y-60198000D03*
X88326800Y-57658000D03*
D18*
X87426800Y-57658000D03*
D17*
X87426800Y-55118000D03*
D16*
X88326800Y-55118000D03*
D17*
X87426800Y-52578000D03*
D16*
X88326800Y-52578000D03*
%TD*%
D12*
%TO.C,K04*%
X128240000Y-54250000D03*
D10*
X123240000Y-58000000D03*
D11*
X128740000Y-58000000D03*
X117740000Y-58000000D03*
D12*
X123240000Y-52050000D03*
D13*
X123240000Y-63900000D03*
X118240000Y-61800000D03*
%TD*%
D12*
%TO.C,K12*%
X164240000Y-71250000D03*
X159240000Y-69050000D03*
D11*
X164740000Y-75000000D03*
D10*
X159240000Y-75000000D03*
D11*
X153740000Y-75000000D03*
D13*
X159240000Y-80900000D03*
X154240000Y-78800000D03*
%TD*%
D12*
%TO.C,K30*%
X133547808Y-109700049D03*
D11*
X133719071Y-113479357D03*
D12*
X128758577Y-107072642D03*
D11*
X122760929Y-112520643D03*
D10*
X128240000Y-113000000D03*
D13*
X127725781Y-118877549D03*
X122927835Y-116349761D03*
%TD*%
D12*
%TO.C,K01*%
X177240000Y-64050000D03*
D11*
X182740000Y-70000000D03*
D12*
X182240000Y-66250000D03*
D11*
X171740000Y-70000000D03*
D10*
X177240000Y-70000000D03*
D13*
X177240000Y-75900000D03*
X172240000Y-73800000D03*
%TD*%
D12*
%TO.C,K14*%
X128240000Y-71250000D03*
D10*
X123240000Y-75000000D03*
D12*
X123240000Y-69050000D03*
D11*
X128740000Y-75000000D03*
X117740000Y-75000000D03*
D13*
X123240000Y-80900000D03*
X118240000Y-78800000D03*
%TD*%
D11*
%TO.C,K23*%
X135740000Y-87000000D03*
D10*
X141240000Y-87000000D03*
D12*
X141240000Y-81050000D03*
X146240000Y-83250000D03*
D11*
X146740000Y-87000000D03*
D13*
X141240000Y-92900000D03*
X136240000Y-90800000D03*
%TD*%
D12*
%TO.C,K03*%
X146240000Y-49250000D03*
D11*
X135740000Y-53000000D03*
X146740000Y-53000000D03*
D12*
X141240000Y-47050000D03*
D10*
X141240000Y-53000000D03*
D13*
X141240000Y-58900000D03*
X136240000Y-56800000D03*
%TD*%
D12*
%TO.C,K22*%
X164240000Y-88250000D03*
D11*
X164740000Y-92000000D03*
X153740000Y-92000000D03*
D10*
X159240000Y-92000000D03*
D12*
X159240000Y-86050000D03*
D13*
X159240000Y-97900000D03*
X154240000Y-95800000D03*
%TD*%
D19*
%TO.C,J1*%
X67990000Y-109000000D03*
X74990000Y-109000000D03*
D20*
X77690000Y-111300000D03*
X76590000Y-106700000D03*
X72590000Y-106700000D03*
X69590000Y-106700000D03*
%TD*%
D12*
%TO.C,K15*%
X105240000Y-71050000D03*
D10*
X105240000Y-77000000D03*
D11*
X110740000Y-77000000D03*
D12*
X110240000Y-73250000D03*
D11*
X99740000Y-77000000D03*
D13*
X105240000Y-82900000D03*
X100240000Y-80800000D03*
%TD*%
D12*
%TO.C,K32*%
X88186720Y-115488254D03*
D11*
X90224693Y-118675600D03*
D10*
X85240000Y-121000000D03*
D12*
X82725421Y-115607469D03*
D11*
X80255307Y-123324400D03*
D13*
X87733448Y-126347216D03*
X82314410Y-126557061D03*
%TD*%
D11*
%TO.C,K11*%
X182740000Y-87000000D03*
X171740000Y-87000000D03*
D12*
X177240000Y-81050000D03*
D10*
X177240000Y-87000000D03*
D12*
X182240000Y-83250000D03*
D13*
X177240000Y-92900000D03*
X172240000Y-90800000D03*
%TD*%
D10*
%TO.C,K05*%
X105240000Y-60000000D03*
D12*
X110240000Y-56250000D03*
X105240000Y-54050000D03*
D11*
X110740000Y-60000000D03*
X99740000Y-60000000D03*
D13*
X105240000Y-65900000D03*
X100240000Y-63800000D03*
%TD*%
D12*
%TO.C,K20*%
X195240000Y-98050000D03*
D10*
X195240000Y-104000000D03*
D11*
X189740000Y-104000000D03*
D12*
X200240000Y-100250000D03*
D11*
X200740000Y-104000000D03*
D13*
X195240000Y-109900000D03*
X190240000Y-107800000D03*
%TD*%
D10*
%TO.C,K13*%
X141240000Y-70000000D03*
D11*
X146740000Y-70000000D03*
D12*
X141240000Y-64050000D03*
D11*
X135740000Y-70000000D03*
D12*
X146240000Y-66250000D03*
D13*
X141240000Y-75900000D03*
X136240000Y-73800000D03*
%TD*%
D11*
%TO.C,K00*%
X200740000Y-70000000D03*
X189740000Y-70000000D03*
D12*
X195240000Y-64050000D03*
D10*
X195240000Y-70000000D03*
D12*
X200240000Y-66250000D03*
D13*
X195240000Y-75900000D03*
X190240000Y-73800000D03*
%TD*%
D10*
%TO.C,K31*%
X106240000Y-114000000D03*
D11*
X111656443Y-113044935D03*
X100823557Y-114955065D03*
D12*
X110512858Y-109438730D03*
X105206793Y-108140394D03*
D13*
X107264524Y-119810366D03*
X101975824Y-118610510D03*
%TD*%
D21*
%TO.C,H4*%
X166040000Y-107600000D03*
%TD*%
%TO.C,H2*%
X94740000Y-67000000D03*
%TD*%
%TO.C,H4*%
X186190000Y-95500000D03*
%TD*%
D22*
%TO.C,MB1*%
X187840000Y-78500000D03*
X187840000Y-77000000D03*
X187840000Y-80000000D03*
X187840000Y-77750000D03*
%TD*%
%TO.C,MB3*%
X187840000Y-106935200D03*
X187840000Y-109185200D03*
X187840000Y-107685200D03*
X187840000Y-109935200D03*
X187840000Y-106185200D03*
X187840000Y-110685200D03*
%TD*%
%TO.C,MB2*%
X187840000Y-94750000D03*
X187840000Y-97000000D03*
X187840000Y-94000000D03*
X187840000Y-95500000D03*
%TD*%
D21*
%TO.C,H4*%
X186240000Y-78500000D03*
%TD*%
%TO.C,H1*%
X149840000Y-61000000D03*
%TD*%
%TO.C,H3*%
X92440000Y-107600000D03*
%TD*%
%TO.C,H1*%
X168240000Y-78500000D03*
%TD*%
D22*
%TO.C,MB4*%
X187840000Y-67035200D03*
X187840000Y-64035200D03*
X187840000Y-64785200D03*
X187840000Y-66285200D03*
X187840000Y-67785200D03*
X187840000Y-63285200D03*
%TD*%
M02*
