%TF.GenerationSoftware,KiCad,Pcbnew,7.0.5*%
%TF.CreationDate,2023-07-11T21:22:30+02:00*%
%TF.ProjectId,keyboard_pcb,6b657962-6f61-4726-945f-7063622e6b69,rev1.0*%
%TF.SameCoordinates,Original*%
%TF.FileFunction,Legend,Top*%
%TF.FilePolarity,Positive*%
%FSLAX46Y46*%
G04 Gerber Fmt 4.6, Leading zero omitted, Abs format (unit mm)*
G04 Created by KiCad (PCBNEW 7.0.5) date 2023-07-11 21:22:30*
%MOMM*%
%LPD*%
G01*
G04 APERTURE LIST*
%ADD10C,0.150000*%
%ADD11C,0.120000*%
%ADD12C,3.429000*%
%ADD13C,1.701800*%
%ADD14C,3.000000*%
%ADD15C,2.032000*%
%ADD16O,1.500000X1.500000*%
%ADD17O,1.800000X1.800000*%
%ADD18R,3.500000X1.700000*%
%ADD19O,1.700000X1.700000*%
%ADD20R,1.700000X1.700000*%
%ADD21C,0.800000*%
%ADD22O,2.000000X1.600000*%
%ADD23C,2.200000*%
%ADD24C,0.500000*%
G04 APERTURE END LIST*
D10*
%TO.C,K25*%
X104025714Y-86199819D02*
X104025714Y-85199819D01*
X104597142Y-86199819D02*
X104168571Y-85628390D01*
X104597142Y-85199819D02*
X104025714Y-85771247D01*
X104978095Y-85295057D02*
X105025714Y-85247438D01*
X105025714Y-85247438D02*
X105120952Y-85199819D01*
X105120952Y-85199819D02*
X105359047Y-85199819D01*
X105359047Y-85199819D02*
X105454285Y-85247438D01*
X105454285Y-85247438D02*
X105501904Y-85295057D01*
X105501904Y-85295057D02*
X105549523Y-85390295D01*
X105549523Y-85390295D02*
X105549523Y-85485533D01*
X105549523Y-85485533D02*
X105501904Y-85628390D01*
X105501904Y-85628390D02*
X104930476Y-86199819D01*
X104930476Y-86199819D02*
X105549523Y-86199819D01*
X106454285Y-85199819D02*
X105978095Y-85199819D01*
X105978095Y-85199819D02*
X105930476Y-85676009D01*
X105930476Y-85676009D02*
X105978095Y-85628390D01*
X105978095Y-85628390D02*
X106073333Y-85580771D01*
X106073333Y-85580771D02*
X106311428Y-85580771D01*
X106311428Y-85580771D02*
X106406666Y-85628390D01*
X106406666Y-85628390D02*
X106454285Y-85676009D01*
X106454285Y-85676009D02*
X106501904Y-85771247D01*
X106501904Y-85771247D02*
X106501904Y-86009342D01*
X106501904Y-86009342D02*
X106454285Y-86104580D01*
X106454285Y-86104580D02*
X106406666Y-86152200D01*
X106406666Y-86152200D02*
X106311428Y-86199819D01*
X106311428Y-86199819D02*
X106073333Y-86199819D01*
X106073333Y-86199819D02*
X105978095Y-86152200D01*
X105978095Y-86152200D02*
X105930476Y-86104580D01*
%TO.C,K24*%
X122025714Y-84199819D02*
X122025714Y-83199819D01*
X122597142Y-84199819D02*
X122168571Y-83628390D01*
X122597142Y-83199819D02*
X122025714Y-83771247D01*
X122978095Y-83295057D02*
X123025714Y-83247438D01*
X123025714Y-83247438D02*
X123120952Y-83199819D01*
X123120952Y-83199819D02*
X123359047Y-83199819D01*
X123359047Y-83199819D02*
X123454285Y-83247438D01*
X123454285Y-83247438D02*
X123501904Y-83295057D01*
X123501904Y-83295057D02*
X123549523Y-83390295D01*
X123549523Y-83390295D02*
X123549523Y-83485533D01*
X123549523Y-83485533D02*
X123501904Y-83628390D01*
X123501904Y-83628390D02*
X122930476Y-84199819D01*
X122930476Y-84199819D02*
X123549523Y-84199819D01*
X124406666Y-83533152D02*
X124406666Y-84199819D01*
X124168571Y-83152200D02*
X123930476Y-83866485D01*
X123930476Y-83866485D02*
X124549523Y-83866485D01*
%TO.C,K21*%
X176025714Y-96199819D02*
X176025714Y-95199819D01*
X176597142Y-96199819D02*
X176168571Y-95628390D01*
X176597142Y-95199819D02*
X176025714Y-95771247D01*
X176978095Y-95295057D02*
X177025714Y-95247438D01*
X177025714Y-95247438D02*
X177120952Y-95199819D01*
X177120952Y-95199819D02*
X177359047Y-95199819D01*
X177359047Y-95199819D02*
X177454285Y-95247438D01*
X177454285Y-95247438D02*
X177501904Y-95295057D01*
X177501904Y-95295057D02*
X177549523Y-95390295D01*
X177549523Y-95390295D02*
X177549523Y-95485533D01*
X177549523Y-95485533D02*
X177501904Y-95628390D01*
X177501904Y-95628390D02*
X176930476Y-96199819D01*
X176930476Y-96199819D02*
X177549523Y-96199819D01*
X178501904Y-96199819D02*
X177930476Y-96199819D01*
X178216190Y-96199819D02*
X178216190Y-95199819D01*
X178216190Y-95199819D02*
X178120952Y-95342676D01*
X178120952Y-95342676D02*
X178025714Y-95437914D01*
X178025714Y-95437914D02*
X177930476Y-95485533D01*
%TO.C,K02*%
X158025714Y-50199819D02*
X158025714Y-49199819D01*
X158597142Y-50199819D02*
X158168571Y-49628390D01*
X158597142Y-49199819D02*
X158025714Y-49771247D01*
X159216190Y-49199819D02*
X159311428Y-49199819D01*
X159311428Y-49199819D02*
X159406666Y-49247438D01*
X159406666Y-49247438D02*
X159454285Y-49295057D01*
X159454285Y-49295057D02*
X159501904Y-49390295D01*
X159501904Y-49390295D02*
X159549523Y-49580771D01*
X159549523Y-49580771D02*
X159549523Y-49818866D01*
X159549523Y-49818866D02*
X159501904Y-50009342D01*
X159501904Y-50009342D02*
X159454285Y-50104580D01*
X159454285Y-50104580D02*
X159406666Y-50152200D01*
X159406666Y-50152200D02*
X159311428Y-50199819D01*
X159311428Y-50199819D02*
X159216190Y-50199819D01*
X159216190Y-50199819D02*
X159120952Y-50152200D01*
X159120952Y-50152200D02*
X159073333Y-50104580D01*
X159073333Y-50104580D02*
X159025714Y-50009342D01*
X159025714Y-50009342D02*
X158978095Y-49818866D01*
X158978095Y-49818866D02*
X158978095Y-49580771D01*
X158978095Y-49580771D02*
X159025714Y-49390295D01*
X159025714Y-49390295D02*
X159073333Y-49295057D01*
X159073333Y-49295057D02*
X159120952Y-49247438D01*
X159120952Y-49247438D02*
X159216190Y-49199819D01*
X159930476Y-49295057D02*
X159978095Y-49247438D01*
X159978095Y-49247438D02*
X160073333Y-49199819D01*
X160073333Y-49199819D02*
X160311428Y-49199819D01*
X160311428Y-49199819D02*
X160406666Y-49247438D01*
X160406666Y-49247438D02*
X160454285Y-49295057D01*
X160454285Y-49295057D02*
X160501904Y-49390295D01*
X160501904Y-49390295D02*
X160501904Y-49485533D01*
X160501904Y-49485533D02*
X160454285Y-49628390D01*
X160454285Y-49628390D02*
X159882857Y-50199819D01*
X159882857Y-50199819D02*
X160501904Y-50199819D01*
%TO.C,K10*%
X194025714Y-79199819D02*
X194025714Y-78199819D01*
X194597142Y-79199819D02*
X194168571Y-78628390D01*
X194597142Y-78199819D02*
X194025714Y-78771247D01*
X195549523Y-79199819D02*
X194978095Y-79199819D01*
X195263809Y-79199819D02*
X195263809Y-78199819D01*
X195263809Y-78199819D02*
X195168571Y-78342676D01*
X195168571Y-78342676D02*
X195073333Y-78437914D01*
X195073333Y-78437914D02*
X194978095Y-78485533D01*
X196168571Y-78199819D02*
X196263809Y-78199819D01*
X196263809Y-78199819D02*
X196359047Y-78247438D01*
X196359047Y-78247438D02*
X196406666Y-78295057D01*
X196406666Y-78295057D02*
X196454285Y-78390295D01*
X196454285Y-78390295D02*
X196501904Y-78580771D01*
X196501904Y-78580771D02*
X196501904Y-78818866D01*
X196501904Y-78818866D02*
X196454285Y-79009342D01*
X196454285Y-79009342D02*
X196406666Y-79104580D01*
X196406666Y-79104580D02*
X196359047Y-79152200D01*
X196359047Y-79152200D02*
X196263809Y-79199819D01*
X196263809Y-79199819D02*
X196168571Y-79199819D01*
X196168571Y-79199819D02*
X196073333Y-79152200D01*
X196073333Y-79152200D02*
X196025714Y-79104580D01*
X196025714Y-79104580D02*
X195978095Y-79009342D01*
X195978095Y-79009342D02*
X195930476Y-78818866D01*
X195930476Y-78818866D02*
X195930476Y-78580771D01*
X195930476Y-78580771D02*
X195978095Y-78390295D01*
X195978095Y-78390295D02*
X196025714Y-78295057D01*
X196025714Y-78295057D02*
X196073333Y-78247438D01*
X196073333Y-78247438D02*
X196168571Y-78199819D01*
%TO.C,U2*%
X71762171Y-52141890D02*
X71685981Y-52103795D01*
X71685981Y-52103795D02*
X71571695Y-52103795D01*
X71571695Y-52103795D02*
X71457409Y-52141890D01*
X71457409Y-52141890D02*
X71381219Y-52218080D01*
X71381219Y-52218080D02*
X71343124Y-52294271D01*
X71343124Y-52294271D02*
X71305028Y-52446652D01*
X71305028Y-52446652D02*
X71305028Y-52560938D01*
X71305028Y-52560938D02*
X71343124Y-52713319D01*
X71343124Y-52713319D02*
X71381219Y-52789509D01*
X71381219Y-52789509D02*
X71457409Y-52865700D01*
X71457409Y-52865700D02*
X71571695Y-52903795D01*
X71571695Y-52903795D02*
X71647886Y-52903795D01*
X71647886Y-52903795D02*
X71762171Y-52865700D01*
X71762171Y-52865700D02*
X71800267Y-52827604D01*
X71800267Y-52827604D02*
X71800267Y-52560938D01*
X71800267Y-52560938D02*
X71647886Y-52560938D01*
X72143124Y-52903795D02*
X72143124Y-52103795D01*
X72143124Y-52103795D02*
X72447886Y-52103795D01*
X72447886Y-52103795D02*
X72524076Y-52141890D01*
X72524076Y-52141890D02*
X72562171Y-52179985D01*
X72562171Y-52179985D02*
X72600267Y-52256176D01*
X72600267Y-52256176D02*
X72600267Y-52370461D01*
X72600267Y-52370461D02*
X72562171Y-52446652D01*
X72562171Y-52446652D02*
X72524076Y-52484747D01*
X72524076Y-52484747D02*
X72447886Y-52522842D01*
X72447886Y-52522842D02*
X72143124Y-52522842D01*
X73095505Y-52103795D02*
X73171695Y-52103795D01*
X73171695Y-52103795D02*
X73247886Y-52141890D01*
X73247886Y-52141890D02*
X73285981Y-52179985D01*
X73285981Y-52179985D02*
X73324076Y-52256176D01*
X73324076Y-52256176D02*
X73362171Y-52408557D01*
X73362171Y-52408557D02*
X73362171Y-52599033D01*
X73362171Y-52599033D02*
X73324076Y-52751414D01*
X73324076Y-52751414D02*
X73285981Y-52827604D01*
X73285981Y-52827604D02*
X73247886Y-52865700D01*
X73247886Y-52865700D02*
X73171695Y-52903795D01*
X73171695Y-52903795D02*
X73095505Y-52903795D01*
X73095505Y-52903795D02*
X73019314Y-52865700D01*
X73019314Y-52865700D02*
X72981219Y-52827604D01*
X72981219Y-52827604D02*
X72943124Y-52751414D01*
X72943124Y-52751414D02*
X72905028Y-52599033D01*
X72905028Y-52599033D02*
X72905028Y-52408557D01*
X72905028Y-52408557D02*
X72943124Y-52256176D01*
X72943124Y-52256176D02*
X72981219Y-52179985D01*
X72981219Y-52179985D02*
X73019314Y-52141890D01*
X73019314Y-52141890D02*
X73095505Y-52103795D01*
%TO.C,K04*%
X122025714Y-50199819D02*
X122025714Y-49199819D01*
X122597142Y-50199819D02*
X122168571Y-49628390D01*
X122597142Y-49199819D02*
X122025714Y-49771247D01*
X123216190Y-49199819D02*
X123311428Y-49199819D01*
X123311428Y-49199819D02*
X123406666Y-49247438D01*
X123406666Y-49247438D02*
X123454285Y-49295057D01*
X123454285Y-49295057D02*
X123501904Y-49390295D01*
X123501904Y-49390295D02*
X123549523Y-49580771D01*
X123549523Y-49580771D02*
X123549523Y-49818866D01*
X123549523Y-49818866D02*
X123501904Y-50009342D01*
X123501904Y-50009342D02*
X123454285Y-50104580D01*
X123454285Y-50104580D02*
X123406666Y-50152200D01*
X123406666Y-50152200D02*
X123311428Y-50199819D01*
X123311428Y-50199819D02*
X123216190Y-50199819D01*
X123216190Y-50199819D02*
X123120952Y-50152200D01*
X123120952Y-50152200D02*
X123073333Y-50104580D01*
X123073333Y-50104580D02*
X123025714Y-50009342D01*
X123025714Y-50009342D02*
X122978095Y-49818866D01*
X122978095Y-49818866D02*
X122978095Y-49580771D01*
X122978095Y-49580771D02*
X123025714Y-49390295D01*
X123025714Y-49390295D02*
X123073333Y-49295057D01*
X123073333Y-49295057D02*
X123120952Y-49247438D01*
X123120952Y-49247438D02*
X123216190Y-49199819D01*
X124406666Y-49533152D02*
X124406666Y-50199819D01*
X124168571Y-49152200D02*
X123930476Y-49866485D01*
X123930476Y-49866485D02*
X124549523Y-49866485D01*
%TO.C,K12*%
X158025714Y-67199819D02*
X158025714Y-66199819D01*
X158597142Y-67199819D02*
X158168571Y-66628390D01*
X158597142Y-66199819D02*
X158025714Y-66771247D01*
X159549523Y-67199819D02*
X158978095Y-67199819D01*
X159263809Y-67199819D02*
X159263809Y-66199819D01*
X159263809Y-66199819D02*
X159168571Y-66342676D01*
X159168571Y-66342676D02*
X159073333Y-66437914D01*
X159073333Y-66437914D02*
X158978095Y-66485533D01*
X159930476Y-66295057D02*
X159978095Y-66247438D01*
X159978095Y-66247438D02*
X160073333Y-66199819D01*
X160073333Y-66199819D02*
X160311428Y-66199819D01*
X160311428Y-66199819D02*
X160406666Y-66247438D01*
X160406666Y-66247438D02*
X160454285Y-66295057D01*
X160454285Y-66295057D02*
X160501904Y-66390295D01*
X160501904Y-66390295D02*
X160501904Y-66485533D01*
X160501904Y-66485533D02*
X160454285Y-66628390D01*
X160454285Y-66628390D02*
X159882857Y-67199819D01*
X159882857Y-67199819D02*
X160501904Y-67199819D01*
%TO.C,K30*%
X127710165Y-105123669D02*
X127797321Y-104127474D01*
X128279419Y-105173472D02*
X127902282Y-104566866D01*
X128366575Y-104177277D02*
X127747518Y-104696728D01*
X128698640Y-104206329D02*
X129315332Y-104260283D01*
X129315332Y-104260283D02*
X128950065Y-104610734D01*
X128950065Y-104610734D02*
X129092379Y-104623185D01*
X129092379Y-104623185D02*
X129183104Y-104678923D01*
X129183104Y-104678923D02*
X129226392Y-104730511D01*
X129226392Y-104730511D02*
X129265529Y-104829537D01*
X129265529Y-104829537D02*
X129244777Y-105066726D01*
X129244777Y-105066726D02*
X129189039Y-105157452D01*
X129189039Y-105157452D02*
X129137451Y-105200739D01*
X129137451Y-105200739D02*
X129038425Y-105239877D01*
X129038425Y-105239877D02*
X128753798Y-105214975D01*
X128753798Y-105214975D02*
X128663072Y-105159236D01*
X128663072Y-105159236D02*
X128619785Y-105107648D01*
X129932024Y-104314236D02*
X130026900Y-104322537D01*
X130026900Y-104322537D02*
X130117625Y-104378275D01*
X130117625Y-104378275D02*
X130160913Y-104429864D01*
X130160913Y-104429864D02*
X130200050Y-104528889D01*
X130200050Y-104528889D02*
X130230887Y-104722791D01*
X130230887Y-104722791D02*
X130210135Y-104959980D01*
X130210135Y-104959980D02*
X130146096Y-105145581D01*
X130146096Y-105145581D02*
X130090358Y-105236307D01*
X130090358Y-105236307D02*
X130038770Y-105279594D01*
X130038770Y-105279594D02*
X129939744Y-105318732D01*
X129939744Y-105318732D02*
X129844868Y-105310431D01*
X129844868Y-105310431D02*
X129754143Y-105254693D01*
X129754143Y-105254693D02*
X129710855Y-105203105D01*
X129710855Y-105203105D02*
X129671718Y-105104079D01*
X129671718Y-105104079D02*
X129640881Y-104910177D01*
X129640881Y-104910177D02*
X129661633Y-104672988D01*
X129661633Y-104672988D02*
X129725672Y-104487387D01*
X129725672Y-104487387D02*
X129781410Y-104396661D01*
X129781410Y-104396661D02*
X129832998Y-104353374D01*
X129832998Y-104353374D02*
X129932024Y-104314236D01*
%TO.C,K01*%
X176025714Y-62199819D02*
X176025714Y-61199819D01*
X176597142Y-62199819D02*
X176168571Y-61628390D01*
X176597142Y-61199819D02*
X176025714Y-61771247D01*
X177216190Y-61199819D02*
X177311428Y-61199819D01*
X177311428Y-61199819D02*
X177406666Y-61247438D01*
X177406666Y-61247438D02*
X177454285Y-61295057D01*
X177454285Y-61295057D02*
X177501904Y-61390295D01*
X177501904Y-61390295D02*
X177549523Y-61580771D01*
X177549523Y-61580771D02*
X177549523Y-61818866D01*
X177549523Y-61818866D02*
X177501904Y-62009342D01*
X177501904Y-62009342D02*
X177454285Y-62104580D01*
X177454285Y-62104580D02*
X177406666Y-62152200D01*
X177406666Y-62152200D02*
X177311428Y-62199819D01*
X177311428Y-62199819D02*
X177216190Y-62199819D01*
X177216190Y-62199819D02*
X177120952Y-62152200D01*
X177120952Y-62152200D02*
X177073333Y-62104580D01*
X177073333Y-62104580D02*
X177025714Y-62009342D01*
X177025714Y-62009342D02*
X176978095Y-61818866D01*
X176978095Y-61818866D02*
X176978095Y-61580771D01*
X176978095Y-61580771D02*
X177025714Y-61390295D01*
X177025714Y-61390295D02*
X177073333Y-61295057D01*
X177073333Y-61295057D02*
X177120952Y-61247438D01*
X177120952Y-61247438D02*
X177216190Y-61199819D01*
X178501904Y-62199819D02*
X177930476Y-62199819D01*
X178216190Y-62199819D02*
X178216190Y-61199819D01*
X178216190Y-61199819D02*
X178120952Y-61342676D01*
X178120952Y-61342676D02*
X178025714Y-61437914D01*
X178025714Y-61437914D02*
X177930476Y-61485533D01*
%TO.C,K14*%
X122025714Y-67199819D02*
X122025714Y-66199819D01*
X122597142Y-67199819D02*
X122168571Y-66628390D01*
X122597142Y-66199819D02*
X122025714Y-66771247D01*
X123549523Y-67199819D02*
X122978095Y-67199819D01*
X123263809Y-67199819D02*
X123263809Y-66199819D01*
X123263809Y-66199819D02*
X123168571Y-66342676D01*
X123168571Y-66342676D02*
X123073333Y-66437914D01*
X123073333Y-66437914D02*
X122978095Y-66485533D01*
X124406666Y-66533152D02*
X124406666Y-67199819D01*
X124168571Y-66152200D02*
X123930476Y-66866485D01*
X123930476Y-66866485D02*
X124549523Y-66866485D01*
%TO.C,K23*%
X140025714Y-79199819D02*
X140025714Y-78199819D01*
X140597142Y-79199819D02*
X140168571Y-78628390D01*
X140597142Y-78199819D02*
X140025714Y-78771247D01*
X140978095Y-78295057D02*
X141025714Y-78247438D01*
X141025714Y-78247438D02*
X141120952Y-78199819D01*
X141120952Y-78199819D02*
X141359047Y-78199819D01*
X141359047Y-78199819D02*
X141454285Y-78247438D01*
X141454285Y-78247438D02*
X141501904Y-78295057D01*
X141501904Y-78295057D02*
X141549523Y-78390295D01*
X141549523Y-78390295D02*
X141549523Y-78485533D01*
X141549523Y-78485533D02*
X141501904Y-78628390D01*
X141501904Y-78628390D02*
X140930476Y-79199819D01*
X140930476Y-79199819D02*
X141549523Y-79199819D01*
X141882857Y-78199819D02*
X142501904Y-78199819D01*
X142501904Y-78199819D02*
X142168571Y-78580771D01*
X142168571Y-78580771D02*
X142311428Y-78580771D01*
X142311428Y-78580771D02*
X142406666Y-78628390D01*
X142406666Y-78628390D02*
X142454285Y-78676009D01*
X142454285Y-78676009D02*
X142501904Y-78771247D01*
X142501904Y-78771247D02*
X142501904Y-79009342D01*
X142501904Y-79009342D02*
X142454285Y-79104580D01*
X142454285Y-79104580D02*
X142406666Y-79152200D01*
X142406666Y-79152200D02*
X142311428Y-79199819D01*
X142311428Y-79199819D02*
X142025714Y-79199819D01*
X142025714Y-79199819D02*
X141930476Y-79152200D01*
X141930476Y-79152200D02*
X141882857Y-79104580D01*
%TO.C,K03*%
X140025714Y-45199819D02*
X140025714Y-44199819D01*
X140597142Y-45199819D02*
X140168571Y-44628390D01*
X140597142Y-44199819D02*
X140025714Y-44771247D01*
X141216190Y-44199819D02*
X141311428Y-44199819D01*
X141311428Y-44199819D02*
X141406666Y-44247438D01*
X141406666Y-44247438D02*
X141454285Y-44295057D01*
X141454285Y-44295057D02*
X141501904Y-44390295D01*
X141501904Y-44390295D02*
X141549523Y-44580771D01*
X141549523Y-44580771D02*
X141549523Y-44818866D01*
X141549523Y-44818866D02*
X141501904Y-45009342D01*
X141501904Y-45009342D02*
X141454285Y-45104580D01*
X141454285Y-45104580D02*
X141406666Y-45152200D01*
X141406666Y-45152200D02*
X141311428Y-45199819D01*
X141311428Y-45199819D02*
X141216190Y-45199819D01*
X141216190Y-45199819D02*
X141120952Y-45152200D01*
X141120952Y-45152200D02*
X141073333Y-45104580D01*
X141073333Y-45104580D02*
X141025714Y-45009342D01*
X141025714Y-45009342D02*
X140978095Y-44818866D01*
X140978095Y-44818866D02*
X140978095Y-44580771D01*
X140978095Y-44580771D02*
X141025714Y-44390295D01*
X141025714Y-44390295D02*
X141073333Y-44295057D01*
X141073333Y-44295057D02*
X141120952Y-44247438D01*
X141120952Y-44247438D02*
X141216190Y-44199819D01*
X141882857Y-44199819D02*
X142501904Y-44199819D01*
X142501904Y-44199819D02*
X142168571Y-44580771D01*
X142168571Y-44580771D02*
X142311428Y-44580771D01*
X142311428Y-44580771D02*
X142406666Y-44628390D01*
X142406666Y-44628390D02*
X142454285Y-44676009D01*
X142454285Y-44676009D02*
X142501904Y-44771247D01*
X142501904Y-44771247D02*
X142501904Y-45009342D01*
X142501904Y-45009342D02*
X142454285Y-45104580D01*
X142454285Y-45104580D02*
X142406666Y-45152200D01*
X142406666Y-45152200D02*
X142311428Y-45199819D01*
X142311428Y-45199819D02*
X142025714Y-45199819D01*
X142025714Y-45199819D02*
X141930476Y-45152200D01*
X141930476Y-45152200D02*
X141882857Y-45104580D01*
%TO.C,K22*%
X158025714Y-84199819D02*
X158025714Y-83199819D01*
X158597142Y-84199819D02*
X158168571Y-83628390D01*
X158597142Y-83199819D02*
X158025714Y-83771247D01*
X158978095Y-83295057D02*
X159025714Y-83247438D01*
X159025714Y-83247438D02*
X159120952Y-83199819D01*
X159120952Y-83199819D02*
X159359047Y-83199819D01*
X159359047Y-83199819D02*
X159454285Y-83247438D01*
X159454285Y-83247438D02*
X159501904Y-83295057D01*
X159501904Y-83295057D02*
X159549523Y-83390295D01*
X159549523Y-83390295D02*
X159549523Y-83485533D01*
X159549523Y-83485533D02*
X159501904Y-83628390D01*
X159501904Y-83628390D02*
X158930476Y-84199819D01*
X158930476Y-84199819D02*
X159549523Y-84199819D01*
X159930476Y-83295057D02*
X159978095Y-83247438D01*
X159978095Y-83247438D02*
X160073333Y-83199819D01*
X160073333Y-83199819D02*
X160311428Y-83199819D01*
X160311428Y-83199819D02*
X160406666Y-83247438D01*
X160406666Y-83247438D02*
X160454285Y-83295057D01*
X160454285Y-83295057D02*
X160501904Y-83390295D01*
X160501904Y-83390295D02*
X160501904Y-83485533D01*
X160501904Y-83485533D02*
X160454285Y-83628390D01*
X160454285Y-83628390D02*
X159882857Y-84199819D01*
X159882857Y-84199819D02*
X160501904Y-84199819D01*
%TO.C,K15*%
X104025714Y-69199819D02*
X104025714Y-68199819D01*
X104597142Y-69199819D02*
X104168571Y-68628390D01*
X104597142Y-68199819D02*
X104025714Y-68771247D01*
X105549523Y-69199819D02*
X104978095Y-69199819D01*
X105263809Y-69199819D02*
X105263809Y-68199819D01*
X105263809Y-68199819D02*
X105168571Y-68342676D01*
X105168571Y-68342676D02*
X105073333Y-68437914D01*
X105073333Y-68437914D02*
X104978095Y-68485533D01*
X106454285Y-68199819D02*
X105978095Y-68199819D01*
X105978095Y-68199819D02*
X105930476Y-68676009D01*
X105930476Y-68676009D02*
X105978095Y-68628390D01*
X105978095Y-68628390D02*
X106073333Y-68580771D01*
X106073333Y-68580771D02*
X106311428Y-68580771D01*
X106311428Y-68580771D02*
X106406666Y-68628390D01*
X106406666Y-68628390D02*
X106454285Y-68676009D01*
X106454285Y-68676009D02*
X106501904Y-68771247D01*
X106501904Y-68771247D02*
X106501904Y-69009342D01*
X106501904Y-69009342D02*
X106454285Y-69104580D01*
X106454285Y-69104580D02*
X106406666Y-69152200D01*
X106406666Y-69152200D02*
X106311428Y-69199819D01*
X106311428Y-69199819D02*
X106073333Y-69199819D01*
X106073333Y-69199819D02*
X105978095Y-69152200D01*
X105978095Y-69152200D02*
X105930476Y-69104580D01*
%TO.C,K32*%
X80842984Y-114443814D02*
X80420365Y-113537506D01*
X81360874Y-114202318D02*
X80730960Y-113865550D01*
X80938256Y-113296010D02*
X80661862Y-114055396D01*
X81240358Y-113155137D02*
X81801406Y-112893516D01*
X81801406Y-112893516D02*
X81660301Y-113379649D01*
X81660301Y-113379649D02*
X81789773Y-113319275D01*
X81789773Y-113319275D02*
X81896213Y-113322183D01*
X81896213Y-113322183D02*
X81959495Y-113345216D01*
X81959495Y-113345216D02*
X82042902Y-113411407D01*
X82042902Y-113411407D02*
X82143525Y-113627194D01*
X82143525Y-113627194D02*
X82140617Y-113733634D01*
X82140617Y-113733634D02*
X82117584Y-113796916D01*
X82117584Y-113796916D02*
X82051394Y-113880323D01*
X82051394Y-113880323D02*
X81792449Y-114001071D01*
X81792449Y-114001071D02*
X81686009Y-113998163D01*
X81686009Y-113998163D02*
X81622727Y-113975130D01*
X82186915Y-112818834D02*
X82209948Y-112755552D01*
X82209948Y-112755552D02*
X82276139Y-112672145D01*
X82276139Y-112672145D02*
X82491926Y-112571521D01*
X82491926Y-112571521D02*
X82598366Y-112574430D01*
X82598366Y-112574430D02*
X82661648Y-112597462D01*
X82661648Y-112597462D02*
X82745055Y-112663653D01*
X82745055Y-112663653D02*
X82785304Y-112749968D01*
X82785304Y-112749968D02*
X82802521Y-112899565D01*
X82802521Y-112899565D02*
X82526127Y-113658951D01*
X82526127Y-113658951D02*
X83087174Y-113397331D01*
%TO.C,K11*%
X176025714Y-79199819D02*
X176025714Y-78199819D01*
X176597142Y-79199819D02*
X176168571Y-78628390D01*
X176597142Y-78199819D02*
X176025714Y-78771247D01*
X177549523Y-79199819D02*
X176978095Y-79199819D01*
X177263809Y-79199819D02*
X177263809Y-78199819D01*
X177263809Y-78199819D02*
X177168571Y-78342676D01*
X177168571Y-78342676D02*
X177073333Y-78437914D01*
X177073333Y-78437914D02*
X176978095Y-78485533D01*
X178501904Y-79199819D02*
X177930476Y-79199819D01*
X178216190Y-79199819D02*
X178216190Y-78199819D01*
X178216190Y-78199819D02*
X178120952Y-78342676D01*
X178120952Y-78342676D02*
X178025714Y-78437914D01*
X178025714Y-78437914D02*
X177930476Y-78485533D01*
%TO.C,K05*%
X104025714Y-52199819D02*
X104025714Y-51199819D01*
X104597142Y-52199819D02*
X104168571Y-51628390D01*
X104597142Y-51199819D02*
X104025714Y-51771247D01*
X105216190Y-51199819D02*
X105311428Y-51199819D01*
X105311428Y-51199819D02*
X105406666Y-51247438D01*
X105406666Y-51247438D02*
X105454285Y-51295057D01*
X105454285Y-51295057D02*
X105501904Y-51390295D01*
X105501904Y-51390295D02*
X105549523Y-51580771D01*
X105549523Y-51580771D02*
X105549523Y-51818866D01*
X105549523Y-51818866D02*
X105501904Y-52009342D01*
X105501904Y-52009342D02*
X105454285Y-52104580D01*
X105454285Y-52104580D02*
X105406666Y-52152200D01*
X105406666Y-52152200D02*
X105311428Y-52199819D01*
X105311428Y-52199819D02*
X105216190Y-52199819D01*
X105216190Y-52199819D02*
X105120952Y-52152200D01*
X105120952Y-52152200D02*
X105073333Y-52104580D01*
X105073333Y-52104580D02*
X105025714Y-52009342D01*
X105025714Y-52009342D02*
X104978095Y-51818866D01*
X104978095Y-51818866D02*
X104978095Y-51580771D01*
X104978095Y-51580771D02*
X105025714Y-51390295D01*
X105025714Y-51390295D02*
X105073333Y-51295057D01*
X105073333Y-51295057D02*
X105120952Y-51247438D01*
X105120952Y-51247438D02*
X105216190Y-51199819D01*
X106454285Y-51199819D02*
X105978095Y-51199819D01*
X105978095Y-51199819D02*
X105930476Y-51676009D01*
X105930476Y-51676009D02*
X105978095Y-51628390D01*
X105978095Y-51628390D02*
X106073333Y-51580771D01*
X106073333Y-51580771D02*
X106311428Y-51580771D01*
X106311428Y-51580771D02*
X106406666Y-51628390D01*
X106406666Y-51628390D02*
X106454285Y-51676009D01*
X106454285Y-51676009D02*
X106501904Y-51771247D01*
X106501904Y-51771247D02*
X106501904Y-52009342D01*
X106501904Y-52009342D02*
X106454285Y-52104580D01*
X106454285Y-52104580D02*
X106406666Y-52152200D01*
X106406666Y-52152200D02*
X106311428Y-52199819D01*
X106311428Y-52199819D02*
X106073333Y-52199819D01*
X106073333Y-52199819D02*
X105978095Y-52152200D01*
X105978095Y-52152200D02*
X105930476Y-52104580D01*
%TO.C,K20*%
X194025714Y-96199819D02*
X194025714Y-95199819D01*
X194597142Y-96199819D02*
X194168571Y-95628390D01*
X194597142Y-95199819D02*
X194025714Y-95771247D01*
X194978095Y-95295057D02*
X195025714Y-95247438D01*
X195025714Y-95247438D02*
X195120952Y-95199819D01*
X195120952Y-95199819D02*
X195359047Y-95199819D01*
X195359047Y-95199819D02*
X195454285Y-95247438D01*
X195454285Y-95247438D02*
X195501904Y-95295057D01*
X195501904Y-95295057D02*
X195549523Y-95390295D01*
X195549523Y-95390295D02*
X195549523Y-95485533D01*
X195549523Y-95485533D02*
X195501904Y-95628390D01*
X195501904Y-95628390D02*
X194930476Y-96199819D01*
X194930476Y-96199819D02*
X195549523Y-96199819D01*
X196168571Y-95199819D02*
X196263809Y-95199819D01*
X196263809Y-95199819D02*
X196359047Y-95247438D01*
X196359047Y-95247438D02*
X196406666Y-95295057D01*
X196406666Y-95295057D02*
X196454285Y-95390295D01*
X196454285Y-95390295D02*
X196501904Y-95580771D01*
X196501904Y-95580771D02*
X196501904Y-95818866D01*
X196501904Y-95818866D02*
X196454285Y-96009342D01*
X196454285Y-96009342D02*
X196406666Y-96104580D01*
X196406666Y-96104580D02*
X196359047Y-96152200D01*
X196359047Y-96152200D02*
X196263809Y-96199819D01*
X196263809Y-96199819D02*
X196168571Y-96199819D01*
X196168571Y-96199819D02*
X196073333Y-96152200D01*
X196073333Y-96152200D02*
X196025714Y-96104580D01*
X196025714Y-96104580D02*
X195978095Y-96009342D01*
X195978095Y-96009342D02*
X195930476Y-95818866D01*
X195930476Y-95818866D02*
X195930476Y-95580771D01*
X195930476Y-95580771D02*
X195978095Y-95390295D01*
X195978095Y-95390295D02*
X196025714Y-95295057D01*
X196025714Y-95295057D02*
X196073333Y-95247438D01*
X196073333Y-95247438D02*
X196168571Y-95199819D01*
%TO.C,K13*%
X140025714Y-62199819D02*
X140025714Y-61199819D01*
X140597142Y-62199819D02*
X140168571Y-61628390D01*
X140597142Y-61199819D02*
X140025714Y-61771247D01*
X141549523Y-62199819D02*
X140978095Y-62199819D01*
X141263809Y-62199819D02*
X141263809Y-61199819D01*
X141263809Y-61199819D02*
X141168571Y-61342676D01*
X141168571Y-61342676D02*
X141073333Y-61437914D01*
X141073333Y-61437914D02*
X140978095Y-61485533D01*
X141882857Y-61199819D02*
X142501904Y-61199819D01*
X142501904Y-61199819D02*
X142168571Y-61580771D01*
X142168571Y-61580771D02*
X142311428Y-61580771D01*
X142311428Y-61580771D02*
X142406666Y-61628390D01*
X142406666Y-61628390D02*
X142454285Y-61676009D01*
X142454285Y-61676009D02*
X142501904Y-61771247D01*
X142501904Y-61771247D02*
X142501904Y-62009342D01*
X142501904Y-62009342D02*
X142454285Y-62104580D01*
X142454285Y-62104580D02*
X142406666Y-62152200D01*
X142406666Y-62152200D02*
X142311428Y-62199819D01*
X142311428Y-62199819D02*
X142025714Y-62199819D01*
X142025714Y-62199819D02*
X141930476Y-62152200D01*
X141930476Y-62152200D02*
X141882857Y-62104580D01*
%TO.C,K00*%
X194025714Y-62199819D02*
X194025714Y-61199819D01*
X194597142Y-62199819D02*
X194168571Y-61628390D01*
X194597142Y-61199819D02*
X194025714Y-61771247D01*
X195216190Y-61199819D02*
X195311428Y-61199819D01*
X195311428Y-61199819D02*
X195406666Y-61247438D01*
X195406666Y-61247438D02*
X195454285Y-61295057D01*
X195454285Y-61295057D02*
X195501904Y-61390295D01*
X195501904Y-61390295D02*
X195549523Y-61580771D01*
X195549523Y-61580771D02*
X195549523Y-61818866D01*
X195549523Y-61818866D02*
X195501904Y-62009342D01*
X195501904Y-62009342D02*
X195454285Y-62104580D01*
X195454285Y-62104580D02*
X195406666Y-62152200D01*
X195406666Y-62152200D02*
X195311428Y-62199819D01*
X195311428Y-62199819D02*
X195216190Y-62199819D01*
X195216190Y-62199819D02*
X195120952Y-62152200D01*
X195120952Y-62152200D02*
X195073333Y-62104580D01*
X195073333Y-62104580D02*
X195025714Y-62009342D01*
X195025714Y-62009342D02*
X194978095Y-61818866D01*
X194978095Y-61818866D02*
X194978095Y-61580771D01*
X194978095Y-61580771D02*
X195025714Y-61390295D01*
X195025714Y-61390295D02*
X195073333Y-61295057D01*
X195073333Y-61295057D02*
X195120952Y-61247438D01*
X195120952Y-61247438D02*
X195216190Y-61199819D01*
X196168571Y-61199819D02*
X196263809Y-61199819D01*
X196263809Y-61199819D02*
X196359047Y-61247438D01*
X196359047Y-61247438D02*
X196406666Y-61295057D01*
X196406666Y-61295057D02*
X196454285Y-61390295D01*
X196454285Y-61390295D02*
X196501904Y-61580771D01*
X196501904Y-61580771D02*
X196501904Y-61818866D01*
X196501904Y-61818866D02*
X196454285Y-62009342D01*
X196454285Y-62009342D02*
X196406666Y-62104580D01*
X196406666Y-62104580D02*
X196359047Y-62152200D01*
X196359047Y-62152200D02*
X196263809Y-62199819D01*
X196263809Y-62199819D02*
X196168571Y-62199819D01*
X196168571Y-62199819D02*
X196073333Y-62152200D01*
X196073333Y-62152200D02*
X196025714Y-62104580D01*
X196025714Y-62104580D02*
X195978095Y-62009342D01*
X195978095Y-62009342D02*
X195930476Y-61818866D01*
X195930476Y-61818866D02*
X195930476Y-61580771D01*
X195930476Y-61580771D02*
X195978095Y-61390295D01*
X195978095Y-61390295D02*
X196025714Y-61295057D01*
X196025714Y-61295057D02*
X196073333Y-61247438D01*
X196073333Y-61247438D02*
X196168571Y-61199819D01*
%TO.C,K31*%
X103689674Y-106529179D02*
X103516026Y-105544372D01*
X104252421Y-106429952D02*
X103731133Y-105941625D01*
X104078773Y-105445144D02*
X103615253Y-106107119D01*
X104407042Y-105387261D02*
X105016685Y-105279765D01*
X105016685Y-105279765D02*
X104754568Y-105712812D01*
X104754568Y-105712812D02*
X104895254Y-105688006D01*
X104895254Y-105688006D02*
X104997315Y-105718363D01*
X104997315Y-105718363D02*
X105052479Y-105756990D01*
X105052479Y-105756990D02*
X105115913Y-105842512D01*
X105115913Y-105842512D02*
X105157258Y-106076990D01*
X105157258Y-106076990D02*
X105126900Y-106179050D01*
X105126900Y-106179050D02*
X105088273Y-106234215D01*
X105088273Y-106234215D02*
X105002751Y-106297648D01*
X105002751Y-106297648D02*
X104721377Y-106347262D01*
X104721377Y-106347262D02*
X104619317Y-106316905D01*
X104619317Y-106316905D02*
X104564153Y-106278278D01*
X106128246Y-106099193D02*
X105565498Y-106198421D01*
X105846872Y-106148807D02*
X105673224Y-105163999D01*
X105673224Y-105163999D02*
X105604239Y-105321224D01*
X105604239Y-105321224D02*
X105526986Y-105431553D01*
X105526986Y-105431553D02*
X105441464Y-105494987D01*
%TO.C,K25*%
X98240000Y-88000000D02*
X98240000Y-87000000D01*
X99240000Y-87000000D02*
X98240000Y-87000000D01*
X98240000Y-101000000D02*
X99240000Y-101000000D01*
X112240000Y-87000000D02*
X112240000Y-88000000D01*
X111240000Y-101000000D02*
X112240000Y-101000000D01*
X112240000Y-100000000D02*
X112240000Y-101000000D01*
X112240000Y-87000000D02*
X111240000Y-87000000D01*
X98240000Y-101000000D02*
X98240000Y-100000000D01*
%TO.C,K24*%
X116240000Y-99000000D02*
X116240000Y-98000000D01*
X130240000Y-98000000D02*
X130240000Y-99000000D01*
X116240000Y-99000000D02*
X117240000Y-99000000D01*
X130240000Y-85000000D02*
X130240000Y-86000000D01*
X116240000Y-86000000D02*
X116240000Y-85000000D01*
X130240000Y-85000000D02*
X129240000Y-85000000D01*
X117240000Y-85000000D02*
X116240000Y-85000000D01*
X129240000Y-99000000D02*
X130240000Y-99000000D01*
%TO.C,K21*%
X170240000Y-111000000D02*
X170240000Y-110000000D01*
X184240000Y-97000000D02*
X183240000Y-97000000D01*
X184240000Y-97000000D02*
X184240000Y-98000000D01*
X170240000Y-98000000D02*
X170240000Y-97000000D01*
X184240000Y-110000000D02*
X184240000Y-111000000D01*
X171240000Y-97000000D02*
X170240000Y-97000000D01*
X170240000Y-111000000D02*
X171240000Y-111000000D01*
X183240000Y-111000000D02*
X184240000Y-111000000D01*
%TO.C,K02*%
X152240000Y-65000000D02*
X153240000Y-65000000D01*
X153240000Y-51000000D02*
X152240000Y-51000000D01*
X166240000Y-51000000D02*
X165240000Y-51000000D01*
X166240000Y-64000000D02*
X166240000Y-65000000D01*
X165240000Y-65000000D02*
X166240000Y-65000000D01*
X152240000Y-52000000D02*
X152240000Y-51000000D01*
X166240000Y-51000000D02*
X166240000Y-52000000D01*
X152240000Y-65000000D02*
X152240000Y-64000000D01*
%TO.C,K10*%
X188240000Y-81000000D02*
X188240000Y-80000000D01*
X202240000Y-80000000D02*
X201240000Y-80000000D01*
X202240000Y-80000000D02*
X202240000Y-81000000D01*
X201240000Y-94000000D02*
X202240000Y-94000000D01*
X188240000Y-94000000D02*
X188240000Y-93000000D01*
X188240000Y-94000000D02*
X189240000Y-94000000D01*
X202240000Y-93000000D02*
X202240000Y-94000000D01*
X189240000Y-80000000D02*
X188240000Y-80000000D01*
D11*
%TO.C,U2*%
X68036800Y-89208000D02*
X68036800Y-89608000D01*
X74836800Y-102208000D02*
X68036800Y-102208000D01*
X68036800Y-53875000D02*
X71043800Y-53875000D01*
X68036800Y-74008000D02*
X68036800Y-74408000D01*
X89036800Y-66308000D02*
X89036800Y-66708000D01*
X68036800Y-51208000D02*
X89036800Y-51208000D01*
X68036800Y-58708000D02*
X68036800Y-59108000D01*
X68036800Y-81608000D02*
X68036800Y-82008000D01*
X89036800Y-58708000D02*
X89036800Y-59108000D01*
X68036800Y-96808000D02*
X68036800Y-97208000D01*
X89036800Y-89208000D02*
X89036800Y-89608000D01*
X68036800Y-79008000D02*
X68036800Y-79408000D01*
X89036800Y-74008000D02*
X89036800Y-74408000D01*
X89036800Y-76508000D02*
X89036800Y-76908000D01*
X89036800Y-99408000D02*
X89036800Y-99808000D01*
X89036800Y-71408000D02*
X89036800Y-71808000D01*
X89036800Y-84108000D02*
X89036800Y-84508000D01*
X89036800Y-68908000D02*
X89036800Y-69308000D01*
X68036800Y-51208000D02*
X68036800Y-51508000D01*
X68036800Y-84108000D02*
X68036800Y-84508000D01*
X89036800Y-63808000D02*
X89036800Y-64208000D01*
X89036800Y-94308000D02*
X89036800Y-94708000D01*
X68036800Y-68908000D02*
X68036800Y-69308000D01*
X89036800Y-102208000D02*
X82236800Y-102208000D01*
X89036800Y-51208000D02*
X89036800Y-51508000D01*
X68036800Y-66308000D02*
X68036800Y-66708000D01*
X68036800Y-63808000D02*
X68036800Y-64208000D01*
X68036800Y-53608000D02*
X68036800Y-54008000D01*
X89036800Y-56208000D02*
X89036800Y-56608000D01*
X89036800Y-53608000D02*
X89036800Y-54008000D01*
X68036800Y-86708000D02*
X68036800Y-87108000D01*
X68036800Y-61308000D02*
X68036800Y-61708000D01*
X89036800Y-61308000D02*
X89036800Y-61708000D01*
X89036800Y-79008000D02*
X89036800Y-79408000D01*
X68036800Y-56208000D02*
X68036800Y-56608000D01*
X68036800Y-76508000D02*
X68036800Y-76908000D01*
X68036800Y-99408000D02*
X68036800Y-99808000D01*
X71043800Y-53875000D02*
X71043800Y-51208000D01*
X68036800Y-94308000D02*
X68036800Y-94708000D01*
X68036800Y-71408000D02*
X68036800Y-71808000D01*
X89036800Y-86708000D02*
X89036800Y-87108000D01*
X89036800Y-96808000D02*
X89036800Y-97208000D01*
X68036800Y-91808000D02*
X68036800Y-92208000D01*
X89036800Y-81608000D02*
X89036800Y-82008000D01*
X89036800Y-91808000D02*
X89036800Y-92208000D01*
D10*
%TO.C,K04*%
X116240000Y-65000000D02*
X116240000Y-64000000D01*
X130240000Y-51000000D02*
X130240000Y-52000000D01*
X129240000Y-65000000D02*
X130240000Y-65000000D01*
X130240000Y-64000000D02*
X130240000Y-65000000D01*
X116240000Y-52000000D02*
X116240000Y-51000000D01*
X130240000Y-51000000D02*
X129240000Y-51000000D01*
X116240000Y-65000000D02*
X117240000Y-65000000D01*
X117240000Y-51000000D02*
X116240000Y-51000000D01*
%TO.C,K12*%
X165240000Y-82000000D02*
X166240000Y-82000000D01*
X153240000Y-68000000D02*
X152240000Y-68000000D01*
X166240000Y-68000000D02*
X165240000Y-68000000D01*
X152240000Y-82000000D02*
X153240000Y-82000000D01*
X166240000Y-81000000D02*
X166240000Y-82000000D01*
X152240000Y-82000000D02*
X152240000Y-81000000D01*
X152240000Y-69000000D02*
X152240000Y-68000000D01*
X166240000Y-68000000D02*
X166240000Y-69000000D01*
%TO.C,K30*%
X120656547Y-119363273D02*
X121652742Y-119450428D01*
X135823453Y-106636727D02*
X134827258Y-106549572D01*
X121789572Y-106412742D02*
X121876727Y-105416547D01*
X120656547Y-119363273D02*
X120743703Y-118367078D01*
X122872922Y-105503703D02*
X121876727Y-105416547D01*
X134690428Y-119587258D02*
X134603273Y-120583453D01*
X135823453Y-106636727D02*
X135736297Y-107632922D01*
X133607078Y-120496297D02*
X134603273Y-120583453D01*
%TO.C,K01*%
X170240000Y-77000000D02*
X170240000Y-76000000D01*
X184240000Y-63000000D02*
X183240000Y-63000000D01*
X171240000Y-63000000D02*
X170240000Y-63000000D01*
X170240000Y-77000000D02*
X171240000Y-77000000D01*
X183240000Y-77000000D02*
X184240000Y-77000000D01*
X170240000Y-64000000D02*
X170240000Y-63000000D01*
X184240000Y-63000000D02*
X184240000Y-64000000D01*
X184240000Y-76000000D02*
X184240000Y-77000000D01*
%TO.C,K14*%
X129240000Y-82000000D02*
X130240000Y-82000000D01*
X130240000Y-68000000D02*
X130240000Y-69000000D01*
X130240000Y-81000000D02*
X130240000Y-82000000D01*
X116240000Y-69000000D02*
X116240000Y-68000000D01*
X117240000Y-68000000D02*
X116240000Y-68000000D01*
X116240000Y-82000000D02*
X117240000Y-82000000D01*
X116240000Y-82000000D02*
X116240000Y-81000000D01*
X130240000Y-68000000D02*
X129240000Y-68000000D01*
%TO.C,K23*%
X148240000Y-93000000D02*
X148240000Y-94000000D01*
X134240000Y-81000000D02*
X134240000Y-80000000D01*
X147240000Y-94000000D02*
X148240000Y-94000000D01*
X148240000Y-80000000D02*
X148240000Y-81000000D01*
X134240000Y-94000000D02*
X134240000Y-93000000D01*
X134240000Y-94000000D02*
X135240000Y-94000000D01*
X135240000Y-80000000D02*
X134240000Y-80000000D01*
X148240000Y-80000000D02*
X147240000Y-80000000D01*
%TO.C,K03*%
X134240000Y-47000000D02*
X134240000Y-46000000D01*
X134240000Y-60000000D02*
X135240000Y-60000000D01*
X148240000Y-46000000D02*
X147240000Y-46000000D01*
X148240000Y-46000000D02*
X148240000Y-47000000D01*
X147240000Y-60000000D02*
X148240000Y-60000000D01*
X148240000Y-59000000D02*
X148240000Y-60000000D01*
X134240000Y-60000000D02*
X134240000Y-59000000D01*
X135240000Y-46000000D02*
X134240000Y-46000000D01*
%TO.C,K22*%
X166240000Y-85000000D02*
X166240000Y-86000000D01*
X153240000Y-85000000D02*
X152240000Y-85000000D01*
X152240000Y-86000000D02*
X152240000Y-85000000D01*
X152240000Y-99000000D02*
X152240000Y-98000000D01*
X152240000Y-99000000D02*
X153240000Y-99000000D01*
X165240000Y-99000000D02*
X166240000Y-99000000D01*
X166240000Y-85000000D02*
X165240000Y-85000000D01*
X166240000Y-98000000D02*
X166240000Y-99000000D01*
%TO.C,J1*%
X66390000Y-111800000D02*
X64390000Y-111800000D01*
X66390000Y-106200000D02*
X64390000Y-106200000D01*
X64390000Y-106200000D02*
X64390000Y-111800000D01*
X66390000Y-105950000D02*
X78490000Y-105950000D01*
X78490000Y-105950000D02*
X78490000Y-112050000D01*
X66390000Y-105950000D02*
X66390000Y-112050000D01*
X66390000Y-112050000D02*
X78490000Y-112050000D01*
%TO.C,K15*%
X112240000Y-70000000D02*
X111240000Y-70000000D01*
X112240000Y-70000000D02*
X112240000Y-71000000D01*
X98240000Y-84000000D02*
X99240000Y-84000000D01*
X98240000Y-84000000D02*
X98240000Y-83000000D01*
X98240000Y-71000000D02*
X98240000Y-70000000D01*
X99240000Y-70000000D02*
X98240000Y-70000000D01*
X112240000Y-83000000D02*
X112240000Y-84000000D01*
X111240000Y-84000000D02*
X112240000Y-84000000D01*
%TO.C,K32*%
X76843825Y-117191555D02*
X75937518Y-117614173D01*
X76360136Y-118520481D02*
X75937518Y-117614173D01*
X88625827Y-111697518D02*
X87719519Y-112120136D01*
X94119864Y-123479519D02*
X94542482Y-124385827D01*
X88625827Y-111697518D02*
X89048445Y-112603825D01*
X81854173Y-130302482D02*
X81431555Y-129396175D01*
X81854173Y-130302482D02*
X82760481Y-129879864D01*
X93636175Y-124808445D02*
X94542482Y-124385827D01*
%TO.C,K11*%
X170240000Y-94000000D02*
X171240000Y-94000000D01*
X171240000Y-80000000D02*
X170240000Y-80000000D01*
X184240000Y-80000000D02*
X183240000Y-80000000D01*
X184240000Y-80000000D02*
X184240000Y-81000000D01*
X170240000Y-81000000D02*
X170240000Y-80000000D01*
X183240000Y-94000000D02*
X184240000Y-94000000D01*
X170240000Y-94000000D02*
X170240000Y-93000000D01*
X184240000Y-93000000D02*
X184240000Y-94000000D01*
%TO.C,K05*%
X112240000Y-66000000D02*
X112240000Y-67000000D01*
X99240000Y-53000000D02*
X98240000Y-53000000D01*
X111240000Y-67000000D02*
X112240000Y-67000000D01*
X98240000Y-67000000D02*
X98240000Y-66000000D01*
X112240000Y-53000000D02*
X111240000Y-53000000D01*
X98240000Y-54000000D02*
X98240000Y-53000000D01*
X112240000Y-53000000D02*
X112240000Y-54000000D01*
X98240000Y-67000000D02*
X99240000Y-67000000D01*
%TO.C,K20*%
X188240000Y-111000000D02*
X188240000Y-110000000D01*
X202240000Y-97000000D02*
X201240000Y-97000000D01*
X189240000Y-97000000D02*
X188240000Y-97000000D01*
X188240000Y-98000000D02*
X188240000Y-97000000D01*
X202240000Y-110000000D02*
X202240000Y-111000000D01*
X202240000Y-97000000D02*
X202240000Y-98000000D01*
X188240000Y-111000000D02*
X189240000Y-111000000D01*
X201240000Y-111000000D02*
X202240000Y-111000000D01*
%TO.C,K13*%
X134240000Y-77000000D02*
X135240000Y-77000000D01*
X148240000Y-76000000D02*
X148240000Y-77000000D01*
X148240000Y-63000000D02*
X148240000Y-64000000D01*
X134240000Y-64000000D02*
X134240000Y-63000000D01*
X147240000Y-77000000D02*
X148240000Y-77000000D01*
X134240000Y-77000000D02*
X134240000Y-76000000D01*
X135240000Y-63000000D02*
X134240000Y-63000000D01*
X148240000Y-63000000D02*
X147240000Y-63000000D01*
%TO.C,K00*%
X189240000Y-63000000D02*
X188240000Y-63000000D01*
X202240000Y-63000000D02*
X201240000Y-63000000D01*
X188240000Y-77000000D02*
X188240000Y-76000000D01*
X188240000Y-64000000D02*
X188240000Y-63000000D01*
X201240000Y-77000000D02*
X202240000Y-77000000D01*
X188240000Y-77000000D02*
X189240000Y-77000000D01*
X202240000Y-63000000D02*
X202240000Y-64000000D01*
X202240000Y-76000000D02*
X202240000Y-77000000D01*
%TO.C,K31*%
X100561883Y-122109192D02*
X100388235Y-121124384D01*
X114175543Y-118693309D02*
X114349192Y-119678117D01*
X111918117Y-105890808D02*
X110933309Y-106064457D01*
X98304457Y-109306691D02*
X98130808Y-108321883D01*
X113364384Y-119851765D02*
X114349192Y-119678117D01*
X99115616Y-108148235D02*
X98130808Y-108321883D01*
X100561883Y-122109192D02*
X101546691Y-121935543D01*
X111918117Y-105890808D02*
X112091765Y-106875616D01*
%TD*%
%LPC*%
D12*
%TO.C,K25*%
X105240000Y-94000000D03*
D13*
X110740000Y-94000000D03*
D14*
X110240000Y-90250000D03*
D13*
X99740000Y-94000000D03*
D14*
X105240000Y-88050000D03*
D15*
X105240000Y-99900000D03*
X100240000Y-97800000D03*
%TD*%
D14*
%TO.C,K24*%
X128240000Y-88250000D03*
D12*
X123240000Y-92000000D03*
D14*
X123240000Y-86050000D03*
D13*
X117740000Y-92000000D03*
X128740000Y-92000000D03*
D15*
X123240000Y-97900000D03*
X118240000Y-95800000D03*
%TD*%
D12*
%TO.C,K21*%
X177240000Y-104000000D03*
D13*
X171740000Y-104000000D03*
D14*
X177240000Y-98050000D03*
D13*
X182740000Y-104000000D03*
D14*
X182240000Y-100250000D03*
D15*
X177240000Y-109900000D03*
X172240000Y-107800000D03*
%TD*%
D13*
%TO.C,K02*%
X164740000Y-58000000D03*
D12*
X159240000Y-58000000D03*
D13*
X153740000Y-58000000D03*
D14*
X159240000Y-52050000D03*
X164240000Y-54250000D03*
D15*
X159240000Y-63900000D03*
X154240000Y-61800000D03*
%TD*%
D13*
%TO.C,K10*%
X189740000Y-87000000D03*
D14*
X195240000Y-81050000D03*
D12*
X195240000Y-87000000D03*
D14*
X200240000Y-83250000D03*
D13*
X200740000Y-87000000D03*
D15*
X195240000Y-92900000D03*
X190240000Y-90800000D03*
%TD*%
D16*
%TO.C,U2*%
X76111800Y-55738000D03*
X80961800Y-55738000D03*
D17*
X81261800Y-52708000D03*
X75811800Y-52708000D03*
D18*
X68746800Y-52578000D03*
D19*
X69646800Y-52578000D03*
X69646800Y-55118000D03*
D18*
X68746800Y-55118000D03*
D20*
X69646800Y-57658000D03*
D18*
X68746800Y-57658000D03*
X68746800Y-60198000D03*
D19*
X69646800Y-60198000D03*
D18*
X68746800Y-62738000D03*
D19*
X69646800Y-62738000D03*
X69646800Y-65278000D03*
D18*
X68746800Y-65278000D03*
X68746800Y-67818000D03*
D19*
X69646800Y-67818000D03*
D18*
X68746800Y-70358000D03*
D20*
X69646800Y-70358000D03*
D18*
X68746800Y-72898000D03*
D19*
X69646800Y-72898000D03*
D18*
X68746800Y-75438000D03*
D19*
X69646800Y-75438000D03*
X69646800Y-77978000D03*
D18*
X68746800Y-77978000D03*
D19*
X69646800Y-80518000D03*
D18*
X68746800Y-80518000D03*
X68746800Y-83058000D03*
D20*
X69646800Y-83058000D03*
D19*
X69646800Y-85598000D03*
D18*
X68746800Y-85598000D03*
X68746800Y-88138000D03*
D19*
X69646800Y-88138000D03*
D18*
X68746800Y-90678000D03*
D19*
X69646800Y-90678000D03*
D18*
X68746800Y-93218000D03*
D19*
X69646800Y-93218000D03*
D20*
X69646800Y-95758000D03*
D18*
X68746800Y-95758000D03*
X68746800Y-98298000D03*
D19*
X69646800Y-98298000D03*
X69646800Y-100838000D03*
D18*
X68746800Y-100838000D03*
D19*
X87426800Y-100838000D03*
D18*
X88326800Y-100838000D03*
D19*
X87426800Y-98298000D03*
D18*
X88326800Y-98298000D03*
X88326800Y-95758000D03*
D20*
X87426800Y-95758000D03*
D19*
X87426800Y-93218000D03*
D18*
X88326800Y-93218000D03*
X88326800Y-90678000D03*
D19*
X87426800Y-90678000D03*
X87426800Y-88138000D03*
D18*
X88326800Y-88138000D03*
X88326800Y-85598000D03*
D19*
X87426800Y-85598000D03*
D18*
X88326800Y-83058000D03*
D20*
X87426800Y-83058000D03*
D19*
X87426800Y-80518000D03*
D18*
X88326800Y-80518000D03*
D19*
X87426800Y-77978000D03*
D18*
X88326800Y-77978000D03*
D19*
X87426800Y-75438000D03*
D18*
X88326800Y-75438000D03*
D19*
X87426800Y-72898000D03*
D18*
X88326800Y-72898000D03*
X88326800Y-70358000D03*
D20*
X87426800Y-70358000D03*
D19*
X87426800Y-67818000D03*
D18*
X88326800Y-67818000D03*
X88326800Y-65278000D03*
D19*
X87426800Y-65278000D03*
D18*
X88326800Y-62738000D03*
D19*
X87426800Y-62738000D03*
X87426800Y-60198000D03*
D18*
X88326800Y-60198000D03*
X88326800Y-57658000D03*
D20*
X87426800Y-57658000D03*
D19*
X87426800Y-55118000D03*
D18*
X88326800Y-55118000D03*
D19*
X87426800Y-52578000D03*
D18*
X88326800Y-52578000D03*
%TD*%
D14*
%TO.C,K04*%
X128240000Y-54250000D03*
D12*
X123240000Y-58000000D03*
D13*
X128740000Y-58000000D03*
X117740000Y-58000000D03*
D14*
X123240000Y-52050000D03*
D15*
X123240000Y-63900000D03*
X118240000Y-61800000D03*
%TD*%
D14*
%TO.C,K12*%
X164240000Y-71250000D03*
X159240000Y-69050000D03*
D13*
X164740000Y-75000000D03*
D12*
X159240000Y-75000000D03*
D13*
X153740000Y-75000000D03*
D15*
X159240000Y-80900000D03*
X154240000Y-78800000D03*
%TD*%
D14*
%TO.C,K30*%
X133547808Y-109700049D03*
D13*
X133719071Y-113479357D03*
D14*
X128758577Y-107072642D03*
D13*
X122760929Y-112520643D03*
D12*
X128240000Y-113000000D03*
D15*
X127725781Y-118877549D03*
X122927835Y-116349761D03*
%TD*%
D14*
%TO.C,K01*%
X177240000Y-64050000D03*
D13*
X182740000Y-70000000D03*
D14*
X182240000Y-66250000D03*
D13*
X171740000Y-70000000D03*
D12*
X177240000Y-70000000D03*
D15*
X177240000Y-75900000D03*
X172240000Y-73800000D03*
%TD*%
D14*
%TO.C,K14*%
X128240000Y-71250000D03*
D12*
X123240000Y-75000000D03*
D14*
X123240000Y-69050000D03*
D13*
X128740000Y-75000000D03*
X117740000Y-75000000D03*
D15*
X123240000Y-80900000D03*
X118240000Y-78800000D03*
%TD*%
D13*
%TO.C,K23*%
X135740000Y-87000000D03*
D12*
X141240000Y-87000000D03*
D14*
X141240000Y-81050000D03*
X146240000Y-83250000D03*
D13*
X146740000Y-87000000D03*
D15*
X141240000Y-92900000D03*
X136240000Y-90800000D03*
%TD*%
D14*
%TO.C,K03*%
X146240000Y-49250000D03*
D13*
X135740000Y-53000000D03*
X146740000Y-53000000D03*
D14*
X141240000Y-47050000D03*
D12*
X141240000Y-53000000D03*
D15*
X141240000Y-58900000D03*
X136240000Y-56800000D03*
%TD*%
D14*
%TO.C,K22*%
X164240000Y-88250000D03*
D13*
X164740000Y-92000000D03*
X153740000Y-92000000D03*
D12*
X159240000Y-92000000D03*
D14*
X159240000Y-86050000D03*
D15*
X159240000Y-97900000D03*
X154240000Y-95800000D03*
%TD*%
D21*
%TO.C,J1*%
X67990000Y-109000000D03*
X74990000Y-109000000D03*
D22*
X77690000Y-111300000D03*
X76590000Y-106700000D03*
X72590000Y-106700000D03*
X69590000Y-106700000D03*
%TD*%
D14*
%TO.C,K15*%
X105240000Y-71050000D03*
D12*
X105240000Y-77000000D03*
D13*
X110740000Y-77000000D03*
D14*
X110240000Y-73250000D03*
D13*
X99740000Y-77000000D03*
D15*
X105240000Y-82900000D03*
X100240000Y-80800000D03*
%TD*%
D14*
%TO.C,K32*%
X88186720Y-115488254D03*
D13*
X90224693Y-118675600D03*
D12*
X85240000Y-121000000D03*
D14*
X82725421Y-115607469D03*
D13*
X80255307Y-123324400D03*
D15*
X87733448Y-126347216D03*
X82314410Y-126557061D03*
%TD*%
D13*
%TO.C,K11*%
X182740000Y-87000000D03*
X171740000Y-87000000D03*
D14*
X177240000Y-81050000D03*
D12*
X177240000Y-87000000D03*
D14*
X182240000Y-83250000D03*
D15*
X177240000Y-92900000D03*
X172240000Y-90800000D03*
%TD*%
D12*
%TO.C,K05*%
X105240000Y-60000000D03*
D14*
X110240000Y-56250000D03*
X105240000Y-54050000D03*
D13*
X110740000Y-60000000D03*
X99740000Y-60000000D03*
D15*
X105240000Y-65900000D03*
X100240000Y-63800000D03*
%TD*%
D14*
%TO.C,K20*%
X195240000Y-98050000D03*
D12*
X195240000Y-104000000D03*
D13*
X189740000Y-104000000D03*
D14*
X200240000Y-100250000D03*
D13*
X200740000Y-104000000D03*
D15*
X195240000Y-109900000D03*
X190240000Y-107800000D03*
%TD*%
D12*
%TO.C,K13*%
X141240000Y-70000000D03*
D13*
X146740000Y-70000000D03*
D14*
X141240000Y-64050000D03*
D13*
X135740000Y-70000000D03*
D14*
X146240000Y-66250000D03*
D15*
X141240000Y-75900000D03*
X136240000Y-73800000D03*
%TD*%
D13*
%TO.C,K00*%
X200740000Y-70000000D03*
X189740000Y-70000000D03*
D14*
X195240000Y-64050000D03*
D12*
X195240000Y-70000000D03*
D14*
X200240000Y-66250000D03*
D15*
X195240000Y-75900000D03*
X190240000Y-73800000D03*
%TD*%
D12*
%TO.C,K31*%
X106240000Y-114000000D03*
D13*
X111656443Y-113044935D03*
X100823557Y-114955065D03*
D14*
X110512858Y-109438730D03*
X105206793Y-108140394D03*
D15*
X107264524Y-119810366D03*
X101975824Y-118610510D03*
%TD*%
D23*
%TO.C,H4*%
X166040000Y-107600000D03*
%TD*%
%TO.C,H2*%
X94740000Y-67000000D03*
%TD*%
%TO.C,H4*%
X186190000Y-95500000D03*
%TD*%
D24*
%TO.C,MB1*%
X187840000Y-78500000D03*
X187840000Y-77000000D03*
X187840000Y-80000000D03*
X187840000Y-77750000D03*
%TD*%
%TO.C,MB3*%
X187840000Y-106935200D03*
X187840000Y-109185200D03*
X187840000Y-107685200D03*
X187840000Y-109935200D03*
X187840000Y-106185200D03*
X187840000Y-110685200D03*
%TD*%
%TO.C,MB2*%
X187840000Y-94750000D03*
X187840000Y-97000000D03*
X187840000Y-94000000D03*
X187840000Y-95500000D03*
%TD*%
D23*
%TO.C,H4*%
X186240000Y-78500000D03*
%TD*%
%TO.C,H1*%
X149840000Y-61000000D03*
%TD*%
%TO.C,H3*%
X92440000Y-107600000D03*
%TD*%
%TO.C,H1*%
X168240000Y-78500000D03*
%TD*%
D24*
%TO.C,MB4*%
X187840000Y-67035200D03*
X187840000Y-64035200D03*
X187840000Y-64785200D03*
X187840000Y-66285200D03*
X187840000Y-67785200D03*
X187840000Y-63285200D03*
%TD*%
%LPD*%
M02*
