M48
; DRILL file {KiCad 7.0.5} date Di 11 Jul 2023 21:22:30 CEST
; FORMAT={-:-/ absolute / inch / decimal}
; #@! TF.CreationDate,2023-07-11T21:22:30+02:00
; #@! TF.GenerationSoftware,Kicad,Pcbnew,7.0.5
; #@! TF.FileFunction,Plated,1,2,PTH
FMAT,2
INCH
; #@! TA.AperFunction,Plated,PTH,ViaDrill
T1C0.0118
; #@! TA.AperFunction,Plated,PTH,ComponentDrill
T2C0.0354
; #@! TA.AperFunction,Plated,PTH,ComponentDrill
T3C0.0402
; #@! TA.AperFunction,Plated,PTH,ComponentDrill
T4C0.0500
%
G90
G05
T1
X3.0945Y-3.6378
X3.1605Y-3.5276
X3.1822Y-3.4803
X3.2038Y-3.4331
X3.2254Y-3.3622
X3.2471Y-3.2598
X3.2648Y-3.1496
X5.0551Y-3.9951
X5.3622Y-3.3071
X7.3307Y-2.9606
X7.3307Y-3.6457
T3
X2.742Y-2.07
X2.742Y-2.17
X2.742Y-2.27
X2.742Y-2.37
X2.742Y-2.47
X2.742Y-2.57
X2.742Y-2.67
X2.742Y-2.77
X2.742Y-2.87
X2.742Y-2.97
X2.742Y-3.07
X2.742Y-3.17
X2.742Y-3.27
X2.742Y-3.37
X2.742Y-3.47
X2.742Y-3.57
X2.742Y-3.67
X2.742Y-3.77
X2.742Y-3.87
X2.742Y-3.97
X3.442Y-2.07
X3.442Y-2.17
X3.442Y-2.27
X3.442Y-2.37
X3.442Y-2.47
X3.442Y-2.57
X3.442Y-2.67
X3.442Y-2.77
X3.442Y-2.87
X3.442Y-2.97
X3.442Y-3.07
X3.442Y-3.17
X3.442Y-3.27
X3.442Y-3.37
X3.442Y-3.47
X3.442Y-3.57
X3.442Y-3.67
X3.442Y-3.77
X3.442Y-3.87
X3.442Y-3.97
T4
X3.2407Y-4.9826
X3.4541Y-4.9743
X3.9465Y-2.5118
X3.9465Y-3.1811
X3.9465Y-3.8504
X4.0148Y-4.6697
X4.1433Y-2.5945
X4.1433Y-3.2638
X4.1433Y-3.9331
X4.223Y-4.7169
X4.6551Y-2.4331
X4.6551Y-3.1024
X4.6551Y-3.7717
X4.8397Y-4.5807
X4.852Y-2.5157
X4.852Y-3.185
X4.852Y-3.8543
X5.0286Y-4.6802
X5.3638Y-2.2362
X5.3638Y-2.9055
X5.3638Y-3.5748
X5.5606Y-2.3189
X5.5606Y-2.9882
X5.5606Y-3.6575
X6.0724Y-2.4331
X6.0724Y-3.1024
X6.0724Y-3.7717
X6.2693Y-2.5157
X6.2693Y-3.185
X6.2693Y-3.8543
X6.7811Y-2.9055
X6.7811Y-3.5748
X6.7811Y-4.2441
X6.978Y-2.9882
X6.978Y-3.6575
X6.978Y-4.3268
X7.4898Y-2.9055
X7.4898Y-3.5748
X7.4898Y-4.2441
X7.6866Y-2.9882
X7.6866Y-3.6575
X7.6866Y-4.3268
T2
G00X2.7319Y-4.2008
M15
G01X2.7476Y-4.2008
M16
G05
G00X2.85Y-4.2008
M15
G01X2.8657Y-4.2008
M16
G05
G00X3.0075Y-4.2008
M15
G01X3.0232Y-4.2008
M16
G05
G00X3.0508Y-4.3819
M15
G01X3.0665Y-4.3819
M16
G05
T0
M30
