M48
; DRILL file {KiCad 7.0.5} date Di 11 Jul 2023 21:22:30 CEST
; FORMAT={-:-/ absolute / inch / decimal}
; #@! TF.CreationDate,2023-07-11T21:22:30+02:00
; #@! TF.GenerationSoftware,Kicad,Pcbnew,7.0.5
; #@! TF.FileFunction,NonPlated,1,2,NPTH
FMAT,2
INCH
; #@! TA.AperFunction,NonPlated,NPTH,ComponentDrill
T1C0.0197
; #@! TA.AperFunction,NonPlated,NPTH,ComponentDrill
T2C0.0315
; #@! TA.AperFunction,NonPlated,NPTH,ComponentDrill
T3C0.0591
; #@! TA.AperFunction,NonPlated,NPTH,ComponentDrill
T4C0.0670
; #@! TA.AperFunction,NonPlated,NPTH,ComponentDrill
T5C0.0709
; #@! TA.AperFunction,NonPlated,NPTH,ComponentDrill
T6C0.0866
; #@! TA.AperFunction,NonPlated,NPTH,ComponentDrill
T7C0.1181
; #@! TA.AperFunction,NonPlated,NPTH,ComponentDrill
T8C0.1350
%
G90
G05
T1
X7.3953Y-2.4915
X7.3953Y-2.5211
X7.3953Y-2.5506
X7.3953Y-2.6097
X7.3953Y-2.6392
X7.3953Y-2.6687
X7.3953Y-3.0315
X7.3953Y-3.061
X7.3953Y-3.0906
X7.3953Y-3.1496
X7.3953Y-3.7008
X7.3953Y-3.7303
X7.3953Y-3.7598
X7.3953Y-3.8189
X7.3953Y-4.1805
X7.3953Y-4.21
X7.3953Y-4.2396
X7.3953Y-4.2986
X7.3953Y-4.3282
X7.3953Y-4.3577
T2
X2.6768Y-4.2913
X2.9524Y-4.2913
T3
X2.9965Y-2.1944
X3.1875Y-2.1944
T4
X3.1597Y-4.8553
X3.5522Y-4.6723
X3.9268Y-2.3622
X3.9268Y-3.0315
X3.9268Y-3.7008
X3.9694Y-4.5258
X4.3598Y-2.3622
X4.3598Y-3.0315
X4.3598Y-3.7008
X4.3959Y-4.4506
X4.6354Y-2.2835
X4.6354Y-2.9528
X4.6354Y-3.622
X4.8331Y-4.4299
X5.0685Y-2.2835
X5.0685Y-2.9528
X5.0685Y-3.622
X5.2645Y-4.4677
X5.3441Y-2.0866
X5.3441Y-2.7559
X5.3441Y-3.4252
X5.7772Y-2.0866
X5.7772Y-2.7559
X5.7772Y-3.4252
X6.0528Y-2.2835
X6.0528Y-2.9528
X6.0528Y-3.622
X6.4858Y-2.2835
X6.4858Y-2.9528
X6.4858Y-3.622
X6.7614Y-2.7559
X6.7614Y-3.4252
X6.7614Y-4.0945
X7.1945Y-2.7559
X7.1945Y-3.4252
X7.1945Y-4.0945
X7.4701Y-2.7559
X7.4701Y-3.4252
X7.4701Y-4.0945
X7.9031Y-2.7559
X7.9031Y-3.4252
X7.9031Y-4.0945
T5
X2.9847Y-2.0751
X3.1993Y-2.0751
T6
X3.6394Y-4.2362
X3.7299Y-2.6378
X5.8992Y-2.4016
X6.537Y-4.2362
X6.6236Y-3.0906
X7.3303Y-3.7598
X7.3323Y-3.0906
T7
X3.2569Y-4.5515
X3.4719Y-4.5468
X4.142Y-4.2575
X4.1433Y-2.128
X4.1433Y-2.7972
X4.1433Y-3.4665
X4.3402Y-2.2146
X4.3402Y-2.8839
X4.3402Y-3.5531
X4.3509Y-4.3086
X4.852Y-2.0492
X4.852Y-2.7185
X4.852Y-3.3878
X5.0488Y-2.1358
X5.0488Y-2.8051
X5.0488Y-3.4744
X5.0692Y-4.2155
X5.2578Y-4.3189
X5.5606Y-1.8524
X5.5606Y-2.5217
X5.5606Y-3.1909
X5.7575Y-1.939
X5.7575Y-2.6083
X5.7575Y-3.2776
X6.2693Y-2.0492
X6.2693Y-2.7185
X6.2693Y-3.3878
X6.4661Y-2.1358
X6.4661Y-2.8051
X6.4661Y-3.4744
X6.978Y-2.5217
X6.978Y-3.1909
X6.978Y-3.8602
X7.1748Y-2.6083
X7.1748Y-3.2776
X7.1748Y-3.9469
X7.6866Y-2.5217
X7.6866Y-3.1909
X7.6866Y-3.8602
X7.8835Y-2.6083
X7.8835Y-3.2776
X7.8835Y-3.9469
T8
X3.3559Y-4.7638
X4.1433Y-2.3622
X4.1433Y-3.0315
X4.1433Y-3.7008
X4.1827Y-4.4882
X4.852Y-2.2835
X4.852Y-2.9528
X4.852Y-3.622
X5.0488Y-4.4488
X5.5606Y-2.0866
X5.5606Y-2.7559
X5.5606Y-3.4252
X6.2693Y-2.2835
X6.2693Y-2.9528
X6.2693Y-3.622
X6.978Y-2.7559
X6.978Y-3.4252
X6.978Y-4.0945
X7.6866Y-2.7559
X7.6866Y-3.4252
X7.6866Y-4.0945
T0
M30
