%TF.GenerationSoftware,KiCad,Pcbnew,7.0.5*%
%TF.CreationDate,2023-07-11T21:22:30+02:00*%
%TF.ProjectId,keyboard_pcb,6b657962-6f61-4726-945f-7063622e6b69,rev1.0*%
%TF.SameCoordinates,Original*%
%TF.FileFunction,Profile,NP*%
%FSLAX46Y46*%
G04 Gerber Fmt 4.6, Leading zero omitted, Abs format (unit mm)*
G04 Created by KiCad (PCBNEW 7.0.5) date 2023-07-11 21:22:30*
%MOMM*%
%LPD*%
G01*
G04 APERTURE LIST*
%TA.AperFunction,Profile*%
%ADD10C,0.100000*%
%TD*%
G04 APERTURE END LIST*
D10*
X187640000Y-105300000D02*
X187640000Y-97900000D01*
X68240000Y-50400000D02*
G75*
G03*
X66440000Y-52200000I0J-1800000D01*
G01*
X185640000Y-60400000D02*
X171240000Y-60400000D01*
X169240000Y-50400000D02*
G75*
G03*
X167240000Y-48400000I-2000000J0D01*
G01*
X162740000Y-113600000D02*
X185640000Y-113600000D01*
X66805956Y-115487896D02*
X79290001Y-132449999D01*
X134739998Y-123175025D02*
G75*
G03*
X141490000Y-121125000I764602J9620125D01*
G01*
X151240000Y-45400000D02*
G75*
G03*
X149240000Y-43400000I-2000000J0D01*
G01*
X190440000Y-60400000D02*
G75*
G03*
X188440000Y-62400000I0J-2000000D01*
G01*
X111489998Y-50399998D02*
X68240000Y-50400000D01*
X151240000Y-46400000D02*
X151240000Y-45400000D01*
X187640000Y-62400000D02*
G75*
G03*
X188440000Y-62400000I400000J0D01*
G01*
X131240000Y-45400000D02*
X131240000Y-46400000D01*
X187640000Y-76100000D02*
X187640000Y-68700000D01*
X187640000Y-93100000D02*
G75*
G03*
X188440000Y-93100000I400000J0D01*
G01*
X188440000Y-111600000D02*
G75*
G03*
X187640000Y-111600000I-400000J0D01*
G01*
X187640000Y-76100000D02*
G75*
G03*
X188440000Y-76100000I400000J0D01*
G01*
X188440000Y-111600000D02*
G75*
G03*
X190440000Y-113600000I2000000J0D01*
G01*
X188440000Y-105300000D02*
X188440000Y-97900000D01*
X66440001Y-114400000D02*
G75*
G03*
X66805957Y-115487895I1799999J0D01*
G01*
X169240000Y-58400000D02*
X169240000Y-50400000D01*
X188440000Y-68700000D02*
G75*
G03*
X187640000Y-68700000I-400000J0D01*
G01*
X203240000Y-60400000D02*
X190440000Y-60400000D01*
X190440000Y-113600000D02*
X203240000Y-113600000D01*
X133240000Y-43400000D02*
G75*
G03*
X131240000Y-45400000I0J-2000000D01*
G01*
X151240000Y-46400000D02*
G75*
G03*
X153240000Y-48400000I2000000J0D01*
G01*
X203240000Y-113600000D02*
G75*
G03*
X205240000Y-111600000I0J2000000D01*
G01*
X66440000Y-113200000D02*
X66440000Y-114400000D01*
X134740000Y-123175000D02*
X127440000Y-122600001D01*
X81726132Y-133121447D02*
X89110601Y-129800000D01*
X185640000Y-113600000D02*
G75*
G03*
X187640000Y-111600000I0J2000000D01*
G01*
X129240000Y-48400000D02*
G75*
G03*
X131240000Y-46400000I0J2000000D01*
G01*
X188440000Y-76100000D02*
X188440000Y-68700000D01*
X111489998Y-50399987D02*
G75*
G03*
X113239999Y-49400000I102J2031087D01*
G01*
X205240000Y-111600000D02*
X205240000Y-62400000D01*
X188440000Y-97900000D02*
G75*
G03*
X187640000Y-97900000I-400000J0D01*
G01*
X188440000Y-93100000D02*
X188440000Y-80900000D01*
X188440000Y-80900000D02*
G75*
G03*
X187640000Y-80900000I-400000J0D01*
G01*
X149240000Y-43400000D02*
X133240000Y-43400000D01*
X205240000Y-62400000D02*
G75*
G03*
X203240000Y-60400000I-2000000J0D01*
G01*
X162740000Y-113599999D02*
G75*
G03*
X141490000Y-121125000I272760J-34536901D01*
G01*
X167240000Y-48400000D02*
X153240000Y-48400000D01*
X114940000Y-48400000D02*
G75*
G03*
X113240000Y-49400000I0J-1945000D01*
G01*
X187640000Y-93100000D02*
X187640000Y-80900000D01*
X66440000Y-52200000D02*
X66440000Y-113200000D01*
X187640000Y-105300000D02*
G75*
G03*
X188440000Y-105300000I400000J0D01*
G01*
X169240000Y-58400000D02*
G75*
G03*
X171240000Y-60400000I2000000J0D01*
G01*
X187640000Y-62400000D02*
G75*
G03*
X185640000Y-60400000I-2000000J0D01*
G01*
X79290001Y-132449999D02*
G75*
G03*
X81726132Y-133121447I1599999J1049999D01*
G01*
X129240000Y-48400000D02*
X114940000Y-48400000D01*
X127440000Y-122600002D02*
G75*
G03*
X89110601Y-129800001I-6323930J-71958198D01*
G01*
M02*
