  0
SECTION
  2
HEADER
  9
$ANGBASE
  50
0.0
  9
$ANGDIR
  70
1
  9
$MEASUREMENT
  70
1
  0
ENDSEC
  0
SECTION
  2
TABLES
  0
TABLE
  2
LTYPE
  70
4
  0
LTYPE
  5
40F
  2
CONTINUOUS
  70
0
  3
Solid line
  72
65
  73
0
  40
0.0
  0
LTYPE
  5
410
  2
DASHDOT
 70
0
  3
Dash Dot ____ _ ____ _
 72
65
 73
4
 40
2.0
 49
1.25
 49
-0.25
 49
0.25
 49
-0.25
  0
LTYPE
  5
411
  2
DASHED
 70
0
  3
Dashed __ __ __ __ __
 72
65
 73
2
 40
0.75
 49
0.5
 49
-0.25
  0
LTYPE
  5
43B
  2
DOTTED
 70
0
  3
Dotted .  .  .  .
 72
65
 73
2
 40
0.2
 49
0.0
 49
-0.2
  0
ENDTAB
  0
TABLE
  2
STYLE
  70
4
  0
STYLE
  2
KICAD
  70
0
  40
0
  41
1
  42
1
  50
0
  71
0
  3
isocp.shx
  0
STYLE
  2
KICADB
  70
0
  40
0
  41
1
  42
1
  50
0
  71
0
  3
isocp.shx
  0
STYLE
  2
KICADI
  70
0
  40
0
  41
1
  42
1
  50
15
  71
0
  3
isocp.shx
  0
STYLE
  2
KICADBI
  70
0
  40
0
  41
1
  42
1
  50
15
  71
0
  3
isocp.shx
  0
ENDTAB
  0
TABLE
  2
LAYER
  70
1
  0
LAYER
  2
BLACK
  70
0
  62
7
  6
CONTINUOUS
  0
ENDTAB
  0
ENDSEC
  0
SECTION
  2
ENTITIES
0
LINE
8
BLACK
6
CONTINUOUS
10
155.917
20
-48.4055
11
156.142
21
-48.474
0
LINE
8
BLACK
6
CONTINUOUS
10
156.142
20
-48.474
11
156.358
21
-48.5687
0
LINE
8
BLACK
6
CONTINUOUS
10
156.358
20
-48.5687
11
156.561
21
-48.6882
0
LINE
8
BLACK
6
CONTINUOUS
10
156.561
20
-48.6882
11
156.749
21
-48.8307
0
LINE
8
BLACK
6
CONTINUOUS
10
156.749
20
-48.8307
11
156.918
21
-48.9944
0
LINE
8
BLACK
6
CONTINUOUS
10
156.918
20
-48.9944
11
157.067
21
-49.1769
0
LINE
8
BLACK
6
CONTINUOUS
10
157.067
20
-49.1769
11
157.193
21
-49.3745
0
LINE
8
BLACK
6
CONTINUOUS
10
157.193
20
-49.3745
11
157.193
21
-49.3746
0
LINE
8
BLACK
6
CONTINUOUS
10
157.193
20
-49.3746
11
157.193
21
-49.3748
0
LINE
8
BLACK
6
CONTINUOUS
10
157.193
20
-49.3748
11
157.194
21
-49.3757
0
LINE
8
BLACK
6
CONTINUOUS
10
157.194
20
-49.3757
11
157.194
21
-49.3757
0
LINE
8
BLACK
6
CONTINUOUS
10
157.194
20
-49.3757
11
157.195
21
-49.3847
0
LINE
8
BLACK
6
CONTINUOUS
10
157.195
20
-49.3847
11
157.334
21
-49.5897
0
LINE
8
BLACK
6
CONTINUOUS
10
157.334
20
-49.5897
11
157.505
21
-49.7821
0
LINE
8
BLACK
6
CONTINUOUS
10
157.505
20
-49.7821
11
157.7
21
-49.9507
0
LINE
8
BLACK
6
CONTINUOUS
10
157.7
20
-49.9507
11
157.915
21
-50.0927
0
LINE
8
BLACK
6
CONTINUOUS
10
157.915
20
-50.0927
11
158.146
21
-50.2056
0
LINE
8
BLACK
6
CONTINUOUS
10
158.146
20
-50.2056
11
158.39
21
-50.2877
0
LINE
8
BLACK
6
CONTINUOUS
10
158.39
20
-50.2877
11
158.643
21
-50.3376
0
LINE
8
BLACK
6
CONTINUOUS
10
158.643
20
-50.3376
11
158.891
21
-50.3537
0
LINE
8
BLACK
6
CONTINUOUS
10
158.891
20
-50.3537
11
158.9
21
-50.35
0
LINE
8
BLACK
6
CONTINUOUS
10
158.9
20
-50.35
11
201
21
-50.35
0
LINE
8
BLACK
6
CONTINUOUS
10
201
20
-50.35
11
201.241
21
-50.3658
0
LINE
8
BLACK
6
CONTINUOUS
10
201.241
20
-50.3658
11
201.479
21
-50.413
0
LINE
8
BLACK
6
CONTINUOUS
10
201.479
20
-50.413
11
201.708
21
-50.4908
0
LINE
8
BLACK
6
CONTINUOUS
10
201.708
20
-50.4908
11
201.925
21
-50.5979
0
LINE
8
BLACK
6
CONTINUOUS
10
201.925
20
-50.5979
11
202.126
21
-50.7323
0
LINE
8
BLACK
6
CONTINUOUS
10
202.126
20
-50.7323
11
202.308
21
-50.8919
0
LINE
8
BLACK
6
CONTINUOUS
10
202.308
20
-50.8919
11
202.468
21
-51.0738
0
LINE
8
BLACK
6
CONTINUOUS
10
202.468
20
-51.0738
11
202.602
21
-51.275
0
LINE
8
BLACK
6
CONTINUOUS
10
202.602
20
-51.275
11
202.709
21
-51.492
0
LINE
8
BLACK
6
CONTINUOUS
10
202.709
20
-51.492
11
202.787
21
-51.7212
0
LINE
8
BLACK
6
CONTINUOUS
10
202.787
20
-51.7212
11
202.834
21
-51.9585
0
LINE
8
BLACK
6
CONTINUOUS
10
202.834
20
-51.9585
11
202.85
21
-52.2
0
LINE
8
BLACK
6
CONTINUOUS
10
202.85
20
-52.2
11
202.85
21
-114.4
0
LINE
8
BLACK
6
CONTINUOUS
10
202.85
20
-114.4
11
202.834
21
-114.639
0
LINE
8
BLACK
6
CONTINUOUS
10
202.834
20
-114.639
11
202.788
21
-114.875
0
LINE
8
BLACK
6
CONTINUOUS
10
202.788
20
-114.875
11
202.712
21
-115.102
0
LINE
8
BLACK
6
CONTINUOUS
10
202.712
20
-115.102
11
202.606
21
-115.318
0
LINE
8
BLACK
6
CONTINUOUS
10
202.606
20
-115.318
11
202.474
21
-115.517
0
LINE
8
BLACK
6
CONTINUOUS
10
202.474
20
-115.517
11
202.474
21
-115.518
0
LINE
8
BLACK
6
CONTINUOUS
10
202.474
20
-115.518
11
189.99
21
-132.48
0
LINE
8
BLACK
6
CONTINUOUS
10
189.99
20
-132.48
11
189.99
21
-132.48
0
LINE
8
BLACK
6
CONTINUOUS
10
189.99
20
-132.48
11
189.837
21
-132.683
0
LINE
8
BLACK
6
CONTINUOUS
10
189.837
20
-132.683
11
189.656
21
-132.866
0
LINE
8
BLACK
6
CONTINUOUS
10
189.656
20
-132.866
11
189.453
21
-133.024
0
LINE
8
BLACK
6
CONTINUOUS
10
189.453
20
-133.024
11
189.232
21
-133.155
0
LINE
8
BLACK
6
CONTINUOUS
10
189.232
20
-133.155
11
188.995
21
-133.255
0
LINE
8
BLACK
6
CONTINUOUS
10
188.995
20
-133.255
11
188.747
21
-133.323
0
LINE
8
BLACK
6
CONTINUOUS
10
188.747
20
-133.323
11
188.492
21
-133.359
0
LINE
8
BLACK
6
CONTINUOUS
10
188.492
20
-133.359
11
188.235
21
-133.36
0
LINE
8
BLACK
6
CONTINUOUS
10
188.235
20
-133.36
11
187.979
21
-133.328
0
LINE
8
BLACK
6
CONTINUOUS
10
187.979
20
-133.328
11
187.73
21
-133.263
0
LINE
8
BLACK
6
CONTINUOUS
10
187.73
20
-133.263
11
187.494
21
-133.167
0
LINE
8
BLACK
6
CONTINUOUS
10
187.494
20
-133.167
11
187.493
21
-133.167
0
LINE
8
BLACK
6
CONTINUOUS
10
187.493
20
-133.167
11
180.109
21
-129.846
0
LINE
8
BLACK
6
CONTINUOUS
10
180.109
20
-129.846
11
180.108
21
-129.845
0
LINE
8
BLACK
6
CONTINUOUS
10
180.108
20
-129.845
11
180.107
21
-129.845
0
LINE
8
BLACK
6
CONTINUOUS
10
180.107
20
-129.845
11
180.099
21
-129.836
0
LINE
8
BLACK
6
CONTINUOUS
10
180.099
20
-129.836
11
178.627
21
-129.129
0
LINE
8
BLACK
6
CONTINUOUS
10
178.627
20
-129.129
11
177.129
21
-128.451
0
LINE
8
BLACK
6
CONTINUOUS
10
177.129
20
-128.451
11
175.616
21
-127.808
0
LINE
8
BLACK
6
CONTINUOUS
10
175.616
20
-127.808
11
174.088
21
-127.199
0
LINE
8
BLACK
6
CONTINUOUS
10
174.088
20
-127.199
11
172.547
21
-126.625
0
LINE
8
BLACK
6
CONTINUOUS
10
172.547
20
-126.625
11
170.994
21
-126.086
0
LINE
8
BLACK
6
CONTINUOUS
10
170.994
20
-126.086
11
169.428
21
-125.583
0
LINE
8
BLACK
6
CONTINUOUS
10
169.428
20
-125.583
11
167.852
21
-125.116
0
LINE
8
BLACK
6
CONTINUOUS
10
167.852
20
-125.116
11
166.265
21
-124.684
0
LINE
8
BLACK
6
CONTINUOUS
10
166.265
20
-124.684
11
164.669
21
-124.289
0
LINE
8
BLACK
6
CONTINUOUS
10
164.669
20
-124.289
11
163.064
21
-123.931
0
LINE
8
BLACK
6
CONTINUOUS
10
163.064
20
-123.931
11
161.451
21
-123.609
0
LINE
8
BLACK
6
CONTINUOUS
10
161.451
20
-123.609
11
159.832
21
-123.324
0
LINE
8
BLACK
6
CONTINUOUS
10
159.832
20
-123.324
11
158.207
21
-123.076
0
LINE
8
BLACK
6
CONTINUOUS
10
158.207
20
-123.076
11
156.576
21
-122.864
0
LINE
8
BLACK
6
CONTINUOUS
10
156.576
20
-122.864
11
154.941
21
-122.691
0
LINE
8
BLACK
6
CONTINUOUS
10
154.941
20
-122.691
11
153.302
21
-122.554
0
LINE
8
BLACK
6
CONTINUOUS
10
153.302
20
-122.554
11
151.661
21
-122.455
0
LINE
8
BLACK
6
CONTINUOUS
10
151.661
20
-122.455
11
150.018
21
-122.393
0
LINE
8
BLACK
6
CONTINUOUS
10
150.018
20
-122.393
11
148.373
21
-122.368
0
LINE
8
BLACK
6
CONTINUOUS
10
148.373
20
-122.368
11
146.729
21
-122.381
0
LINE
8
BLACK
6
CONTINUOUS
10
146.729
20
-122.381
11
145.086
21
-122.432
0
LINE
8
BLACK
6
CONTINUOUS
10
145.086
20
-122.432
11
143.444
21
-122.52
0
LINE
8
BLACK
6
CONTINUOUS
10
143.444
20
-122.52
11
141.815
21
-122.644
0
LINE
8
BLACK
6
CONTINUOUS
10
141.815
20
-122.644
11
141.804
21
-122.65
0
LINE
8
BLACK
6
CONTINUOUS
10
141.804
20
-122.65
11
141.804
21
-122.65
0
LINE
8
BLACK
6
CONTINUOUS
10
141.804
20
-122.65
11
141.804
21
-122.65
0
LINE
8
BLACK
6
CONTINUOUS
10
141.804
20
-122.65
11
134.504
21
-123.225
0
LINE
8
BLACK
6
CONTINUOUS
10
134.504
20
-123.225
11
134.504
21
-123.225
0
LINE
8
BLACK
6
CONTINUOUS
10
134.504
20
-123.225
11
133.946
21
-123.253
0
LINE
8
BLACK
6
CONTINUOUS
10
133.946
20
-123.253
11
133.388
21
-123.249
0
LINE
8
BLACK
6
CONTINUOUS
10
133.388
20
-123.249
11
132.831
21
-123.213
0
LINE
8
BLACK
6
CONTINUOUS
10
132.831
20
-123.213
11
132.277
21
-123.145
0
LINE
8
BLACK
6
CONTINUOUS
10
132.277
20
-123.145
11
131.727
21
-123.045
0
LINE
8
BLACK
6
CONTINUOUS
10
131.727
20
-123.045
11
131.185
21
-122.914
0
LINE
8
BLACK
6
CONTINUOUS
10
131.185
20
-122.914
11
130.65
21
-122.752
0
LINE
8
BLACK
6
CONTINUOUS
10
130.65
20
-122.752
11
130.126
21
-122.559
0
LINE
8
BLACK
6
CONTINUOUS
10
130.126
20
-122.559
11
129.614
21
-122.337
0
LINE
8
BLACK
6
CONTINUOUS
10
129.614
20
-122.337
11
129.116
21
-122.085
0
LINE
8
BLACK
6
CONTINUOUS
10
129.116
20
-122.085
11
128.633
21
-121.805
0
LINE
8
BLACK
6
CONTINUOUS
10
128.633
20
-121.805
11
128.167
21
-121.498
0
LINE
8
BLACK
6
CONTINUOUS
10
128.167
20
-121.498
11
127.719
21
-121.164
0
LINE
8
BLACK
6
CONTINUOUS
10
127.719
20
-121.164
11
127.719
21
-121.164
0
LINE
8
BLACK
6
CONTINUOUS
10
127.719
20
-121.164
11
127.719
21
-121.164
0
LINE
8
BLACK
6
CONTINUOUS
10
127.719
20
-121.164
11
127.719
21
-121.164
0
LINE
8
BLACK
6
CONTINUOUS
10
127.719
20
-121.164
11
127.714
21
-121.155
0
LINE
8
BLACK
6
CONTINUOUS
10
127.714
20
-121.155
11
126.857
21
-120.494
0
LINE
8
BLACK
6
CONTINUOUS
10
126.857
20
-120.494
11
125.971
21
-119.855
0
LINE
8
BLACK
6
CONTINUOUS
10
125.971
20
-119.855
11
125.066
21
-119.244
0
LINE
8
BLACK
6
CONTINUOUS
10
125.066
20
-119.244
11
124.142
21
-118.662
0
LINE
8
BLACK
6
CONTINUOUS
10
124.142
20
-118.662
11
123.2
21
-118.11
0
LINE
8
BLACK
6
CONTINUOUS
10
123.2
20
-118.11
11
122.241
21
-117.587
0
LINE
8
BLACK
6
CONTINUOUS
10
122.241
20
-117.587
11
121.266
21
-117.096
0
LINE
8
BLACK
6
CONTINUOUS
10
121.266
20
-117.096
11
120.276
21
-116.635
0
LINE
8
BLACK
6
CONTINUOUS
10
120.276
20
-116.635
11
119.272
21
-116.206
0
LINE
8
BLACK
6
CONTINUOUS
10
119.272
20
-116.206
11
118.254
21
-115.809
0
LINE
8
BLACK
6
CONTINUOUS
10
118.254
20
-115.809
11
117.225
21
-115.445
0
LINE
8
BLACK
6
CONTINUOUS
10
117.225
20
-115.445
11
116.184
21
-115.113
0
LINE
8
BLACK
6
CONTINUOUS
10
116.184
20
-115.113
11
115.134
21
-114.814
0
LINE
8
BLACK
6
CONTINUOUS
10
115.134
20
-114.814
11
114.075
21
-114.549
0
LINE
8
BLACK
6
CONTINUOUS
10
114.075
20
-114.549
11
113.008
21
-114.318
0
LINE
8
BLACK
6
CONTINUOUS
10
113.008
20
-114.318
11
111.934
21
-114.12
0
LINE
8
BLACK
6
CONTINUOUS
10
111.934
20
-114.12
11
110.854
21
-113.956
0
LINE
8
BLACK
6
CONTINUOUS
10
110.854
20
-113.956
11
109.77
21
-113.827
0
LINE
8
BLACK
6
CONTINUOUS
10
109.77
20
-113.827
11
108.682
21
-113.732
0
LINE
8
BLACK
6
CONTINUOUS
10
108.682
20
-113.732
11
107.591
21
-113.672
0
LINE
8
BLACK
6
CONTINUOUS
10
107.591
20
-113.672
11
106.51
21
-113.646
0
LINE
8
BLACK
6
CONTINUOUS
10
106.51
20
-113.646
11
106.5
21
-113.65
0
LINE
8
BLACK
6
CONTINUOUS
10
106.5
20
-113.65
11
85.1
21
-113.65
0
LINE
8
BLACK
6
CONTINUOUS
10
85.1
20
-113.65
11
84.8324
21
-113.632
0
LINE
8
BLACK
6
CONTINUOUS
10
84.8324
20
-113.632
11
84.5694
21
-113.58
0
LINE
8
BLACK
6
CONTINUOUS
10
84.5694
20
-113.58
11
84.3155
21
-113.494
0
LINE
8
BLACK
6
CONTINUOUS
10
84.3155
20
-113.494
11
84.075
21
-113.375
0
LINE
8
BLACK
6
CONTINUOUS
10
84.075
20
-113.375
11
83.852
21
-113.226
0
LINE
8
BLACK
6
CONTINUOUS
10
83.852
20
-113.226
11
83.6504
21
-113.05
0
LINE
8
BLACK
6
CONTINUOUS
10
83.6504
20
-113.05
11
83.4736
21
-112.848
0
LINE
8
BLACK
6
CONTINUOUS
10
83.4736
20
-112.848
11
83.3246
21
-112.625
0
LINE
8
BLACK
6
CONTINUOUS
10
83.3246
20
-112.625
11
83.206
21
-112.385
0
LINE
8
BLACK
6
CONTINUOUS
10
83.206
20
-112.385
11
83.1199
21
-112.131
0
LINE
8
BLACK
6
CONTINUOUS
10
83.1199
20
-112.131
11
83.0675
21
-111.868
0
LINE
8
BLACK
6
CONTINUOUS
10
83.0675
20
-111.868
11
83.05
21
-111.6
0
LINE
8
BLACK
6
CONTINUOUS
10
83.05
20
-111.6
11
83.0532
21
-111.592
0
LINE
8
BLACK
6
CONTINUOUS
10
83.0532
20
-111.592
11
83.037
21
-111.49
0
LINE
8
BLACK
6
CONTINUOUS
10
83.037
20
-111.49
11
82.9867
21
-111.392
0
LINE
8
BLACK
6
CONTINUOUS
10
82.9867
20
-111.392
11
82.9083
21
-111.313
0
LINE
8
BLACK
6
CONTINUOUS
10
82.9083
20
-111.313
11
82.8095
21
-111.263
0
LINE
8
BLACK
6
CONTINUOUS
10
82.8095
20
-111.263
11
82.7
21
-111.246
0
LINE
8
BLACK
6
CONTINUOUS
10
82.7
20
-111.246
11
82.5905
21
-111.263
0
LINE
8
BLACK
6
CONTINUOUS
10
82.5905
20
-111.263
11
82.4917
21
-111.313
0
LINE
8
BLACK
6
CONTINUOUS
10
82.4917
20
-111.313
11
82.4133
21
-111.392
0
LINE
8
BLACK
6
CONTINUOUS
10
82.4133
20
-111.392
11
82.363
21
-111.49
0
LINE
8
BLACK
6
CONTINUOUS
10
82.363
20
-111.49
11
82.3468
21
-111.592
0
LINE
8
BLACK
6
CONTINUOUS
10
82.3468
20
-111.592
11
82.35
21
-111.6
0
LINE
8
BLACK
6
CONTINUOUS
10
82.35
20
-111.6
11
82.3325
21
-111.868
0
LINE
8
BLACK
6
CONTINUOUS
10
82.3325
20
-111.868
11
82.2801
21
-112.131
0
LINE
8
BLACK
6
CONTINUOUS
10
82.2801
20
-112.131
11
82.194
21
-112.385
0
LINE
8
BLACK
6
CONTINUOUS
10
82.194
20
-112.385
11
82.0754
21
-112.625
0
LINE
8
BLACK
6
CONTINUOUS
10
82.0754
20
-112.625
11
81.9264
21
-112.848
0
LINE
8
BLACK
6
CONTINUOUS
10
81.9264
20
-112.848
11
81.7496
21
-113.05
0
LINE
8
BLACK
6
CONTINUOUS
10
81.7496
20
-113.05
11
81.548
21
-113.226
0
LINE
8
BLACK
6
CONTINUOUS
10
81.548
20
-113.226
11
81.325
21
-113.375
0
LINE
8
BLACK
6
CONTINUOUS
10
81.325
20
-113.375
11
81.0845
21
-113.494
0
LINE
8
BLACK
6
CONTINUOUS
10
81.0845
20
-113.494
11
80.8306
21
-113.58
0
LINE
8
BLACK
6
CONTINUOUS
10
80.8306
20
-113.58
11
80.5676
21
-113.632
0
LINE
8
BLACK
6
CONTINUOUS
10
80.5676
20
-113.632
11
80.3
21
-113.65
0
LINE
8
BLACK
6
CONTINUOUS
10
80.3
20
-113.65
11
66
21
-113.65
0
LINE
8
BLACK
6
CONTINUOUS
10
66
20
-113.65
11
65.7324
21
-113.632
0
LINE
8
BLACK
6
CONTINUOUS
10
65.7324
20
-113.632
11
65.4694
21
-113.58
0
LINE
8
BLACK
6
CONTINUOUS
10
65.4694
20
-113.58
11
65.2155
21
-113.494
0
LINE
8
BLACK
6
CONTINUOUS
10
65.2155
20
-113.494
11
64.975
21
-113.375
0
LINE
8
BLACK
6
CONTINUOUS
10
64.975
20
-113.375
11
64.752
21
-113.226
0
LINE
8
BLACK
6
CONTINUOUS
10
64.752
20
-113.226
11
64.5504
21
-113.05
0
LINE
8
BLACK
6
CONTINUOUS
10
64.5504
20
-113.05
11
64.3736
21
-112.848
0
LINE
8
BLACK
6
CONTINUOUS
10
64.3736
20
-112.848
11
64.2246
21
-112.625
0
LINE
8
BLACK
6
CONTINUOUS
10
64.2246
20
-112.625
11
64.106
21
-112.385
0
LINE
8
BLACK
6
CONTINUOUS
10
64.106
20
-112.385
11
64.0199
21
-112.131
0
LINE
8
BLACK
6
CONTINUOUS
10
64.0199
20
-112.131
11
63.9675
21
-111.868
0
LINE
8
BLACK
6
CONTINUOUS
10
63.9675
20
-111.868
11
63.95
21
-111.6
0
LINE
8
BLACK
6
CONTINUOUS
10
63.95
20
-111.6
11
63.95
21
-62.4
0
LINE
8
BLACK
6
CONTINUOUS
10
63.95
20
-62.4
11
63.9675
21
-62.1324
0
LINE
8
BLACK
6
CONTINUOUS
10
63.9675
20
-62.1324
11
64.0199
21
-61.8694
0
LINE
8
BLACK
6
CONTINUOUS
10
64.0199
20
-61.8694
11
64.106
21
-61.6155
0
LINE
8
BLACK
6
CONTINUOUS
10
64.106
20
-61.6155
11
64.2246
21
-61.375
0
LINE
8
BLACK
6
CONTINUOUS
10
64.2246
20
-61.375
11
64.3736
21
-61.152
0
LINE
8
BLACK
6
CONTINUOUS
10
64.3736
20
-61.152
11
64.5504
21
-60.9504
0
LINE
8
BLACK
6
CONTINUOUS
10
64.5504
20
-60.9504
11
64.752
21
-60.7736
0
LINE
8
BLACK
6
CONTINUOUS
10
64.752
20
-60.7736
11
64.975
21
-60.6246
0
LINE
8
BLACK
6
CONTINUOUS
10
64.975
20
-60.6246
11
65.2155
21
-60.506
0
LINE
8
BLACK
6
CONTINUOUS
10
65.2155
20
-60.506
11
65.4694
21
-60.4199
0
LINE
8
BLACK
6
CONTINUOUS
10
65.4694
20
-60.4199
11
65.7324
21
-60.3675
0
LINE
8
BLACK
6
CONTINUOUS
10
65.7324
20
-60.3675
11
66
21
-60.35
0
LINE
8
BLACK
6
CONTINUOUS
10
66
20
-60.35
11
80.3
21
-60.35
0
LINE
8
BLACK
6
CONTINUOUS
10
80.3
20
-60.35
11
80.5676
21
-60.3675
0
LINE
8
BLACK
6
CONTINUOUS
10
80.5676
20
-60.3675
11
80.8306
21
-60.4199
0
LINE
8
BLACK
6
CONTINUOUS
10
80.8306
20
-60.4199
11
81.0845
21
-60.506
0
LINE
8
BLACK
6
CONTINUOUS
10
81.0845
20
-60.506
11
81.325
21
-60.6246
0
LINE
8
BLACK
6
CONTINUOUS
10
81.325
20
-60.6246
11
81.548
21
-60.7736
0
LINE
8
BLACK
6
CONTINUOUS
10
81.548
20
-60.7736
11
81.7496
21
-60.9504
0
LINE
8
BLACK
6
CONTINUOUS
10
81.7496
20
-60.9504
11
81.9264
21
-61.152
0
LINE
8
BLACK
6
CONTINUOUS
10
81.9264
20
-61.152
11
82.0754
21
-61.375
0
LINE
8
BLACK
6
CONTINUOUS
10
82.0754
20
-61.375
11
82.194
21
-61.6155
0
LINE
8
BLACK
6
CONTINUOUS
10
82.194
20
-61.6155
11
82.2801
21
-61.8694
0
LINE
8
BLACK
6
CONTINUOUS
10
82.2801
20
-61.8694
11
82.3325
21
-62.1324
0
LINE
8
BLACK
6
CONTINUOUS
10
82.3325
20
-62.1324
11
82.35
21
-62.4
0
LINE
8
BLACK
6
CONTINUOUS
10
82.35
20
-62.4
11
82.3468
21
-62.4076
0
LINE
8
BLACK
6
CONTINUOUS
10
82.3468
20
-62.4076
11
82.363
21
-62.5095
0
LINE
8
BLACK
6
CONTINUOUS
10
82.363
20
-62.5095
11
82.4133
21
-62.6083
0
LINE
8
BLACK
6
CONTINUOUS
10
82.4133
20
-62.6083
11
82.4917
21
-62.6867
0
LINE
8
BLACK
6
CONTINUOUS
10
82.4917
20
-62.6867
11
82.5905
21
-62.737
0
LINE
8
BLACK
6
CONTINUOUS
10
82.5905
20
-62.737
11
82.7
21
-62.7544
0
LINE
8
BLACK
6
CONTINUOUS
10
82.7
20
-62.7544
11
82.8095
21
-62.737
0
LINE
8
BLACK
6
CONTINUOUS
10
82.8095
20
-62.737
11
82.9083
21
-62.6867
0
LINE
8
BLACK
6
CONTINUOUS
10
82.9083
20
-62.6867
11
82.9867
21
-62.6083
0
LINE
8
BLACK
6
CONTINUOUS
10
82.9867
20
-62.6083
11
83.037
21
-62.5095
0
LINE
8
BLACK
6
CONTINUOUS
10
83.037
20
-62.5095
11
83.0532
21
-62.4076
0
LINE
8
BLACK
6
CONTINUOUS
10
83.0532
20
-62.4076
11
83.05
21
-62.4
0
LINE
8
BLACK
6
CONTINUOUS
10
83.05
20
-62.4
11
83.0675
21
-62.1324
0
LINE
8
BLACK
6
CONTINUOUS
10
83.0675
20
-62.1324
11
83.1199
21
-61.8694
0
LINE
8
BLACK
6
CONTINUOUS
10
83.1199
20
-61.8694
11
83.206
21
-61.6155
0
LINE
8
BLACK
6
CONTINUOUS
10
83.206
20
-61.6155
11
83.3246
21
-61.375
0
LINE
8
BLACK
6
CONTINUOUS
10
83.3246
20
-61.375
11
83.4736
21
-61.152
0
LINE
8
BLACK
6
CONTINUOUS
10
83.4736
20
-61.152
11
83.6504
21
-60.9504
0
LINE
8
BLACK
6
CONTINUOUS
10
83.6504
20
-60.9504
11
83.852
21
-60.7736
0
LINE
8
BLACK
6
CONTINUOUS
10
83.852
20
-60.7736
11
84.075
21
-60.6246
0
LINE
8
BLACK
6
CONTINUOUS
10
84.075
20
-60.6246
11
84.3155
21
-60.506
0
LINE
8
BLACK
6
CONTINUOUS
10
84.3155
20
-60.506
11
84.5694
21
-60.4199
0
LINE
8
BLACK
6
CONTINUOUS
10
84.5694
20
-60.4199
11
84.8324
21
-60.3675
0
LINE
8
BLACK
6
CONTINUOUS
10
84.8324
20
-60.3675
11
85.1
21
-60.35
0
LINE
8
BLACK
6
CONTINUOUS
10
85.1
20
-60.35
11
98
21
-60.35
0
LINE
8
BLACK
6
CONTINUOUS
10
98
20
-60.35
11
98.0087
21
-60.3536
0
LINE
8
BLACK
6
CONTINUOUS
10
98.0087
20
-60.3536
11
98.2551
21
-60.3375
0
LINE
8
BLACK
6
CONTINUOUS
10
98.2551
20
-60.3375
11
98.5058
21
-60.2876
0
LINE
8
BLACK
6
CONTINUOUS
10
98.5058
20
-60.2876
11
98.7478
21
-60.2054
0
LINE
8
BLACK
6
CONTINUOUS
10
98.7478
20
-60.2054
11
98.9771
21
-60.0924
0
LINE
8
BLACK
6
CONTINUOUS
10
98.9771
20
-60.0924
11
99.1896
21
-59.9504
0
LINE
8
BLACK
6
CONTINUOUS
10
99.1896
20
-59.9504
11
99.3818
21
-59.7818
0
LINE
8
BLACK
6
CONTINUOUS
10
99.3818
20
-59.7818
11
99.5504
21
-59.5896
0
LINE
8
BLACK
6
CONTINUOUS
10
99.5504
20
-59.5896
11
99.6924
21
-59.3771
0
LINE
8
BLACK
6
CONTINUOUS
10
99.6924
20
-59.3771
11
99.8054
21
-59.1478
0
LINE
8
BLACK
6
CONTINUOUS
10
99.8054
20
-59.1478
11
99.8876
21
-58.9058
0
LINE
8
BLACK
6
CONTINUOUS
10
99.8876
20
-58.9058
11
99.9375
21
-58.6551
0
LINE
8
BLACK
6
CONTINUOUS
10
99.9375
20
-58.6551
11
99.9536
21
-58.4087
0
LINE
8
BLACK
6
CONTINUOUS
10
99.9536
20
-58.4087
11
99.95
21
-58.4
0
LINE
8
BLACK
6
CONTINUOUS
10
99.95
20
-58.4
11
99.95
21
-50.4
0
LINE
8
BLACK
6
CONTINUOUS
10
99.95
20
-50.4
11
99.9675
21
-50.1324
0
LINE
8
BLACK
6
CONTINUOUS
10
99.9675
20
-50.1324
11
100.02
21
-49.8694
0
LINE
8
BLACK
6
CONTINUOUS
10
100.02
20
-49.8694
11
100.106
21
-49.6155
0
LINE
8
BLACK
6
CONTINUOUS
10
100.106
20
-49.6155
11
100.225
21
-49.375
0
LINE
8
BLACK
6
CONTINUOUS
10
100.225
20
-49.375
11
100.374
21
-49.152
0
LINE
8
BLACK
6
CONTINUOUS
10
100.374
20
-49.152
11
100.55
21
-48.9504
0
LINE
8
BLACK
6
CONTINUOUS
10
100.55
20
-48.9504
11
100.752
21
-48.7736
0
LINE
8
BLACK
6
CONTINUOUS
10
100.752
20
-48.7736
11
100.975
21
-48.6246
0
LINE
8
BLACK
6
CONTINUOUS
10
100.975
20
-48.6246
11
101.215
21
-48.506
0
LINE
8
BLACK
6
CONTINUOUS
10
101.215
20
-48.506
11
101.469
21
-48.4199
0
LINE
8
BLACK
6
CONTINUOUS
10
101.469
20
-48.4199
11
101.732
21
-48.3675
0
LINE
8
BLACK
6
CONTINUOUS
10
101.732
20
-48.3675
11
102
21
-48.35
0
LINE
8
BLACK
6
CONTINUOUS
10
102
20
-48.35
11
117.15
21
-48.35
0
LINE
8
BLACK
6
CONTINUOUS
10
117.15
20
-48.35
11
117.159
21
-48.3536
0
LINE
8
BLACK
6
CONTINUOUS
10
117.159
20
-48.3536
11
117.405
21
-48.3375
0
LINE
8
BLACK
6
CONTINUOUS
10
117.405
20
-48.3375
11
117.656
21
-48.2876
0
LINE
8
BLACK
6
CONTINUOUS
10
117.656
20
-48.2876
11
117.898
21
-48.2054
0
LINE
8
BLACK
6
CONTINUOUS
10
117.898
20
-48.2054
11
118.127
21
-48.0924
0
LINE
8
BLACK
6
CONTINUOUS
10
118.127
20
-48.0924
11
118.34
21
-47.9504
0
LINE
8
BLACK
6
CONTINUOUS
10
118.34
20
-47.9504
11
118.532
21
-47.7818
0
LINE
8
BLACK
6
CONTINUOUS
10
118.532
20
-47.7818
11
118.7
21
-47.5896
0
LINE
8
BLACK
6
CONTINUOUS
10
118.7
20
-47.5896
11
118.842
21
-47.3771
0
LINE
8
BLACK
6
CONTINUOUS
10
118.842
20
-47.3771
11
118.955
21
-47.1478
0
LINE
8
BLACK
6
CONTINUOUS
10
118.955
20
-47.1478
11
119.038
21
-46.9058
0
LINE
8
BLACK
6
CONTINUOUS
10
119.038
20
-46.9058
11
119.087
21
-46.6551
0
LINE
8
BLACK
6
CONTINUOUS
10
119.087
20
-46.6551
11
119.104
21
-46.4087
0
LINE
8
BLACK
6
CONTINUOUS
10
119.104
20
-46.4087
11
119.1
21
-46.4
0
LINE
8
BLACK
6
CONTINUOUS
10
119.1
20
-46.4
11
119.1
21
-45.4
0
LINE
8
BLACK
6
CONTINUOUS
10
119.1
20
-45.4
11
119.117
21
-45.1324
0
LINE
8
BLACK
6
CONTINUOUS
10
119.117
20
-45.1324
11
119.17
21
-44.8694
0
LINE
8
BLACK
6
CONTINUOUS
10
119.17
20
-44.8694
11
119.256
21
-44.6155
0
LINE
8
BLACK
6
CONTINUOUS
10
119.256
20
-44.6155
11
119.375
21
-44.375
0
LINE
8
BLACK
6
CONTINUOUS
10
119.375
20
-44.375
11
119.524
21
-44.152
0
LINE
8
BLACK
6
CONTINUOUS
10
119.524
20
-44.152
11
119.7
21
-43.9504
0
LINE
8
BLACK
6
CONTINUOUS
10
119.7
20
-43.9504
11
119.902
21
-43.7736
0
LINE
8
BLACK
6
CONTINUOUS
10
119.902
20
-43.7736
11
120.125
21
-43.6247
0
LINE
8
BLACK
6
CONTINUOUS
10
120.125
20
-43.6247
11
120.365
21
-43.5061
0
LINE
8
BLACK
6
CONTINUOUS
10
120.365
20
-43.5061
11
120.619
21
-43.4199
0
LINE
8
BLACK
6
CONTINUOUS
10
120.619
20
-43.4199
11
120.882
21
-43.3676
0
LINE
8
BLACK
6
CONTINUOUS
10
120.882
20
-43.3676
11
121.15
21
-43.35
0
LINE
8
BLACK
6
CONTINUOUS
10
121.15
20
-43.35
11
121.15
21
-43.35
0
LINE
8
BLACK
6
CONTINUOUS
10
121.15
20
-43.35
11
137.15
21
-43.35
0
LINE
8
BLACK
6
CONTINUOUS
10
137.15
20
-43.35
11
137.417
21
-43.3675
0
LINE
8
BLACK
6
CONTINUOUS
10
137.417
20
-43.3675
11
137.68
21
-43.4199
0
LINE
8
BLACK
6
CONTINUOUS
10
137.68
20
-43.4199
11
137.934
21
-43.5061
0
LINE
8
BLACK
6
CONTINUOUS
10
137.934
20
-43.5061
11
138.175
21
-43.6247
0
LINE
8
BLACK
6
CONTINUOUS
10
138.175
20
-43.6247
11
138.398
21
-43.7736
0
LINE
8
BLACK
6
CONTINUOUS
10
138.398
20
-43.7736
11
138.599
21
-43.9504
0
LINE
8
BLACK
6
CONTINUOUS
10
138.599
20
-43.9504
11
138.776
21
-44.152
0
LINE
8
BLACK
6
CONTINUOUS
10
138.776
20
-44.152
11
138.925
21
-44.375
0
LINE
8
BLACK
6
CONTINUOUS
10
138.925
20
-44.375
11
139.044
21
-44.6155
0
LINE
8
BLACK
6
CONTINUOUS
10
139.044
20
-44.6155
11
139.13
21
-44.8694
0
LINE
8
BLACK
6
CONTINUOUS
10
139.13
20
-44.8694
11
139.182
21
-45.1324
0
LINE
8
BLACK
6
CONTINUOUS
10
139.182
20
-45.1324
11
139.2
21
-45.3999
0
LINE
8
BLACK
6
CONTINUOUS
10
139.2
20
-45.3999
11
139.2
21
-45.4
0
LINE
8
BLACK
6
CONTINUOUS
10
139.2
20
-45.4
11
139.2
21
-46.4
0
LINE
8
BLACK
6
CONTINUOUS
10
139.2
20
-46.4
11
139.196
21
-46.4087
0
LINE
8
BLACK
6
CONTINUOUS
10
139.196
20
-46.4087
11
139.196
21
-46.4088
0
LINE
8
BLACK
6
CONTINUOUS
10
139.196
20
-46.4088
11
139.212
21
-46.6551
0
LINE
8
BLACK
6
CONTINUOUS
10
139.212
20
-46.6551
11
139.262
21
-46.9058
0
LINE
8
BLACK
6
CONTINUOUS
10
139.262
20
-46.9058
11
139.344
21
-47.1478
0
LINE
8
BLACK
6
CONTINUOUS
10
139.344
20
-47.1478
11
139.458
21
-47.3771
0
LINE
8
BLACK
6
CONTINUOUS
10
139.458
20
-47.3771
11
139.6
21
-47.5896
0
LINE
8
BLACK
6
CONTINUOUS
10
139.6
20
-47.5896
11
139.768
21
-47.7818
0
LINE
8
BLACK
6
CONTINUOUS
10
139.768
20
-47.7818
11
139.96
21
-47.9504
0
LINE
8
BLACK
6
CONTINUOUS
10
139.96
20
-47.9504
11
140.173
21
-48.0924
0
LINE
8
BLACK
6
CONTINUOUS
10
140.173
20
-48.0924
11
140.402
21
-48.2054
0
LINE
8
BLACK
6
CONTINUOUS
10
140.402
20
-48.2054
11
140.644
21
-48.2876
0
LINE
8
BLACK
6
CONTINUOUS
10
140.644
20
-48.2876
11
140.895
21
-48.3375
0
LINE
8
BLACK
6
CONTINUOUS
10
140.895
20
-48.3375
11
141.141
21
-48.3536
0
LINE
8
BLACK
6
CONTINUOUS
10
141.141
20
-48.3536
11
141.15
21
-48.35
0
LINE
8
BLACK
6
CONTINUOUS
10
141.15
20
-48.35
11
155.45
21
-48.35
0
LINE
8
BLACK
6
CONTINUOUS
10
155.45
20
-48.35
11
155.685
21
-48.3639
0
LINE
8
BLACK
6
CONTINUOUS
10
155.685
20
-48.3639
11
155.917
21
-48.4055
0
LINE
8
BLACK
6
CONTINUOUS
10
121.141
20
-43.4464
11
120.895
21
-43.4625
0
LINE
8
BLACK
6
CONTINUOUS
10
120.895
20
-43.4625
11
120.644
21
-43.5124
0
LINE
8
BLACK
6
CONTINUOUS
10
120.644
20
-43.5124
11
120.402
21
-43.5946
0
LINE
8
BLACK
6
CONTINUOUS
10
120.402
20
-43.5946
11
120.173
21
-43.7076
0
LINE
8
BLACK
6
CONTINUOUS
10
120.173
20
-43.7076
11
119.96
21
-43.8496
0
LINE
8
BLACK
6
CONTINUOUS
10
119.96
20
-43.8496
11
119.768
21
-44.0182
0
LINE
8
BLACK
6
CONTINUOUS
10
119.768
20
-44.0182
11
119.6
21
-44.2104
0
LINE
8
BLACK
6
CONTINUOUS
10
119.6
20
-44.2104
11
119.458
21
-44.4229
0
LINE
8
BLACK
6
CONTINUOUS
10
119.458
20
-44.4229
11
119.344
21
-44.6522
0
LINE
8
BLACK
6
CONTINUOUS
10
119.344
20
-44.6522
11
119.262
21
-44.8942
0
LINE
8
BLACK
6
CONTINUOUS
10
119.262
20
-44.8942
11
119.212
21
-45.1449
0
LINE
8
BLACK
6
CONTINUOUS
10
119.212
20
-45.1449
11
119.196
21
-45.3913
0
LINE
8
BLACK
6
CONTINUOUS
10
119.196
20
-45.3913
11
119.2
21
-45.3999
0
LINE
8
BLACK
6
CONTINUOUS
10
119.2
20
-45.3999
11
119.2
21
-45.4
0
LINE
8
BLACK
6
CONTINUOUS
10
119.2
20
-45.4
11
119.2
21
-46.4
0
LINE
8
BLACK
6
CONTINUOUS
10
119.2
20
-46.4
11
119.182
21
-46.6676
0
LINE
8
BLACK
6
CONTINUOUS
10
119.182
20
-46.6676
11
119.13
21
-46.9306
0
LINE
8
BLACK
6
CONTINUOUS
10
119.13
20
-46.9306
11
119.044
21
-47.1845
0
LINE
8
BLACK
6
CONTINUOUS
10
119.044
20
-47.1845
11
118.925
21
-47.425
0
LINE
8
BLACK
6
CONTINUOUS
10
118.925
20
-47.425
11
118.776
21
-47.648
0
LINE
8
BLACK
6
CONTINUOUS
10
118.776
20
-47.648
11
118.599
21
-47.8496
0
LINE
8
BLACK
6
CONTINUOUS
10
118.599
20
-47.8496
11
118.398
21
-48.0264
0
LINE
8
BLACK
6
CONTINUOUS
10
118.398
20
-48.0264
11
118.175
21
-48.1754
0
LINE
8
BLACK
6
CONTINUOUS
10
118.175
20
-48.1754
11
117.934
21
-48.294
0
LINE
8
BLACK
6
CONTINUOUS
10
117.934
20
-48.294
11
117.68
21
-48.3802
0
LINE
8
BLACK
6
CONTINUOUS
10
117.68
20
-48.3802
11
117.417
21
-48.4325
0
LINE
8
BLACK
6
CONTINUOUS
10
117.417
20
-48.4325
11
117.15
21
-48.45
0
LINE
8
BLACK
6
CONTINUOUS
10
117.15
20
-48.45
11
117.15
21
-48.45
0
LINE
8
BLACK
6
CONTINUOUS
10
117.15
20
-48.45
11
102
21
-48.45
0
LINE
8
BLACK
6
CONTINUOUS
10
102
20
-48.45
11
101.991
21
-48.4464
0
LINE
8
BLACK
6
CONTINUOUS
10
101.991
20
-48.4464
11
101.745
21
-48.4625
0
LINE
8
BLACK
6
CONTINUOUS
10
101.745
20
-48.4625
11
101.494
21
-48.5124
0
LINE
8
BLACK
6
CONTINUOUS
10
101.494
20
-48.5124
11
101.252
21
-48.5946
0
LINE
8
BLACK
6
CONTINUOUS
10
101.252
20
-48.5946
11
101.023
21
-48.7076
0
LINE
8
BLACK
6
CONTINUOUS
10
101.023
20
-48.7076
11
100.81
21
-48.8496
0
LINE
8
BLACK
6
CONTINUOUS
10
100.81
20
-48.8496
11
100.618
21
-49.0182
0
LINE
8
BLACK
6
CONTINUOUS
10
100.618
20
-49.0182
11
100.45
21
-49.2104
0
LINE
8
BLACK
6
CONTINUOUS
10
100.45
20
-49.2104
11
100.308
21
-49.4229
0
LINE
8
BLACK
6
CONTINUOUS
10
100.308
20
-49.4229
11
100.195
21
-49.6522
0
LINE
8
BLACK
6
CONTINUOUS
10
100.195
20
-49.6522
11
100.112
21
-49.8942
0
LINE
8
BLACK
6
CONTINUOUS
10
100.112
20
-49.8942
11
100.063
21
-50.1449
0
LINE
8
BLACK
6
CONTINUOUS
10
100.063
20
-50.1449
11
100.046
21
-50.3913
0
LINE
8
BLACK
6
CONTINUOUS
10
100.046
20
-50.3913
11
100.05
21
-50.4
0
LINE
8
BLACK
6
CONTINUOUS
10
100.05
20
-50.4
11
100.05
21
-58.4
0
LINE
8
BLACK
6
CONTINUOUS
10
100.05
20
-58.4
11
100.032
21
-58.6676
0
LINE
8
BLACK
6
CONTINUOUS
10
100.032
20
-58.6676
11
99.9801
21
-58.9306
0
LINE
8
BLACK
6
CONTINUOUS
10
99.9801
20
-58.9306
11
99.894
21
-59.1845
0
LINE
8
BLACK
6
CONTINUOUS
10
99.894
20
-59.1845
11
99.7754
21
-59.425
0
LINE
8
BLACK
6
CONTINUOUS
10
99.7754
20
-59.425
11
99.6264
21
-59.648
0
LINE
8
BLACK
6
CONTINUOUS
10
99.6264
20
-59.648
11
99.4496
21
-59.8496
0
LINE
8
BLACK
6
CONTINUOUS
10
99.4496
20
-59.8496
11
99.248
21
-60.0264
0
LINE
8
BLACK
6
CONTINUOUS
10
99.248
20
-60.0264
11
99.025
21
-60.1754
0
LINE
8
BLACK
6
CONTINUOUS
10
99.025
20
-60.1754
11
98.7845
21
-60.294
0
LINE
8
BLACK
6
CONTINUOUS
10
98.7845
20
-60.294
11
98.5306
21
-60.3801
0
LINE
8
BLACK
6
CONTINUOUS
10
98.5306
20
-60.3801
11
98.2676
21
-60.4325
0
LINE
8
BLACK
6
CONTINUOUS
10
98.2676
20
-60.4325
11
98
21
-60.45
0
LINE
8
BLACK
6
CONTINUOUS
10
98
20
-60.45
11
85.1
21
-60.45
0
LINE
8
BLACK
6
CONTINUOUS
10
85.1
20
-60.45
11
85.0913
21
-60.4464
0
LINE
8
BLACK
6
CONTINUOUS
10
85.0913
20
-60.4464
11
84.8449
21
-60.4625
0
LINE
8
BLACK
6
CONTINUOUS
10
84.8449
20
-60.4625
11
84.5942
21
-60.5124
0
LINE
8
BLACK
6
CONTINUOUS
10
84.5942
20
-60.5124
11
84.3522
21
-60.5946
0
LINE
8
BLACK
6
CONTINUOUS
10
84.3522
20
-60.5946
11
84.1229
21
-60.7076
0
LINE
8
BLACK
6
CONTINUOUS
10
84.1229
20
-60.7076
11
83.9104
21
-60.8496
0
LINE
8
BLACK
6
CONTINUOUS
10
83.9104
20
-60.8496
11
83.7182
21
-61.0182
0
LINE
8
BLACK
6
CONTINUOUS
10
83.7182
20
-61.0182
11
83.5496
21
-61.2104
0
LINE
8
BLACK
6
CONTINUOUS
10
83.5496
20
-61.2104
11
83.4076
21
-61.4229
0
LINE
8
BLACK
6
CONTINUOUS
10
83.4076
20
-61.4229
11
83.2946
21
-61.6522
0
LINE
8
BLACK
6
CONTINUOUS
10
83.2946
20
-61.6522
11
83.2124
21
-61.8942
0
LINE
8
BLACK
6
CONTINUOUS
10
83.2124
20
-61.8942
11
83.1625
21
-62.1449
0
LINE
8
BLACK
6
CONTINUOUS
10
83.1625
20
-62.1449
11
83.1464
21
-62.3913
0
LINE
8
BLACK
6
CONTINUOUS
10
83.1464
20
-62.3913
11
83.15
21
-62.4
0
LINE
8
BLACK
6
CONTINUOUS
10
83.15
20
-62.4
11
83.1347
21
-62.5165
0
LINE
8
BLACK
6
CONTINUOUS
10
83.1347
20
-62.5165
11
83.0897
21
-62.625
0
LINE
8
BLACK
6
CONTINUOUS
10
83.0897
20
-62.625
11
83.0182
21
-62.7182
0
LINE
8
BLACK
6
CONTINUOUS
10
83.0182
20
-62.7182
11
82.925
21
-62.7897
0
LINE
8
BLACK
6
CONTINUOUS
10
82.925
20
-62.7897
11
82.8165
21
-62.8347
0
LINE
8
BLACK
6
CONTINUOUS
10
82.8165
20
-62.8347
11
82.7
21
-62.85
0
LINE
8
BLACK
6
CONTINUOUS
10
82.7
20
-62.85
11
82.5835
21
-62.8347
0
LINE
8
BLACK
6
CONTINUOUS
10
82.5835
20
-62.8347
11
82.475
21
-62.7897
0
LINE
8
BLACK
6
CONTINUOUS
10
82.475
20
-62.7897
11
82.3818
21
-62.7182
0
LINE
8
BLACK
6
CONTINUOUS
10
82.3818
20
-62.7182
11
82.3103
21
-62.625
0
LINE
8
BLACK
6
CONTINUOUS
10
82.3103
20
-62.625
11
82.2653
21
-62.5165
0
LINE
8
BLACK
6
CONTINUOUS
10
82.2653
20
-62.5165
11
82.25
21
-62.4
0
LINE
8
BLACK
6
CONTINUOUS
10
82.25
20
-62.4
11
82.2536
21
-62.3913
0
LINE
8
BLACK
6
CONTINUOUS
10
82.2536
20
-62.3913
11
82.2375
21
-62.1449
0
LINE
8
BLACK
6
CONTINUOUS
10
82.2375
20
-62.1449
11
82.1876
21
-61.8942
0
LINE
8
BLACK
6
CONTINUOUS
10
82.1876
20
-61.8942
11
82.1054
21
-61.6522
0
LINE
8
BLACK
6
CONTINUOUS
10
82.1054
20
-61.6522
11
81.9924
21
-61.4229
0
LINE
8
BLACK
6
CONTINUOUS
10
81.9924
20
-61.4229
11
81.8504
21
-61.2104
0
LINE
8
BLACK
6
CONTINUOUS
10
81.8504
20
-61.2104
11
81.6818
21
-61.0182
0
LINE
8
BLACK
6
CONTINUOUS
10
81.6818
20
-61.0182
11
81.4896
21
-60.8496
0
LINE
8
BLACK
6
CONTINUOUS
10
81.4896
20
-60.8496
11
81.2771
21
-60.7076
0
LINE
8
BLACK
6
CONTINUOUS
10
81.2771
20
-60.7076
11
81.0478
21
-60.5946
0
LINE
8
BLACK
6
CONTINUOUS
10
81.0478
20
-60.5946
11
80.8058
21
-60.5124
0
LINE
8
BLACK
6
CONTINUOUS
10
80.8058
20
-60.5124
11
80.5551
21
-60.4625
0
LINE
8
BLACK
6
CONTINUOUS
10
80.5551
20
-60.4625
11
80.3087
21
-60.4464
0
LINE
8
BLACK
6
CONTINUOUS
10
80.3087
20
-60.4464
11
80.3
21
-60.45
0
LINE
8
BLACK
6
CONTINUOUS
10
80.3
20
-60.45
11
66
21
-60.45
0
LINE
8
BLACK
6
CONTINUOUS
10
66
20
-60.45
11
65.9913
21
-60.4464
0
LINE
8
BLACK
6
CONTINUOUS
10
65.9913
20
-60.4464
11
65.7449
21
-60.4625
0
LINE
8
BLACK
6
CONTINUOUS
10
65.7449
20
-60.4625
11
65.4942
21
-60.5124
0
LINE
8
BLACK
6
CONTINUOUS
10
65.4942
20
-60.5124
11
65.2522
21
-60.5946
0
LINE
8
BLACK
6
CONTINUOUS
10
65.2522
20
-60.5946
11
65.0229
21
-60.7076
0
LINE
8
BLACK
6
CONTINUOUS
10
65.0229
20
-60.7076
11
64.8104
21
-60.8496
0
LINE
8
BLACK
6
CONTINUOUS
10
64.8104
20
-60.8496
11
64.6182
21
-61.0182
0
LINE
8
BLACK
6
CONTINUOUS
10
64.6182
20
-61.0182
11
64.4496
21
-61.2104
0
LINE
8
BLACK
6
CONTINUOUS
10
64.4496
20
-61.2104
11
64.3076
21
-61.4229
0
LINE
8
BLACK
6
CONTINUOUS
10
64.3076
20
-61.4229
11
64.1946
21
-61.6522
0
LINE
8
BLACK
6
CONTINUOUS
10
64.1946
20
-61.6522
11
64.1124
21
-61.8942
0
LINE
8
BLACK
6
CONTINUOUS
10
64.1124
20
-61.8942
11
64.0625
21
-62.1449
0
LINE
8
BLACK
6
CONTINUOUS
10
64.0625
20
-62.1449
11
64.0464
21
-62.3913
0
LINE
8
BLACK
6
CONTINUOUS
10
64.0464
20
-62.3913
11
64.05
21
-62.4
0
LINE
8
BLACK
6
CONTINUOUS
10
64.05
20
-62.4
11
64.05
21
-111.6
0
LINE
8
BLACK
6
CONTINUOUS
10
64.05
20
-111.6
11
64.0464
21
-111.609
0
LINE
8
BLACK
6
CONTINUOUS
10
64.0464
20
-111.609
11
64.0625
21
-111.855
0
LINE
8
BLACK
6
CONTINUOUS
10
64.0625
20
-111.855
11
64.1124
21
-112.106
0
LINE
8
BLACK
6
CONTINUOUS
10
64.1124
20
-112.106
11
64.1946
21
-112.348
0
LINE
8
BLACK
6
CONTINUOUS
10
64.1946
20
-112.348
11
64.3076
21
-112.577
0
LINE
8
BLACK
6
CONTINUOUS
10
64.3076
20
-112.577
11
64.4496
21
-112.79
0
LINE
8
BLACK
6
CONTINUOUS
10
64.4496
20
-112.79
11
64.6182
21
-112.982
0
LINE
8
BLACK
6
CONTINUOUS
10
64.6182
20
-112.982
11
64.8104
21
-113.15
0
LINE
8
BLACK
6
CONTINUOUS
10
64.8104
20
-113.15
11
65.0229
21
-113.292
0
LINE
8
BLACK
6
CONTINUOUS
10
65.0229
20
-113.292
11
65.2522
21
-113.405
0
LINE
8
BLACK
6
CONTINUOUS
10
65.2522
20
-113.405
11
65.4942
21
-113.488
0
LINE
8
BLACK
6
CONTINUOUS
10
65.4942
20
-113.488
11
65.7449
21
-113.537
0
LINE
8
BLACK
6
CONTINUOUS
10
65.7449
20
-113.537
11
65.9913
21
-113.554
0
LINE
8
BLACK
6
CONTINUOUS
10
65.9913
20
-113.554
11
66
21
-113.55
0
LINE
8
BLACK
6
CONTINUOUS
10
66
20
-113.55
11
80.3
21
-113.55
0
LINE
8
BLACK
6
CONTINUOUS
10
80.3
20
-113.55
11
80.3087
21
-113.554
0
LINE
8
BLACK
6
CONTINUOUS
10
80.3087
20
-113.554
11
80.5551
21
-113.537
0
LINE
8
BLACK
6
CONTINUOUS
10
80.5551
20
-113.537
11
80.8058
21
-113.488
0
LINE
8
BLACK
6
CONTINUOUS
10
80.8058
20
-113.488
11
81.0478
21
-113.405
0
LINE
8
BLACK
6
CONTINUOUS
10
81.0478
20
-113.405
11
81.2771
21
-113.292
0
LINE
8
BLACK
6
CONTINUOUS
10
81.2771
20
-113.292
11
81.4896
21
-113.15
0
LINE
8
BLACK
6
CONTINUOUS
10
81.4896
20
-113.15
11
81.6818
21
-112.982
0
LINE
8
BLACK
6
CONTINUOUS
10
81.6818
20
-112.982
11
81.8504
21
-112.79
0
LINE
8
BLACK
6
CONTINUOUS
10
81.8504
20
-112.79
11
81.9924
21
-112.577
0
LINE
8
BLACK
6
CONTINUOUS
10
81.9924
20
-112.577
11
82.1054
21
-112.348
0
LINE
8
BLACK
6
CONTINUOUS
10
82.1054
20
-112.348
11
82.1876
21
-112.106
0
LINE
8
BLACK
6
CONTINUOUS
10
82.1876
20
-112.106
11
82.2375
21
-111.855
0
LINE
8
BLACK
6
CONTINUOUS
10
82.2375
20
-111.855
11
82.2536
21
-111.609
0
LINE
8
BLACK
6
CONTINUOUS
10
82.2536
20
-111.609
11
82.25
21
-111.6
0
LINE
8
BLACK
6
CONTINUOUS
10
82.25
20
-111.6
11
82.2653
21
-111.484
0
LINE
8
BLACK
6
CONTINUOUS
10
82.2653
20
-111.484
11
82.3103
21
-111.375
0
LINE
8
BLACK
6
CONTINUOUS
10
82.3103
20
-111.375
11
82.3818
21
-111.282
0
LINE
8
BLACK
6
CONTINUOUS
10
82.3818
20
-111.282
11
82.475
21
-111.21
0
LINE
8
BLACK
6
CONTINUOUS
10
82.475
20
-111.21
11
82.5835
21
-111.165
0
LINE
8
BLACK
6
CONTINUOUS
10
82.5835
20
-111.165
11
82.7
21
-111.15
0
LINE
8
BLACK
6
CONTINUOUS
10
82.7
20
-111.15
11
82.8165
21
-111.165
0
LINE
8
BLACK
6
CONTINUOUS
10
82.8165
20
-111.165
11
82.925
21
-111.21
0
LINE
8
BLACK
6
CONTINUOUS
10
82.925
20
-111.21
11
83.0182
21
-111.282
0
LINE
8
BLACK
6
CONTINUOUS
10
83.0182
20
-111.282
11
83.0897
21
-111.375
0
LINE
8
BLACK
6
CONTINUOUS
10
83.0897
20
-111.375
11
83.1347
21
-111.484
0
LINE
8
BLACK
6
CONTINUOUS
10
83.1347
20
-111.484
11
83.15
21
-111.6
0
LINE
8
BLACK
6
CONTINUOUS
10
83.15
20
-111.6
11
83.1464
21
-111.609
0
LINE
8
BLACK
6
CONTINUOUS
10
83.1464
20
-111.609
11
83.1625
21
-111.855
0
LINE
8
BLACK
6
CONTINUOUS
10
83.1625
20
-111.855
11
83.2124
21
-112.106
0
LINE
8
BLACK
6
CONTINUOUS
10
83.2124
20
-112.106
11
83.2946
21
-112.348
0
LINE
8
BLACK
6
CONTINUOUS
10
83.2946
20
-112.348
11
83.4076
21
-112.577
0
LINE
8
BLACK
6
CONTINUOUS
10
83.4076
20
-112.577
11
83.5496
21
-112.79
0
LINE
8
BLACK
6
CONTINUOUS
10
83.5496
20
-112.79
11
83.7182
21
-112.982
0
LINE
8
BLACK
6
CONTINUOUS
10
83.7182
20
-112.982
11
83.9104
21
-113.15
0
LINE
8
BLACK
6
CONTINUOUS
10
83.9104
20
-113.15
11
84.1229
21
-113.292
0
LINE
8
BLACK
6
CONTINUOUS
10
84.1229
20
-113.292
11
84.3522
21
-113.405
0
LINE
8
BLACK
6
CONTINUOUS
10
84.3522
20
-113.405
11
84.5942
21
-113.488
0
LINE
8
BLACK
6
CONTINUOUS
10
84.5942
20
-113.488
11
84.8449
21
-113.537
0
LINE
8
BLACK
6
CONTINUOUS
10
84.8449
20
-113.537
11
85.0913
21
-113.554
0
LINE
8
BLACK
6
CONTINUOUS
10
85.0913
20
-113.554
11
85.1
21
-113.55
0
LINE
8
BLACK
6
CONTINUOUS
10
85.1
20
-113.55
11
106.5
21
-113.55
0
LINE
8
BLACK
6
CONTINUOUS
10
106.5
20
-113.55
11
106.5
21
-113.55
0
LINE
8
BLACK
6
CONTINUOUS
10
106.5
20
-113.55
11
106.5
21
-113.55
0
LINE
8
BLACK
6
CONTINUOUS
10
106.5
20
-113.55
11
106.5
21
-113.55
0
LINE
8
BLACK
6
CONTINUOUS
10
106.5
20
-113.55
11
107.595
21
-113.576
0
LINE
8
BLACK
6
CONTINUOUS
10
107.595
20
-113.576
11
108.688
21
-113.637
0
LINE
8
BLACK
6
CONTINUOUS
10
108.688
20
-113.637
11
109.779
21
-113.732
0
LINE
8
BLACK
6
CONTINUOUS
10
109.779
20
-113.732
11
110.867
21
-113.861
0
LINE
8
BLACK
6
CONTINUOUS
10
110.867
20
-113.861
11
111.949
21
-114.026
0
LINE
8
BLACK
6
CONTINUOUS
10
111.949
20
-114.026
11
113.026
21
-114.224
0
LINE
8
BLACK
6
CONTINUOUS
10
113.026
20
-114.224
11
114.097
21
-114.456
0
LINE
8
BLACK
6
CONTINUOUS
10
114.097
20
-114.456
11
115.159
21
-114.722
0
LINE
8
BLACK
6
CONTINUOUS
10
115.159
20
-114.722
11
116.212
21
-115.021
0
LINE
8
BLACK
6
CONTINUOUS
10
116.212
20
-115.021
11
117.255
21
-115.354
0
LINE
8
BLACK
6
CONTINUOUS
10
117.255
20
-115.354
11
118.288
21
-115.72
0
LINE
8
BLACK
6
CONTINUOUS
10
118.288
20
-115.72
11
119.308
21
-116.118
0
LINE
8
BLACK
6
CONTINUOUS
10
119.308
20
-116.118
11
120.315
21
-116.548
0
LINE
8
BLACK
6
CONTINUOUS
10
120.315
20
-116.548
11
121.308
21
-117.01
0
LINE
8
BLACK
6
CONTINUOUS
10
121.308
20
-117.01
11
122.285
21
-117.503
0
LINE
8
BLACK
6
CONTINUOUS
10
122.285
20
-117.503
11
123.247
21
-118.026
0
LINE
8
BLACK
6
CONTINUOUS
10
123.247
20
-118.026
11
124.192
21
-118.58
0
LINE
8
BLACK
6
CONTINUOUS
10
124.192
20
-118.58
11
125.118
21
-119.164
0
LINE
8
BLACK
6
CONTINUOUS
10
125.118
20
-119.164
11
126.026
21
-119.776
0
LINE
8
BLACK
6
CONTINUOUS
10
126.026
20
-119.776
11
126.914
21
-120.417
0
LINE
8
BLACK
6
CONTINUOUS
10
126.914
20
-120.417
11
127.781
21
-121.086
0
LINE
8
BLACK
6
CONTINUOUS
10
127.781
20
-121.086
11
127.781
21
-121.086
0
LINE
8
BLACK
6
CONTINUOUS
10
127.781
20
-121.086
11
127.781
21
-121.086
0
LINE
8
BLACK
6
CONTINUOUS
10
127.781
20
-121.086
11
127.781
21
-121.086
0
LINE
8
BLACK
6
CONTINUOUS
10
127.781
20
-121.086
11
127.781
21
-121.086
0
LINE
8
BLACK
6
CONTINUOUS
10
127.781
20
-121.086
11
127.786
21
-121.094
0
LINE
8
BLACK
6
CONTINUOUS
10
127.786
20
-121.094
11
128.222
21
-121.419
0
LINE
8
BLACK
6
CONTINUOUS
10
128.222
20
-121.419
11
128.683
21
-121.723
0
LINE
8
BLACK
6
CONTINUOUS
10
128.683
20
-121.723
11
129.162
21
-122
0
LINE
8
BLACK
6
CONTINUOUS
10
129.162
20
-122
11
129.655
21
-122.25
0
LINE
8
BLACK
6
CONTINUOUS
10
129.655
20
-122.25
11
130.162
21
-122.47
0
LINE
8
BLACK
6
CONTINUOUS
10
130.162
20
-122.47
11
130.681
21
-122.661
0
LINE
8
BLACK
6
CONTINUOUS
10
130.681
20
-122.661
11
131.21
21
-122.821
0
LINE
8
BLACK
6
CONTINUOUS
10
131.21
20
-122.821
11
131.747
21
-122.951
0
LINE
8
BLACK
6
CONTINUOUS
10
131.747
20
-122.951
11
132.291
21
-123.05
0
LINE
8
BLACK
6
CONTINUOUS
10
132.291
20
-123.05
11
132.84
21
-123.117
0
LINE
8
BLACK
6
CONTINUOUS
10
132.84
20
-123.117
11
133.391
21
-123.153
0
LINE
8
BLACK
6
CONTINUOUS
10
133.391
20
-123.153
11
133.944
21
-123.157
0
LINE
8
BLACK
6
CONTINUOUS
10
133.944
20
-123.157
11
134.487
21
-123.13
0
LINE
8
BLACK
6
CONTINUOUS
10
134.487
20
-123.13
11
134.496
21
-123.125
0
LINE
8
BLACK
6
CONTINUOUS
10
134.496
20
-123.125
11
134.496
21
-123.125
0
LINE
8
BLACK
6
CONTINUOUS
10
134.496
20
-123.125
11
134.496
21
-123.125
0
LINE
8
BLACK
6
CONTINUOUS
10
134.496
20
-123.125
11
141.796
21
-122.55
0
LINE
8
BLACK
6
CONTINUOUS
10
141.796
20
-122.55
11
141.796
21
-122.55
0
LINE
8
BLACK
6
CONTINUOUS
10
141.796
20
-122.55
11
143.437
21
-122.425
0
LINE
8
BLACK
6
CONTINUOUS
10
143.437
20
-122.425
11
145.081
21
-122.337
0
LINE
8
BLACK
6
CONTINUOUS
10
145.081
20
-122.337
11
146.727
21
-122.286
0
LINE
8
BLACK
6
CONTINUOUS
10
146.727
20
-122.286
11
148.374
21
-122.273
0
LINE
8
BLACK
6
CONTINUOUS
10
148.374
20
-122.273
11
150.02
21
-122.298
0
LINE
8
BLACK
6
CONTINUOUS
10
150.02
20
-122.298
11
151.665
21
-122.359
0
LINE
8
BLACK
6
CONTINUOUS
10
151.665
20
-122.359
11
153.309
21
-122.459
0
LINE
8
BLACK
6
CONTINUOUS
10
153.309
20
-122.459
11
154.95
21
-122.596
0
LINE
8
BLACK
6
CONTINUOUS
10
154.95
20
-122.596
11
156.587
21
-122.77
0
LINE
8
BLACK
6
CONTINUOUS
10
156.587
20
-122.77
11
158.22
21
-122.981
0
LINE
8
BLACK
6
CONTINUOUS
10
158.22
20
-122.981
11
159.847
21
-123.23
0
LINE
8
BLACK
6
CONTINUOUS
10
159.847
20
-123.23
11
161.469
21
-123.515
0
LINE
8
BLACK
6
CONTINUOUS
10
161.469
20
-123.515
11
163.084
21
-123.838
0
LINE
8
BLACK
6
CONTINUOUS
10
163.084
20
-123.838
11
164.691
21
-124.197
0
LINE
8
BLACK
6
CONTINUOUS
10
164.691
20
-124.197
11
166.289
21
-124.592
0
LINE
8
BLACK
6
CONTINUOUS
10
166.289
20
-124.592
11
167.878
21
-125.024
0
LINE
8
BLACK
6
CONTINUOUS
10
167.878
20
-125.024
11
169.456
21
-125.492
0
LINE
8
BLACK
6
CONTINUOUS
10
169.456
20
-125.492
11
171.024
21
-125.996
0
LINE
8
BLACK
6
CONTINUOUS
10
171.024
20
-125.996
11
172.579
21
-126.535
0
LINE
8
BLACK
6
CONTINUOUS
10
172.579
20
-126.535
11
174.122
21
-127.11
0
LINE
8
BLACK
6
CONTINUOUS
10
174.122
20
-127.11
11
175.652
21
-127.72
0
LINE
8
BLACK
6
CONTINUOUS
10
175.652
20
-127.72
11
177.167
21
-128.364
0
LINE
8
BLACK
6
CONTINUOUS
10
177.167
20
-128.364
11
178.667
21
-129.043
0
LINE
8
BLACK
6
CONTINUOUS
10
178.667
20
-129.043
11
180.15
21
-129.755
0
LINE
8
BLACK
6
CONTINUOUS
10
180.15
20
-129.755
11
187.534
21
-133.076
0
LINE
8
BLACK
6
CONTINUOUS
10
187.534
20
-133.076
11
187.535
21
-133.076
0
LINE
8
BLACK
6
CONTINUOUS
10
187.535
20
-133.076
11
187.536
21
-133.076
0
LINE
8
BLACK
6
CONTINUOUS
10
187.536
20
-133.076
11
187.542
21
-133.083
0
LINE
8
BLACK
6
CONTINUOUS
10
187.542
20
-133.083
11
187.761
21
-133.172
0
LINE
8
BLACK
6
CONTINUOUS
10
187.761
20
-133.172
11
187.997
21
-133.234
0
LINE
8
BLACK
6
CONTINUOUS
10
187.997
20
-133.234
11
188.24
21
-133.265
0
LINE
8
BLACK
6
CONTINUOUS
10
188.24
20
-133.265
11
188.485
21
-133.263
0
LINE
8
BLACK
6
CONTINUOUS
10
188.485
20
-133.263
11
188.727
21
-133.229
0
LINE
8
BLACK
6
CONTINUOUS
10
188.727
20
-133.229
11
188.963
21
-133.164
0
LINE
8
BLACK
6
CONTINUOUS
10
188.963
20
-133.164
11
189.189
21
-133.069
0
LINE
8
BLACK
6
CONTINUOUS
10
189.189
20
-133.069
11
189.4
21
-132.945
0
LINE
8
BLACK
6
CONTINUOUS
10
189.4
20
-132.945
11
189.593
21
-132.795
0
LINE
8
BLACK
6
CONTINUOUS
10
189.593
20
-132.795
11
189.764
21
-132.62
0
LINE
8
BLACK
6
CONTINUOUS
10
189.764
20
-132.62
11
189.907
21
-132.431
0
LINE
8
BLACK
6
CONTINUOUS
10
189.907
20
-132.431
11
189.908
21
-132.423
0
LINE
8
BLACK
6
CONTINUOUS
10
189.908
20
-132.423
11
189.909
21
-132.422
0
LINE
8
BLACK
6
CONTINUOUS
10
189.909
20
-132.422
11
189.91
21
-132.42
0
LINE
8
BLACK
6
CONTINUOUS
10
189.91
20
-132.42
11
202.394
21
-115.458
0
LINE
8
BLACK
6
CONTINUOUS
10
202.394
20
-115.458
11
202.394
21
-115.458
0
LINE
8
BLACK
6
CONTINUOUS
10
202.394
20
-115.458
11
202.394
21
-115.458
0
LINE
8
BLACK
6
CONTINUOUS
10
202.394
20
-115.458
11
202.402
21
-115.453
0
LINE
8
BLACK
6
CONTINUOUS
10
202.402
20
-115.453
11
202.523
21
-115.27
0
LINE
8
BLACK
6
CONTINUOUS
10
202.523
20
-115.27
11
202.622
21
-115.066
0
LINE
8
BLACK
6
CONTINUOUS
10
202.622
20
-115.066
11
202.695
21
-114.85
0
LINE
8
BLACK
6
CONTINUOUS
10
202.695
20
-114.85
11
202.739
21
-114.627
0
LINE
8
BLACK
6
CONTINUOUS
10
202.739
20
-114.627
11
202.753
21
-114.408
0
LINE
8
BLACK
6
CONTINUOUS
10
202.753
20
-114.408
11
202.75
21
-114.4
0
LINE
8
BLACK
6
CONTINUOUS
10
202.75
20
-114.4
11
202.75
21
-52.2
0
LINE
8
BLACK
6
CONTINUOUS
10
202.75
20
-52.2
11
202.754
21
-52.1908
0
LINE
8
BLACK
6
CONTINUOUS
10
202.754
20
-52.1908
11
202.737
21
-51.9503
0
LINE
8
BLACK
6
CONTINUOUS
10
202.737
20
-51.9503
11
202.683
21
-51.7057
0
LINE
8
BLACK
6
CONTINUOUS
10
202.683
20
-51.7057
11
202.596
21
-51.4712
0
LINE
8
BLACK
6
CONTINUOUS
10
202.596
20
-51.4712
11
202.476
21
-51.2515
0
LINE
8
BLACK
6
CONTINUOUS
10
202.476
20
-51.2515
11
202.326
21
-51.0511
0
LINE
8
BLACK
6
CONTINUOUS
10
202.326
20
-51.0511
11
202.149
21
-50.8741
0
LINE
8
BLACK
6
CONTINUOUS
10
202.149
20
-50.8741
11
201.949
21
-50.724
0
LINE
8
BLACK
6
CONTINUOUS
10
201.949
20
-50.724
11
201.729
21
-50.6041
0
LINE
8
BLACK
6
CONTINUOUS
10
201.729
20
-50.6041
11
201.494
21
-50.5166
0
LINE
8
BLACK
6
CONTINUOUS
10
201.494
20
-50.5166
11
201.25
21
-50.4634
0
LINE
8
BLACK
6
CONTINUOUS
10
201.25
20
-50.4634
11
201.009
21
-50.4462
0
LINE
8
BLACK
6
CONTINUOUS
10
201.009
20
-50.4462
11
201
21
-50.45
0
LINE
8
BLACK
6
CONTINUOUS
10
201
20
-50.45
11
158.9
21
-50.45
0
LINE
8
BLACK
6
CONTINUOUS
10
158.9
20
-50.45
11
158.631
21
-50.4325
0
LINE
8
BLACK
6
CONTINUOUS
10
158.631
20
-50.4325
11
158.366
21
-50.3803
0
LINE
8
BLACK
6
CONTINUOUS
10
158.366
20
-50.3803
11
158.11
21
-50.2942
0
LINE
8
BLACK
6
CONTINUOUS
10
158.11
20
-50.2942
11
157.867
21
-50.1758
0
LINE
8
BLACK
6
CONTINUOUS
10
157.867
20
-50.1758
11
157.642
21
-50.027
0
LINE
8
BLACK
6
CONTINUOUS
10
157.642
20
-50.027
11
157.438
21
-49.8502
0
LINE
8
BLACK
6
CONTINUOUS
10
157.438
20
-49.8502
11
157.259
21
-49.6486
0
LINE
8
BLACK
6
CONTINUOUS
10
157.259
20
-49.6486
11
157.107
21
-49.4254
0
LINE
8
BLACK
6
CONTINUOUS
10
157.107
20
-49.4254
11
157.107
21
-49.4254
0
LINE
8
BLACK
6
CONTINUOUS
10
157.107
20
-49.4254
11
157.107
21
-49.4247
0
LINE
8
BLACK
6
CONTINUOUS
10
157.107
20
-49.4247
11
157.106
21
-49.4243
0
LINE
8
BLACK
6
CONTINUOUS
10
157.106
20
-49.4243
11
157.105
21
-49.4148
0
LINE
8
BLACK
6
CONTINUOUS
10
157.105
20
-49.4148
11
156.973
21
-49.2104
0
LINE
8
BLACK
6
CONTINUOUS
10
156.973
20
-49.2104
11
156.809
21
-49.0185
0
LINE
8
BLACK
6
CONTINUOUS
10
156.809
20
-49.0185
11
156.621
21
-48.8501
0
LINE
8
BLACK
6
CONTINUOUS
10
156.621
20
-48.8501
11
156.413
21
-48.708
0
LINE
8
BLACK
6
CONTINUOUS
10
156.413
20
-48.708
11
156.187
21
-48.5948
0
LINE
8
BLACK
6
CONTINUOUS
10
156.187
20
-48.5948
11
155.949
21
-48.5125
0
LINE
8
BLACK
6
CONTINUOUS
10
155.949
20
-48.5125
11
155.702
21
-48.4625
0
LINE
8
BLACK
6
CONTINUOUS
10
155.702
20
-48.4625
11
155.459
21
-48.4463
0
LINE
8
BLACK
6
CONTINUOUS
10
155.459
20
-48.4463
11
155.45
21
-48.45
0
LINE
8
BLACK
6
CONTINUOUS
10
155.45
20
-48.45
11
141.15
21
-48.45
0
LINE
8
BLACK
6
CONTINUOUS
10
141.15
20
-48.45
11
140.882
21
-48.4325
0
LINE
8
BLACK
6
CONTINUOUS
10
140.882
20
-48.4325
11
140.619
21
-48.3802
0
LINE
8
BLACK
6
CONTINUOUS
10
140.619
20
-48.3802
11
140.365
21
-48.294
0
LINE
8
BLACK
6
CONTINUOUS
10
140.365
20
-48.294
11
140.125
21
-48.1754
0
LINE
8
BLACK
6
CONTINUOUS
10
140.125
20
-48.1754
11
139.902
21
-48.0264
0
LINE
8
BLACK
6
CONTINUOUS
10
139.902
20
-48.0264
11
139.7
21
-47.8496
0
LINE
8
BLACK
6
CONTINUOUS
10
139.7
20
-47.8496
11
139.524
21
-47.648
0
LINE
8
BLACK
6
CONTINUOUS
10
139.524
20
-47.648
11
139.375
21
-47.425
0
LINE
8
BLACK
6
CONTINUOUS
10
139.375
20
-47.425
11
139.256
21
-47.1845
0
LINE
8
BLACK
6
CONTINUOUS
10
139.256
20
-47.1845
11
139.17
21
-46.9306
0
LINE
8
BLACK
6
CONTINUOUS
10
139.17
20
-46.9306
11
139.117
21
-46.6676
0
LINE
8
BLACK
6
CONTINUOUS
10
139.117
20
-46.6676
11
139.1
21
-46.4
0
LINE
8
BLACK
6
CONTINUOUS
10
139.1
20
-46.4
11
139.1
21
-46.4
0
LINE
8
BLACK
6
CONTINUOUS
10
139.1
20
-46.4
11
139.1
21
-45.4
0
LINE
8
BLACK
6
CONTINUOUS
10
139.1
20
-45.4
11
139.104
21
-45.3913
0
LINE
8
BLACK
6
CONTINUOUS
10
139.104
20
-45.3913
11
139.087
21
-45.1449
0
LINE
8
BLACK
6
CONTINUOUS
10
139.087
20
-45.1449
11
139.037
21
-44.8942
0
LINE
8
BLACK
6
CONTINUOUS
10
139.037
20
-44.8942
11
138.955
21
-44.6522
0
LINE
8
BLACK
6
CONTINUOUS
10
138.955
20
-44.6522
11
138.842
21
-44.4229
0
LINE
8
BLACK
6
CONTINUOUS
10
138.842
20
-44.4229
11
138.7
21
-44.2104
0
LINE
8
BLACK
6
CONTINUOUS
10
138.7
20
-44.2104
11
138.532
21
-44.0182
0
LINE
8
BLACK
6
CONTINUOUS
10
138.532
20
-44.0182
11
138.34
21
-43.8496
0
LINE
8
BLACK
6
CONTINUOUS
10
138.34
20
-43.8496
11
138.127
21
-43.7076
0
LINE
8
BLACK
6
CONTINUOUS
10
138.127
20
-43.7076
11
137.898
21
-43.5946
0
LINE
8
BLACK
6
CONTINUOUS
10
137.898
20
-43.5946
11
137.656
21
-43.5124
0
LINE
8
BLACK
6
CONTINUOUS
10
137.656
20
-43.5124
11
137.405
21
-43.4625
0
LINE
8
BLACK
6
CONTINUOUS
10
137.405
20
-43.4625
11
137.159
21
-43.4464
0
LINE
8
BLACK
6
CONTINUOUS
10
137.159
20
-43.4464
11
137.15
21
-43.45
0
LINE
8
BLACK
6
CONTINUOUS
10
137.15
20
-43.45
11
121.15
21
-43.45
0
LINE
8
BLACK
6
CONTINUOUS
10
121.15
20
-43.45
11
121.141
21
-43.4464
0
LINE
8
BLACK
6
CONTINUOUS
10
82.8165
20
-97.4653
11
82.925
21
-97.5103
0
LINE
8
BLACK
6
CONTINUOUS
10
82.925
20
-97.5103
11
83.0182
21
-97.5818
0
LINE
8
BLACK
6
CONTINUOUS
10
83.0182
20
-97.5818
11
83.0897
21
-97.675
0
LINE
8
BLACK
6
CONTINUOUS
10
83.0897
20
-97.675
11
83.1347
21
-97.7835
0
LINE
8
BLACK
6
CONTINUOUS
10
83.1347
20
-97.7835
11
83.15
21
-97.9
0
LINE
8
BLACK
6
CONTINUOUS
10
83.15
20
-97.9
11
83.15
21
-105.3
0
LINE
8
BLACK
6
CONTINUOUS
10
83.15
20
-105.3
11
83.1347
21
-105.416
0
LINE
8
BLACK
6
CONTINUOUS
10
83.1347
20
-105.416
11
83.0897
21
-105.525
0
LINE
8
BLACK
6
CONTINUOUS
10
83.0897
20
-105.525
11
83.0182
21
-105.618
0
LINE
8
BLACK
6
CONTINUOUS
10
83.0182
20
-105.618
11
82.925
21
-105.69
0
LINE
8
BLACK
6
CONTINUOUS
10
82.925
20
-105.69
11
82.8165
21
-105.735
0
LINE
8
BLACK
6
CONTINUOUS
10
82.8165
20
-105.735
11
82.7
21
-105.75
0
LINE
8
BLACK
6
CONTINUOUS
10
82.7
20
-105.75
11
82.5835
21
-105.735
0
LINE
8
BLACK
6
CONTINUOUS
10
82.5835
20
-105.735
11
82.475
21
-105.69
0
LINE
8
BLACK
6
CONTINUOUS
10
82.475
20
-105.69
11
82.3818
21
-105.618
0
LINE
8
BLACK
6
CONTINUOUS
10
82.3818
20
-105.618
11
82.3103
21
-105.525
0
LINE
8
BLACK
6
CONTINUOUS
10
82.3103
20
-105.525
11
82.2653
21
-105.416
0
LINE
8
BLACK
6
CONTINUOUS
10
82.2653
20
-105.416
11
82.25
21
-105.3
0
LINE
8
BLACK
6
CONTINUOUS
10
82.25
20
-105.3
11
82.25
21
-97.9
0
LINE
8
BLACK
6
CONTINUOUS
10
82.25
20
-97.9
11
82.2653
21
-97.7835
0
LINE
8
BLACK
6
CONTINUOUS
10
82.2653
20
-97.7835
11
82.3103
21
-97.675
0
LINE
8
BLACK
6
CONTINUOUS
10
82.3103
20
-97.675
11
82.3818
21
-97.5818
0
LINE
8
BLACK
6
CONTINUOUS
10
82.3818
20
-97.5818
11
82.475
21
-97.5103
0
LINE
8
BLACK
6
CONTINUOUS
10
82.475
20
-97.5103
11
82.5835
21
-97.4653
0
LINE
8
BLACK
6
CONTINUOUS
10
82.5835
20
-97.4653
11
82.7
21
-97.45
0
LINE
8
BLACK
6
CONTINUOUS
10
82.7
20
-97.45
11
82.8165
21
-97.4653
0
LINE
8
BLACK
6
CONTINUOUS
10
82.5905
20
-97.563
11
82.4917
21
-97.6133
0
LINE
8
BLACK
6
CONTINUOUS
10
82.4917
20
-97.6133
11
82.4133
21
-97.6917
0
LINE
8
BLACK
6
CONTINUOUS
10
82.4133
20
-97.6917
11
82.363
21
-97.7905
0
LINE
8
BLACK
6
CONTINUOUS
10
82.363
20
-97.7905
11
82.3468
21
-97.8924
0
LINE
8
BLACK
6
CONTINUOUS
10
82.3468
20
-97.8924
11
82.35
21
-97.9
0
LINE
8
BLACK
6
CONTINUOUS
10
82.35
20
-97.9
11
82.35
21
-105.3
0
LINE
8
BLACK
6
CONTINUOUS
10
82.35
20
-105.3
11
82.3468
21
-105.308
0
LINE
8
BLACK
6
CONTINUOUS
10
82.3468
20
-105.308
11
82.363
21
-105.41
0
LINE
8
BLACK
6
CONTINUOUS
10
82.363
20
-105.41
11
82.4133
21
-105.508
0
LINE
8
BLACK
6
CONTINUOUS
10
82.4133
20
-105.508
11
82.4917
21
-105.587
0
LINE
8
BLACK
6
CONTINUOUS
10
82.4917
20
-105.587
11
82.5905
21
-105.637
0
LINE
8
BLACK
6
CONTINUOUS
10
82.5905
20
-105.637
11
82.7
21
-105.654
0
LINE
8
BLACK
6
CONTINUOUS
10
82.7
20
-105.654
11
82.8095
21
-105.637
0
LINE
8
BLACK
6
CONTINUOUS
10
82.8095
20
-105.637
11
82.9083
21
-105.587
0
LINE
8
BLACK
6
CONTINUOUS
10
82.9083
20
-105.587
11
82.9867
21
-105.508
0
LINE
8
BLACK
6
CONTINUOUS
10
82.9867
20
-105.508
11
83.037
21
-105.41
0
LINE
8
BLACK
6
CONTINUOUS
10
83.037
20
-105.41
11
83.0532
21
-105.308
0
LINE
8
BLACK
6
CONTINUOUS
10
83.0532
20
-105.308
11
83.05
21
-105.3
0
LINE
8
BLACK
6
CONTINUOUS
10
83.05
20
-105.3
11
83.05
21
-97.9
0
LINE
8
BLACK
6
CONTINUOUS
10
83.05
20
-97.9
11
83.0532
21
-97.8924
0
LINE
8
BLACK
6
CONTINUOUS
10
83.0532
20
-97.8924
11
83.037
21
-97.7905
0
LINE
8
BLACK
6
CONTINUOUS
10
83.037
20
-97.7905
11
82.9867
21
-97.6917
0
LINE
8
BLACK
6
CONTINUOUS
10
82.9867
20
-97.6917
11
82.9083
21
-97.6133
0
LINE
8
BLACK
6
CONTINUOUS
10
82.9083
20
-97.6133
11
82.8095
21
-97.563
0
LINE
8
BLACK
6
CONTINUOUS
10
82.8095
20
-97.563
11
82.7
21
-97.5456
0
LINE
8
BLACK
6
CONTINUOUS
10
82.7
20
-97.5456
11
82.5905
21
-97.563
0
LINE
8
BLACK
6
CONTINUOUS
10
82.8165
20
-80.4653
11
82.925
21
-80.5103
0
LINE
8
BLACK
6
CONTINUOUS
10
82.925
20
-80.5103
11
83.0182
21
-80.5818
0
LINE
8
BLACK
6
CONTINUOUS
10
83.0182
20
-80.5818
11
83.0897
21
-80.675
0
LINE
8
BLACK
6
CONTINUOUS
10
83.0897
20
-80.675
11
83.1347
21
-80.7835
0
LINE
8
BLACK
6
CONTINUOUS
10
83.1347
20
-80.7835
11
83.15
21
-80.9
0
LINE
8
BLACK
6
CONTINUOUS
10
83.15
20
-80.9
11
83.15
21
-93.1
0
LINE
8
BLACK
6
CONTINUOUS
10
83.15
20
-93.1
11
83.1347
21
-93.2165
0
LINE
8
BLACK
6
CONTINUOUS
10
83.1347
20
-93.2165
11
83.0897
21
-93.325
0
LINE
8
BLACK
6
CONTINUOUS
10
83.0897
20
-93.325
11
83.0182
21
-93.4182
0
LINE
8
BLACK
6
CONTINUOUS
10
83.0182
20
-93.4182
11
82.925
21
-93.4897
0
LINE
8
BLACK
6
CONTINUOUS
10
82.925
20
-93.4897
11
82.8165
21
-93.5347
0
LINE
8
BLACK
6
CONTINUOUS
10
82.8165
20
-93.5347
11
82.7
21
-93.55
0
LINE
8
BLACK
6
CONTINUOUS
10
82.7
20
-93.55
11
82.5835
21
-93.5347
0
LINE
8
BLACK
6
CONTINUOUS
10
82.5835
20
-93.5347
11
82.475
21
-93.4897
0
LINE
8
BLACK
6
CONTINUOUS
10
82.475
20
-93.4897
11
82.3818
21
-93.4182
0
LINE
8
BLACK
6
CONTINUOUS
10
82.3818
20
-93.4182
11
82.3103
21
-93.325
0
LINE
8
BLACK
6
CONTINUOUS
10
82.3103
20
-93.325
11
82.2653
21
-93.2165
0
LINE
8
BLACK
6
CONTINUOUS
10
82.2653
20
-93.2165
11
82.25
21
-93.1
0
LINE
8
BLACK
6
CONTINUOUS
10
82.25
20
-93.1
11
82.25
21
-80.9
0
LINE
8
BLACK
6
CONTINUOUS
10
82.25
20
-80.9
11
82.2653
21
-80.7835
0
LINE
8
BLACK
6
CONTINUOUS
10
82.2653
20
-80.7835
11
82.3103
21
-80.675
0
LINE
8
BLACK
6
CONTINUOUS
10
82.3103
20
-80.675
11
82.3818
21
-80.5818
0
LINE
8
BLACK
6
CONTINUOUS
10
82.3818
20
-80.5818
11
82.475
21
-80.5103
0
LINE
8
BLACK
6
CONTINUOUS
10
82.475
20
-80.5103
11
82.5835
21
-80.4653
0
LINE
8
BLACK
6
CONTINUOUS
10
82.5835
20
-80.4653
11
82.7
21
-80.45
0
LINE
8
BLACK
6
CONTINUOUS
10
82.7
20
-80.45
11
82.8165
21
-80.4653
0
LINE
8
BLACK
6
CONTINUOUS
10
82.5905
20
-80.563
11
82.4917
21
-80.6133
0
LINE
8
BLACK
6
CONTINUOUS
10
82.4917
20
-80.6133
11
82.4133
21
-80.6917
0
LINE
8
BLACK
6
CONTINUOUS
10
82.4133
20
-80.6917
11
82.363
21
-80.7905
0
LINE
8
BLACK
6
CONTINUOUS
10
82.363
20
-80.7905
11
82.3468
21
-80.8924
0
LINE
8
BLACK
6
CONTINUOUS
10
82.3468
20
-80.8924
11
82.35
21
-80.9
0
LINE
8
BLACK
6
CONTINUOUS
10
82.35
20
-80.9
11
82.35
21
-93.1
0
LINE
8
BLACK
6
CONTINUOUS
10
82.35
20
-93.1
11
82.3468
21
-93.1076
0
LINE
8
BLACK
6
CONTINUOUS
10
82.3468
20
-93.1076
11
82.363
21
-93.2095
0
LINE
8
BLACK
6
CONTINUOUS
10
82.363
20
-93.2095
11
82.4133
21
-93.3083
0
LINE
8
BLACK
6
CONTINUOUS
10
82.4133
20
-93.3083
11
82.4917
21
-93.3867
0
LINE
8
BLACK
6
CONTINUOUS
10
82.4917
20
-93.3867
11
82.5905
21
-93.437
0
LINE
8
BLACK
6
CONTINUOUS
10
82.5905
20
-93.437
11
82.7
21
-93.4544
0
LINE
8
BLACK
6
CONTINUOUS
10
82.7
20
-93.4544
11
82.8095
21
-93.437
0
LINE
8
BLACK
6
CONTINUOUS
10
82.8095
20
-93.437
11
82.9083
21
-93.3867
0
LINE
8
BLACK
6
CONTINUOUS
10
82.9083
20
-93.3867
11
82.9867
21
-93.3083
0
LINE
8
BLACK
6
CONTINUOUS
10
82.9867
20
-93.3083
11
83.037
21
-93.2095
0
LINE
8
BLACK
6
CONTINUOUS
10
83.037
20
-93.2095
11
83.0532
21
-93.1076
0
LINE
8
BLACK
6
CONTINUOUS
10
83.0532
20
-93.1076
11
83.05
21
-93.1
0
LINE
8
BLACK
6
CONTINUOUS
10
83.05
20
-93.1
11
83.05
21
-80.9
0
LINE
8
BLACK
6
CONTINUOUS
10
83.05
20
-80.9
11
83.0532
21
-80.8924
0
LINE
8
BLACK
6
CONTINUOUS
10
83.0532
20
-80.8924
11
83.037
21
-80.7905
0
LINE
8
BLACK
6
CONTINUOUS
10
83.037
20
-80.7905
11
82.9867
21
-80.6917
0
LINE
8
BLACK
6
CONTINUOUS
10
82.9867
20
-80.6917
11
82.9083
21
-80.6133
0
LINE
8
BLACK
6
CONTINUOUS
10
82.9083
20
-80.6133
11
82.8095
21
-80.563
0
LINE
8
BLACK
6
CONTINUOUS
10
82.8095
20
-80.563
11
82.7
21
-80.5456
0
LINE
8
BLACK
6
CONTINUOUS
10
82.7
20
-80.5456
11
82.5905
21
-80.563
0
LINE
8
BLACK
6
CONTINUOUS
10
82.8165
20
-68.2653
11
82.925
21
-68.3103
0
LINE
8
BLACK
6
CONTINUOUS
10
82.925
20
-68.3103
11
83.0182
21
-68.3818
0
LINE
8
BLACK
6
CONTINUOUS
10
83.0182
20
-68.3818
11
83.0897
21
-68.475
0
LINE
8
BLACK
6
CONTINUOUS
10
83.0897
20
-68.475
11
83.1347
21
-68.5835
0
LINE
8
BLACK
6
CONTINUOUS
10
83.1347
20
-68.5835
11
83.15
21
-68.7
0
LINE
8
BLACK
6
CONTINUOUS
10
83.15
20
-68.7
11
83.15
21
-76.1
0
LINE
8
BLACK
6
CONTINUOUS
10
83.15
20
-76.1
11
83.1347
21
-76.2165
0
LINE
8
BLACK
6
CONTINUOUS
10
83.1347
20
-76.2165
11
83.0897
21
-76.325
0
LINE
8
BLACK
6
CONTINUOUS
10
83.0897
20
-76.325
11
83.0182
21
-76.4182
0
LINE
8
BLACK
6
CONTINUOUS
10
83.0182
20
-76.4182
11
82.925
21
-76.4897
0
LINE
8
BLACK
6
CONTINUOUS
10
82.925
20
-76.4897
11
82.8165
21
-76.5347
0
LINE
8
BLACK
6
CONTINUOUS
10
82.8165
20
-76.5347
11
82.7
21
-76.55
0
LINE
8
BLACK
6
CONTINUOUS
10
82.7
20
-76.55
11
82.5835
21
-76.5347
0
LINE
8
BLACK
6
CONTINUOUS
10
82.5835
20
-76.5347
11
82.475
21
-76.4897
0
LINE
8
BLACK
6
CONTINUOUS
10
82.475
20
-76.4897
11
82.3818
21
-76.4182
0
LINE
8
BLACK
6
CONTINUOUS
10
82.3818
20
-76.4182
11
82.3103
21
-76.325
0
LINE
8
BLACK
6
CONTINUOUS
10
82.3103
20
-76.325
11
82.2653
21
-76.2165
0
LINE
8
BLACK
6
CONTINUOUS
10
82.2653
20
-76.2165
11
82.25
21
-76.1
0
LINE
8
BLACK
6
CONTINUOUS
10
82.25
20
-76.1
11
82.25
21
-68.7
0
LINE
8
BLACK
6
CONTINUOUS
10
82.25
20
-68.7
11
82.2653
21
-68.5835
0
LINE
8
BLACK
6
CONTINUOUS
10
82.2653
20
-68.5835
11
82.3103
21
-68.475
0
LINE
8
BLACK
6
CONTINUOUS
10
82.3103
20
-68.475
11
82.3818
21
-68.3818
0
LINE
8
BLACK
6
CONTINUOUS
10
82.3818
20
-68.3818
11
82.475
21
-68.3103
0
LINE
8
BLACK
6
CONTINUOUS
10
82.475
20
-68.3103
11
82.5835
21
-68.2653
0
LINE
8
BLACK
6
CONTINUOUS
10
82.5835
20
-68.2653
11
82.7
21
-68.25
0
LINE
8
BLACK
6
CONTINUOUS
10
82.7
20
-68.25
11
82.8165
21
-68.2653
0
LINE
8
BLACK
6
CONTINUOUS
10
82.5905
20
-68.363
11
82.4917
21
-68.4133
0
LINE
8
BLACK
6
CONTINUOUS
10
82.4917
20
-68.4133
11
82.4133
21
-68.4917
0
LINE
8
BLACK
6
CONTINUOUS
10
82.4133
20
-68.4917
11
82.363
21
-68.5905
0
LINE
8
BLACK
6
CONTINUOUS
10
82.363
20
-68.5905
11
82.3468
21
-68.6924
0
LINE
8
BLACK
6
CONTINUOUS
10
82.3468
20
-68.6924
11
82.35
21
-68.7
0
LINE
8
BLACK
6
CONTINUOUS
10
82.35
20
-68.7
11
82.35
21
-76.1
0
LINE
8
BLACK
6
CONTINUOUS
10
82.35
20
-76.1
11
82.3468
21
-76.1076
0
LINE
8
BLACK
6
CONTINUOUS
10
82.3468
20
-76.1076
11
82.363
21
-76.2095
0
LINE
8
BLACK
6
CONTINUOUS
10
82.363
20
-76.2095
11
82.4133
21
-76.3083
0
LINE
8
BLACK
6
CONTINUOUS
10
82.4133
20
-76.3083
11
82.4917
21
-76.3867
0
LINE
8
BLACK
6
CONTINUOUS
10
82.4917
20
-76.3867
11
82.5905
21
-76.437
0
LINE
8
BLACK
6
CONTINUOUS
10
82.5905
20
-76.437
11
82.7
21
-76.4544
0
LINE
8
BLACK
6
CONTINUOUS
10
82.7
20
-76.4544
11
82.8095
21
-76.437
0
LINE
8
BLACK
6
CONTINUOUS
10
82.8095
20
-76.437
11
82.9083
21
-76.3867
0
LINE
8
BLACK
6
CONTINUOUS
10
82.9083
20
-76.3867
11
82.9867
21
-76.3083
0
LINE
8
BLACK
6
CONTINUOUS
10
82.9867
20
-76.3083
11
83.037
21
-76.2095
0
LINE
8
BLACK
6
CONTINUOUS
10
83.037
20
-76.2095
11
83.0532
21
-76.1076
0
LINE
8
BLACK
6
CONTINUOUS
10
83.0532
20
-76.1076
11
83.05
21
-76.1
0
LINE
8
BLACK
6
CONTINUOUS
10
83.05
20
-76.1
11
83.05
21
-68.7
0
LINE
8
BLACK
6
CONTINUOUS
10
83.05
20
-68.7
11
83.0532
21
-68.6924
0
LINE
8
BLACK
6
CONTINUOUS
10
83.0532
20
-68.6924
11
83.037
21
-68.5905
0
LINE
8
BLACK
6
CONTINUOUS
10
83.037
20
-68.5905
11
82.9867
21
-68.4917
0
LINE
8
BLACK
6
CONTINUOUS
10
82.9867
20
-68.4917
11
82.9083
21
-68.4133
0
LINE
8
BLACK
6
CONTINUOUS
10
82.9083
20
-68.4133
11
82.8095
21
-68.363
0
LINE
8
BLACK
6
CONTINUOUS
10
82.8095
20
-68.363
11
82.7
21
-68.3456
0
LINE
8
BLACK
6
CONTINUOUS
10
82.7
20
-68.3456
11
82.5905
21
-68.363
  0
ENDSEC
  0
EOF
