  0
SECTION
  2
HEADER
  9
$ANGBASE
  50
0.0
  9
$ANGDIR
  70
1
  9
$MEASUREMENT
  70
1
  0
ENDSEC
  0
SECTION
  2
TABLES
  0
TABLE
  2
LTYPE
  70
4
  0
LTYPE
  5
40F
  2
CONTINUOUS
  70
0
  3
Solid line
  72
65
  73
0
  40
0.0
  0
LTYPE
  5
410
  2
DASHDOT
 70
0
  3
Dash Dot ____ _ ____ _
 72
65
 73
4
 40
2.0
 49
1.25
 49
-0.25
 49
0.25
 49
-0.25
  0
LTYPE
  5
411
  2
DASHED
 70
0
  3
Dashed __ __ __ __ __
 72
65
 73
2
 40
0.75
 49
0.5
 49
-0.25
  0
LTYPE
  5
43B
  2
DOTTED
 70
0
  3
Dotted .  .  .  .
 72
65
 73
2
 40
0.2
 49
0.0
 49
-0.2
  0
ENDTAB
  0
TABLE
  2
STYLE
  70
4
  0
STYLE
  2
KICAD
  70
0
  40
0
  41
1
  42
1
  50
0
  71
0
  3
isocp.shx
  0
STYLE
  2
KICADB
  70
0
  40
0
  41
1
  42
1
  50
0
  71
0
  3
isocp.shx
  0
STYLE
  2
KICADI
  70
0
  40
0
  41
1
  42
1
  50
15
  71
0
  3
isocp.shx
  0
STYLE
  2
KICADBI
  70
0
  40
0
  41
1
  42
1
  50
15
  71
0
  3
isocp.shx
  0
ENDTAB
  0
TABLE
  2
LAYER
  70
1
  0
LAYER
  2
BLACK
  70
0
  62
7
  6
CONTINUOUS
  0
ENDTAB
  0
ENDSEC
  0
SECTION
  2
ENTITIES
0
LINE
8
BLACK
6
CONTINUOUS
10
180.675
20
-113.761
11
180.694
21
-113.762
0
LINE
8
BLACK
6
CONTINUOUS
10
180.694
20
-113.762
11
193.201
21
-119.595
0
LINE
8
BLACK
6
CONTINUOUS
10
193.201
20
-119.595
11
193.209
21
-119.6
0
LINE
8
BLACK
6
CONTINUOUS
10
193.209
20
-119.6
11
193.213
21
-119.601
0
LINE
8
BLACK
6
CONTINUOUS
10
193.213
20
-119.601
11
193.215
21
-119.604
0
LINE
8
BLACK
6
CONTINUOUS
10
193.215
20
-119.604
11
193.223
21
-119.61
0
LINE
8
BLACK
6
CONTINUOUS
10
193.223
20
-119.61
11
193.231
21
-119.627
0
LINE
8
BLACK
6
CONTINUOUS
10
193.231
20
-119.627
11
193.242
21
-119.643
0
LINE
8
BLACK
6
CONTINUOUS
10
193.242
20
-119.643
11
193.241
21
-119.65
0
LINE
8
BLACK
6
CONTINUOUS
10
193.241
20
-119.65
11
193.244
21
-119.656
0
LINE
8
BLACK
6
CONTINUOUS
10
193.244
20
-119.656
11
193.239
21
-119.675
0
LINE
8
BLACK
6
CONTINUOUS
10
193.239
20
-119.675
11
193.238
21
-119.694
0
LINE
8
BLACK
6
CONTINUOUS
10
193.238
20
-119.694
11
187.405
21
-132.201
0
LINE
8
BLACK
6
CONTINUOUS
10
187.405
20
-132.201
11
187.4
21
-132.209
0
LINE
8
BLACK
6
CONTINUOUS
10
187.4
20
-132.209
11
187.399
21
-132.213
0
LINE
8
BLACK
6
CONTINUOUS
10
187.399
20
-132.213
11
187.396
21
-132.215
0
LINE
8
BLACK
6
CONTINUOUS
10
187.396
20
-132.215
11
187.39
21
-132.223
0
LINE
8
BLACK
6
CONTINUOUS
10
187.39
20
-132.223
11
187.373
21
-132.231
0
LINE
8
BLACK
6
CONTINUOUS
10
187.373
20
-132.231
11
187.357
21
-132.242
0
LINE
8
BLACK
6
CONTINUOUS
10
187.357
20
-132.242
11
187.35
21
-132.241
0
LINE
8
BLACK
6
CONTINUOUS
10
187.35
20
-132.241
11
187.344
21
-132.244
0
LINE
8
BLACK
6
CONTINUOUS
10
187.344
20
-132.244
11
187.325
21
-132.239
0
LINE
8
BLACK
6
CONTINUOUS
10
187.325
20
-132.239
11
187.306
21
-132.238
0
LINE
8
BLACK
6
CONTINUOUS
10
187.306
20
-132.238
11
174.799
21
-126.405
0
LINE
8
BLACK
6
CONTINUOUS
10
174.799
20
-126.405
11
174.791
21
-126.4
0
LINE
8
BLACK
6
CONTINUOUS
10
174.791
20
-126.4
11
174.787
21
-126.399
0
LINE
8
BLACK
6
CONTINUOUS
10
174.787
20
-126.399
11
174.785
21
-126.396
0
LINE
8
BLACK
6
CONTINUOUS
10
174.785
20
-126.396
11
174.777
21
-126.39
0
LINE
8
BLACK
6
CONTINUOUS
10
174.777
20
-126.39
11
174.769
21
-126.373
0
LINE
8
BLACK
6
CONTINUOUS
10
174.769
20
-126.373
11
174.758
21
-126.357
0
LINE
8
BLACK
6
CONTINUOUS
10
174.758
20
-126.357
11
174.759
21
-126.35
0
LINE
8
BLACK
6
CONTINUOUS
10
174.759
20
-126.35
11
174.756
21
-126.344
0
LINE
8
BLACK
6
CONTINUOUS
10
174.756
20
-126.344
11
174.761
21
-126.325
0
LINE
8
BLACK
6
CONTINUOUS
10
174.761
20
-126.325
11
174.762
21
-126.306
0
LINE
8
BLACK
6
CONTINUOUS
10
174.762
20
-126.306
11
180.595
21
-113.799
0
LINE
8
BLACK
6
CONTINUOUS
10
180.595
20
-113.799
11
180.6
21
-113.791
0
LINE
8
BLACK
6
CONTINUOUS
10
180.6
20
-113.791
11
180.601
21
-113.787
0
LINE
8
BLACK
6
CONTINUOUS
10
180.601
20
-113.787
11
180.604
21
-113.785
0
LINE
8
BLACK
6
CONTINUOUS
10
180.604
20
-113.785
11
180.61
21
-113.777
0
LINE
8
BLACK
6
CONTINUOUS
10
180.61
20
-113.777
11
180.627
21
-113.769
0
LINE
8
BLACK
6
CONTINUOUS
10
180.627
20
-113.769
11
180.643
21
-113.758
0
LINE
8
BLACK
6
CONTINUOUS
10
180.643
20
-113.758
11
180.65
21
-113.759
0
LINE
8
BLACK
6
CONTINUOUS
10
180.65
20
-113.759
11
180.656
21
-113.756
0
LINE
8
BLACK
6
CONTINUOUS
10
180.656
20
-113.756
11
180.675
21
-113.761
0
LINE
8
BLACK
6
CONTINUOUS
10
174.93
20
-126.301
11
187.301
21
-132.07
0
LINE
8
BLACK
6
CONTINUOUS
10
187.301
20
-132.07
11
193.07
21
-119.699
0
LINE
8
BLACK
6
CONTINUOUS
10
193.07
20
-119.699
11
180.699
21
-113.93
0
LINE
8
BLACK
6
CONTINUOUS
10
180.699
20
-113.93
11
174.93
21
-126.301
0
LINE
8
BLACK
6
CONTINUOUS
10
171.006
20
-110.329
11
171.016
21
-110.333
0
LINE
8
BLACK
6
CONTINUOUS
10
171.016
20
-110.333
11
171.019
21
-110.333
0
LINE
8
BLACK
6
CONTINUOUS
10
171.019
20
-110.333
11
171.022
21
-110.335
0
LINE
8
BLACK
6
CONTINUOUS
10
171.022
20
-110.335
11
171.031
21
-110.338
0
LINE
8
BLACK
6
CONTINUOUS
10
171.031
20
-110.338
11
171.043
21
-110.353
0
LINE
8
BLACK
6
CONTINUOUS
10
171.043
20
-110.353
11
171.058
21
-110.365
0
LINE
8
BLACK
6
CONTINUOUS
10
171.058
20
-110.365
11
171.059
21
-110.372
0
LINE
8
BLACK
6
CONTINUOUS
10
171.059
20
-110.372
11
171.064
21
-110.377
0
LINE
8
BLACK
6
CONTINUOUS
10
171.064
20
-110.377
11
171.064
21
-110.397
0
LINE
8
BLACK
6
CONTINUOUS
10
171.064
20
-110.397
11
171.067
21
-110.416
0
LINE
8
BLACK
6
CONTINUOUS
10
171.067
20
-110.416
11
168.671
21
-124.006
0
LINE
8
BLACK
6
CONTINUOUS
10
168.671
20
-124.006
11
168.667
21
-124.016
0
LINE
8
BLACK
6
CONTINUOUS
10
168.667
20
-124.016
11
168.667
21
-124.019
0
LINE
8
BLACK
6
CONTINUOUS
10
168.667
20
-124.019
11
168.665
21
-124.022
0
LINE
8
BLACK
6
CONTINUOUS
10
168.665
20
-124.022
11
168.662
21
-124.031
0
LINE
8
BLACK
6
CONTINUOUS
10
168.662
20
-124.031
11
168.647
21
-124.043
0
LINE
8
BLACK
6
CONTINUOUS
10
168.647
20
-124.043
11
168.635
21
-124.058
0
LINE
8
BLACK
6
CONTINUOUS
10
168.635
20
-124.058
11
168.628
21
-124.059
0
LINE
8
BLACK
6
CONTINUOUS
10
168.628
20
-124.059
11
168.623
21
-124.064
0
LINE
8
BLACK
6
CONTINUOUS
10
168.623
20
-124.064
11
168.603
21
-124.064
0
LINE
8
BLACK
6
CONTINUOUS
10
168.603
20
-124.064
11
168.584
21
-124.067
0
LINE
8
BLACK
6
CONTINUOUS
10
168.584
20
-124.067
11
154.994
21
-121.671
0
LINE
8
BLACK
6
CONTINUOUS
10
154.994
20
-121.671
11
154.984
21
-121.667
0
LINE
8
BLACK
6
CONTINUOUS
10
154.984
20
-121.667
11
154.981
21
-121.667
0
LINE
8
BLACK
6
CONTINUOUS
10
154.981
20
-121.667
11
154.978
21
-121.665
0
LINE
8
BLACK
6
CONTINUOUS
10
154.978
20
-121.665
11
154.969
21
-121.662
0
LINE
8
BLACK
6
CONTINUOUS
10
154.969
20
-121.662
11
154.957
21
-121.647
0
LINE
8
BLACK
6
CONTINUOUS
10
154.957
20
-121.647
11
154.942
21
-121.635
0
LINE
8
BLACK
6
CONTINUOUS
10
154.942
20
-121.635
11
154.941
21
-121.628
0
LINE
8
BLACK
6
CONTINUOUS
10
154.941
20
-121.628
11
154.936
21
-121.623
0
LINE
8
BLACK
6
CONTINUOUS
10
154.936
20
-121.623
11
154.936
21
-121.603
0
LINE
8
BLACK
6
CONTINUOUS
10
154.936
20
-121.603
11
154.933
21
-121.584
0
LINE
8
BLACK
6
CONTINUOUS
10
154.933
20
-121.584
11
157.329
21
-107.994
0
LINE
8
BLACK
6
CONTINUOUS
10
157.329
20
-107.994
11
157.333
21
-107.984
0
LINE
8
BLACK
6
CONTINUOUS
10
157.333
20
-107.984
11
157.333
21
-107.981
0
LINE
8
BLACK
6
CONTINUOUS
10
157.333
20
-107.981
11
157.335
21
-107.978
0
LINE
8
BLACK
6
CONTINUOUS
10
157.335
20
-107.978
11
157.338
21
-107.969
0
LINE
8
BLACK
6
CONTINUOUS
10
157.338
20
-107.969
11
157.353
21
-107.957
0
LINE
8
BLACK
6
CONTINUOUS
10
157.353
20
-107.957
11
157.365
21
-107.942
0
LINE
8
BLACK
6
CONTINUOUS
10
157.365
20
-107.942
11
157.372
21
-107.941
0
LINE
8
BLACK
6
CONTINUOUS
10
157.372
20
-107.941
11
157.377
21
-107.936
0
LINE
8
BLACK
6
CONTINUOUS
10
157.377
20
-107.936
11
157.397
21
-107.936
0
LINE
8
BLACK
6
CONTINUOUS
10
157.397
20
-107.936
11
157.416
21
-107.933
0
LINE
8
BLACK
6
CONTINUOUS
10
157.416
20
-107.933
11
171.006
21
-110.329
0
LINE
8
BLACK
6
CONTINUOUS
10
155.094
20
-121.536
11
168.536
21
-123.906
0
LINE
8
BLACK
6
CONTINUOUS
10
168.536
20
-123.906
11
170.906
21
-110.464
0
LINE
8
BLACK
6
CONTINUOUS
10
170.906
20
-110.464
11
157.464
21
-108.094
0
LINE
8
BLACK
6
CONTINUOUS
10
157.464
20
-108.094
11
155.094
21
-121.536
0
LINE
8
BLACK
6
CONTINUOUS
10
147.282
20
-107.452
11
147.292
21
-107.452
0
LINE
8
BLACK
6
CONTINUOUS
10
147.292
20
-107.452
11
147.308
21
-107.464
0
LINE
8
BLACK
6
CONTINUOUS
10
147.308
20
-107.464
11
147.325
21
-107.472
0
LINE
8
BLACK
6
CONTINUOUS
10
147.325
20
-107.472
11
147.328
21
-107.478
0
LINE
8
BLACK
6
CONTINUOUS
10
147.328
20
-107.478
11
147.334
21
-107.482
0
LINE
8
BLACK
6
CONTINUOUS
10
147.334
20
-107.482
11
147.339
21
-107.501
0
LINE
8
BLACK
6
CONTINUOUS
10
147.339
20
-107.501
11
147.347
21
-107.518
0
LINE
8
BLACK
6
CONTINUOUS
10
147.347
20
-107.518
11
148.55
21
-121.266
0
LINE
8
BLACK
6
CONTINUOUS
10
148.55
20
-121.266
11
148.549
21
-121.276
0
LINE
8
BLACK
6
CONTINUOUS
10
148.549
20
-121.276
11
148.55
21
-121.279
0
LINE
8
BLACK
6
CONTINUOUS
10
148.55
20
-121.279
11
148.548
21
-121.282
0
LINE
8
BLACK
6
CONTINUOUS
10
148.548
20
-121.282
11
148.548
21
-121.292
0
LINE
8
BLACK
6
CONTINUOUS
10
148.548
20
-121.292
11
148.536
21
-121.308
0
LINE
8
BLACK
6
CONTINUOUS
10
148.536
20
-121.308
11
148.528
21
-121.325
0
LINE
8
BLACK
6
CONTINUOUS
10
148.528
20
-121.325
11
148.522
21
-121.328
0
LINE
8
BLACK
6
CONTINUOUS
10
148.522
20
-121.328
11
148.518
21
-121.334
0
LINE
8
BLACK
6
CONTINUOUS
10
148.518
20
-121.334
11
148.499
21
-121.339
0
LINE
8
BLACK
6
CONTINUOUS
10
148.499
20
-121.339
11
148.482
21
-121.347
0
LINE
8
BLACK
6
CONTINUOUS
10
148.482
20
-121.347
11
134.734
21
-122.55
0
LINE
8
BLACK
6
CONTINUOUS
10
134.734
20
-122.55
11
134.724
21
-122.549
0
LINE
8
BLACK
6
CONTINUOUS
10
134.724
20
-122.549
11
134.721
21
-122.55
0
LINE
8
BLACK
6
CONTINUOUS
10
134.721
20
-122.55
11
134.718
21
-122.548
0
LINE
8
BLACK
6
CONTINUOUS
10
134.718
20
-122.548
11
134.708
21
-122.548
0
LINE
8
BLACK
6
CONTINUOUS
10
134.708
20
-122.548
11
134.692
21
-122.536
0
LINE
8
BLACK
6
CONTINUOUS
10
134.692
20
-122.536
11
134.675
21
-122.528
0
LINE
8
BLACK
6
CONTINUOUS
10
134.675
20
-122.528
11
134.672
21
-122.522
0
LINE
8
BLACK
6
CONTINUOUS
10
134.672
20
-122.522
11
134.666
21
-122.518
0
LINE
8
BLACK
6
CONTINUOUS
10
134.666
20
-122.518
11
134.661
21
-122.499
0
LINE
8
BLACK
6
CONTINUOUS
10
134.661
20
-122.499
11
134.653
21
-122.482
0
LINE
8
BLACK
6
CONTINUOUS
10
134.653
20
-122.482
11
133.45
21
-108.734
0
LINE
8
BLACK
6
CONTINUOUS
10
133.45
20
-108.734
11
133.451
21
-108.724
0
LINE
8
BLACK
6
CONTINUOUS
10
133.451
20
-108.724
11
133.45
21
-108.721
0
LINE
8
BLACK
6
CONTINUOUS
10
133.45
20
-108.721
11
133.452
21
-108.718
0
LINE
8
BLACK
6
CONTINUOUS
10
133.452
20
-108.718
11
133.452
21
-108.708
0
LINE
8
BLACK
6
CONTINUOUS
10
133.452
20
-108.708
11
133.464
21
-108.692
0
LINE
8
BLACK
6
CONTINUOUS
10
133.464
20
-108.692
11
133.472
21
-108.675
0
LINE
8
BLACK
6
CONTINUOUS
10
133.472
20
-108.675
11
133.478
21
-108.672
0
LINE
8
BLACK
6
CONTINUOUS
10
133.478
20
-108.672
11
133.482
21
-108.666
0
LINE
8
BLACK
6
CONTINUOUS
10
133.482
20
-108.666
11
133.501
21
-108.661
0
LINE
8
BLACK
6
CONTINUOUS
10
133.501
20
-108.661
11
133.518
21
-108.653
0
LINE
8
BLACK
6
CONTINUOUS
10
133.518
20
-108.653
11
147.266
21
-107.45
0
LINE
8
BLACK
6
CONTINUOUS
10
147.266
20
-107.45
11
147.276
21
-107.451
0
LINE
8
BLACK
6
CONTINUOUS
10
147.276
20
-107.451
11
147.279
21
-107.45
0
LINE
8
BLACK
6
CONTINUOUS
10
147.279
20
-107.45
11
147.282
21
-107.452
0
LINE
8
BLACK
6
CONTINUOUS
10
133.606
20
-108.796
11
134.796
21
-122.394
0
LINE
8
BLACK
6
CONTINUOUS
10
134.796
20
-122.394
11
148.394
21
-121.204
0
LINE
8
BLACK
6
CONTINUOUS
10
148.394
20
-121.204
11
147.204
21
-107.606
0
LINE
8
BLACK
6
CONTINUOUS
10
147.204
20
-107.606
11
133.606
21
-108.796
0
LINE
8
BLACK
6
CONTINUOUS
10
98.8597
20
-99.3347
11
98.863
21
-99.3341
0
LINE
8
BLACK
6
CONTINUOUS
10
98.863
20
-99.3341
11
98.8659
21
-99.3358
0
LINE
8
BLACK
6
CONTINUOUS
10
98.8659
20
-99.3358
11
98.8757
21
-99.3375
0
LINE
8
BLACK
6
CONTINUOUS
10
98.8757
20
-99.3375
11
98.8906
21
-99.35
0
LINE
8
BLACK
6
CONTINUOUS
10
98.8906
20
-99.35
11
98.9075
21
-99.3598
0
LINE
8
BLACK
6
CONTINUOUS
10
98.9075
20
-99.3598
11
98.9098
21
-99.3661
0
LINE
8
BLACK
6
CONTINUOUS
10
98.9098
20
-99.3661
11
98.915
21
-99.3705
0
LINE
8
BLACK
6
CONTINUOUS
10
98.915
20
-99.3705
11
98.9183
21
-99.3897
0
LINE
8
BLACK
6
CONTINUOUS
10
98.9183
20
-99.3897
11
98.925
21
-99.408
0
LINE
8
BLACK
6
CONTINUOUS
10
98.925
20
-99.408
11
98.925
21
-113.208
0
LINE
8
BLACK
6
CONTINUOUS
10
98.925
20
-113.208
11
98.9233
21
-113.218
0
LINE
8
BLACK
6
CONTINUOUS
10
98.9233
20
-113.218
11
98.9239
21
-113.221
0
LINE
8
BLACK
6
CONTINUOUS
10
98.9239
20
-113.221
11
98.9222
21
-113.224
0
LINE
8
BLACK
6
CONTINUOUS
10
98.9222
20
-113.224
11
98.9205
21
-113.234
0
LINE
8
BLACK
6
CONTINUOUS
10
98.9205
20
-113.234
11
98.908
21
-113.249
0
LINE
8
BLACK
6
CONTINUOUS
10
98.908
20
-113.249
11
98.8982
21
-113.265
0
LINE
8
BLACK
6
CONTINUOUS
10
98.8982
20
-113.265
11
98.8918
21
-113.268
0
LINE
8
BLACK
6
CONTINUOUS
10
98.8918
20
-113.268
11
98.8875
21
-113.273
0
LINE
8
BLACK
6
CONTINUOUS
10
98.8875
20
-113.273
11
98.8683
21
-113.276
0
LINE
8
BLACK
6
CONTINUOUS
10
98.8683
20
-113.276
11
98.85
21
-113.283
0
LINE
8
BLACK
6
CONTINUOUS
10
98.85
20
-113.283
11
85.05
21
-113.283
0
LINE
8
BLACK
6
CONTINUOUS
10
85.05
20
-113.283
11
85.0403
21
-113.281
0
LINE
8
BLACK
6
CONTINUOUS
10
85.0403
20
-113.281
11
85.037
21
-113.282
0
LINE
8
BLACK
6
CONTINUOUS
10
85.037
20
-113.282
11
85.0341
21
-113.28
0
LINE
8
BLACK
6
CONTINUOUS
10
85.0341
20
-113.28
11
85.0243
21
-113.278
0
LINE
8
BLACK
6
CONTINUOUS
10
85.0243
20
-113.278
11
85.0094
21
-113.266
0
LINE
8
BLACK
6
CONTINUOUS
10
85.0094
20
-113.266
11
84.9925
21
-113.256
0
LINE
8
BLACK
6
CONTINUOUS
10
84.9925
20
-113.256
11
84.9902
21
-113.25
0
LINE
8
BLACK
6
CONTINUOUS
10
84.9902
20
-113.25
11
84.985
21
-113.245
0
LINE
8
BLACK
6
CONTINUOUS
10
84.985
20
-113.245
11
84.9817
21
-113.226
0
LINE
8
BLACK
6
CONTINUOUS
10
84.9817
20
-113.226
11
84.975
21
-113.208
0
LINE
8
BLACK
6
CONTINUOUS
10
84.975
20
-113.208
11
84.975
21
-99.408
0
LINE
8
BLACK
6
CONTINUOUS
10
84.975
20
-99.408
11
84.9767
21
-99.3983
0
LINE
8
BLACK
6
CONTINUOUS
10
84.9767
20
-99.3983
11
84.9761
21
-99.395
0
LINE
8
BLACK
6
CONTINUOUS
10
84.9761
20
-99.395
11
84.9778
21
-99.3921
0
LINE
8
BLACK
6
CONTINUOUS
10
84.9778
20
-99.3921
11
84.9795
21
-99.3823
0
LINE
8
BLACK
6
CONTINUOUS
10
84.9795
20
-99.3823
11
84.992
21
-99.3674
0
LINE
8
BLACK
6
CONTINUOUS
10
84.992
20
-99.3674
11
85.0018
21
-99.3505
0
LINE
8
BLACK
6
CONTINUOUS
10
85.0018
20
-99.3505
11
85.0082
21
-99.3482
0
LINE
8
BLACK
6
CONTINUOUS
10
85.0082
20
-99.3482
11
85.0125
21
-99.343
0
LINE
8
BLACK
6
CONTINUOUS
10
85.0125
20
-99.343
11
85.0317
21
-99.3397
0
LINE
8
BLACK
6
CONTINUOUS
10
85.0317
20
-99.3397
11
85.05
21
-99.333
0
LINE
8
BLACK
6
CONTINUOUS
10
85.05
20
-99.333
11
98.85
21
-99.333
0
LINE
8
BLACK
6
CONTINUOUS
10
98.85
20
-99.333
11
98.8597
21
-99.3347
0
LINE
8
BLACK
6
CONTINUOUS
10
85.125
20
-99.483
11
85.125
21
-113.133
0
LINE
8
BLACK
6
CONTINUOUS
10
85.125
20
-113.133
11
98.775
21
-113.133
0
LINE
8
BLACK
6
CONTINUOUS
10
98.775
20
-113.133
11
98.775
21
-99.483
0
LINE
8
BLACK
6
CONTINUOUS
10
98.775
20
-99.483
11
85.125
21
-99.483
0
LINE
8
BLACK
6
CONTINUOUS
10
79.8097
20
-99.3347
11
79.813
21
-99.3341
0
LINE
8
BLACK
6
CONTINUOUS
10
79.813
20
-99.3341
11
79.8159
21
-99.3358
0
LINE
8
BLACK
6
CONTINUOUS
10
79.8159
20
-99.3358
11
79.8257
21
-99.3375
0
LINE
8
BLACK
6
CONTINUOUS
10
79.8257
20
-99.3375
11
79.8406
21
-99.35
0
LINE
8
BLACK
6
CONTINUOUS
10
79.8406
20
-99.35
11
79.8575
21
-99.3598
0
LINE
8
BLACK
6
CONTINUOUS
10
79.8575
20
-99.3598
11
79.8598
21
-99.3661
0
LINE
8
BLACK
6
CONTINUOUS
10
79.8598
20
-99.3661
11
79.865
21
-99.3705
0
LINE
8
BLACK
6
CONTINUOUS
10
79.865
20
-99.3705
11
79.8683
21
-99.3897
0
LINE
8
BLACK
6
CONTINUOUS
10
79.8683
20
-99.3897
11
79.875
21
-99.408
0
LINE
8
BLACK
6
CONTINUOUS
10
79.875
20
-99.408
11
79.875
21
-113.208
0
LINE
8
BLACK
6
CONTINUOUS
10
79.875
20
-113.208
11
79.8733
21
-113.218
0
LINE
8
BLACK
6
CONTINUOUS
10
79.8733
20
-113.218
11
79.8739
21
-113.221
0
LINE
8
BLACK
6
CONTINUOUS
10
79.8739
20
-113.221
11
79.8722
21
-113.224
0
LINE
8
BLACK
6
CONTINUOUS
10
79.8722
20
-113.224
11
79.8705
21
-113.234
0
LINE
8
BLACK
6
CONTINUOUS
10
79.8705
20
-113.234
11
79.858
21
-113.249
0
LINE
8
BLACK
6
CONTINUOUS
10
79.858
20
-113.249
11
79.8482
21
-113.265
0
LINE
8
BLACK
6
CONTINUOUS
10
79.8482
20
-113.265
11
79.8418
21
-113.268
0
LINE
8
BLACK
6
CONTINUOUS
10
79.8418
20
-113.268
11
79.8375
21
-113.273
0
LINE
8
BLACK
6
CONTINUOUS
10
79.8375
20
-113.273
11
79.8183
21
-113.276
0
LINE
8
BLACK
6
CONTINUOUS
10
79.8183
20
-113.276
11
79.8
21
-113.283
0
LINE
8
BLACK
6
CONTINUOUS
10
79.8
20
-113.283
11
66
21
-113.283
0
LINE
8
BLACK
6
CONTINUOUS
10
66
20
-113.283
11
65.9903
21
-113.281
0
LINE
8
BLACK
6
CONTINUOUS
10
65.9903
20
-113.281
11
65.987
21
-113.282
0
LINE
8
BLACK
6
CONTINUOUS
10
65.987
20
-113.282
11
65.9841
21
-113.28
0
LINE
8
BLACK
6
CONTINUOUS
10
65.9841
20
-113.28
11
65.9743
21
-113.278
0
LINE
8
BLACK
6
CONTINUOUS
10
65.9743
20
-113.278
11
65.9594
21
-113.266
0
LINE
8
BLACK
6
CONTINUOUS
10
65.9594
20
-113.266
11
65.9425
21
-113.256
0
LINE
8
BLACK
6
CONTINUOUS
10
65.9425
20
-113.256
11
65.9402
21
-113.25
0
LINE
8
BLACK
6
CONTINUOUS
10
65.9402
20
-113.25
11
65.935
21
-113.245
0
LINE
8
BLACK
6
CONTINUOUS
10
65.935
20
-113.245
11
65.9317
21
-113.226
0
LINE
8
BLACK
6
CONTINUOUS
10
65.9317
20
-113.226
11
65.925
21
-113.208
0
LINE
8
BLACK
6
CONTINUOUS
10
65.925
20
-113.208
11
65.925
21
-99.408
0
LINE
8
BLACK
6
CONTINUOUS
10
65.925
20
-99.408
11
65.9267
21
-99.3983
0
LINE
8
BLACK
6
CONTINUOUS
10
65.9267
20
-99.3983
11
65.9261
21
-99.395
0
LINE
8
BLACK
6
CONTINUOUS
10
65.9261
20
-99.395
11
65.9278
21
-99.3921
0
LINE
8
BLACK
6
CONTINUOUS
10
65.9278
20
-99.3921
11
65.9295
21
-99.3823
0
LINE
8
BLACK
6
CONTINUOUS
10
65.9295
20
-99.3823
11
65.942
21
-99.3674
0
LINE
8
BLACK
6
CONTINUOUS
10
65.942
20
-99.3674
11
65.9518
21
-99.3505
0
LINE
8
BLACK
6
CONTINUOUS
10
65.9518
20
-99.3505
11
65.9582
21
-99.3482
0
LINE
8
BLACK
6
CONTINUOUS
10
65.9582
20
-99.3482
11
65.9625
21
-99.343
0
LINE
8
BLACK
6
CONTINUOUS
10
65.9625
20
-99.343
11
65.9817
21
-99.3397
0
LINE
8
BLACK
6
CONTINUOUS
10
65.9817
20
-99.3397
11
66
21
-99.333
0
LINE
8
BLACK
6
CONTINUOUS
10
66
20
-99.333
11
79.8
21
-99.333
0
LINE
8
BLACK
6
CONTINUOUS
10
79.8
20
-99.333
11
79.8097
21
-99.3347
0
LINE
8
BLACK
6
CONTINUOUS
10
66.075
20
-99.483
11
66.075
21
-113.133
0
LINE
8
BLACK
6
CONTINUOUS
10
66.075
20
-113.133
11
79.725
21
-113.133
0
LINE
8
BLACK
6
CONTINUOUS
10
79.725
20
-113.133
11
79.725
21
-99.483
0
LINE
8
BLACK
6
CONTINUOUS
10
79.725
20
-99.483
11
66.075
21
-99.483
0
LINE
8
BLACK
6
CONTINUOUS
10
175.06
20
-89.3347
11
175.063
21
-89.3341
0
LINE
8
BLACK
6
CONTINUOUS
10
175.063
20
-89.3341
11
175.066
21
-89.3358
0
LINE
8
BLACK
6
CONTINUOUS
10
175.066
20
-89.3358
11
175.076
21
-89.3375
0
LINE
8
BLACK
6
CONTINUOUS
10
175.076
20
-89.3375
11
175.091
21
-89.35
0
LINE
8
BLACK
6
CONTINUOUS
10
175.091
20
-89.35
11
175.107
21
-89.3598
0
LINE
8
BLACK
6
CONTINUOUS
10
175.107
20
-89.3598
11
175.11
21
-89.3661
0
LINE
8
BLACK
6
CONTINUOUS
10
175.11
20
-89.3661
11
175.115
21
-89.3705
0
LINE
8
BLACK
6
CONTINUOUS
10
175.115
20
-89.3705
11
175.118
21
-89.3897
0
LINE
8
BLACK
6
CONTINUOUS
10
175.118
20
-89.3897
11
175.125
21
-89.408
0
LINE
8
BLACK
6
CONTINUOUS
10
175.125
20
-89.408
11
175.125
21
-103.208
0
LINE
8
BLACK
6
CONTINUOUS
10
175.125
20
-103.208
11
175.123
21
-103.218
0
LINE
8
BLACK
6
CONTINUOUS
10
175.123
20
-103.218
11
175.124
21
-103.221
0
LINE
8
BLACK
6
CONTINUOUS
10
175.124
20
-103.221
11
175.122
21
-103.224
0
LINE
8
BLACK
6
CONTINUOUS
10
175.122
20
-103.224
11
175.12
21
-103.234
0
LINE
8
BLACK
6
CONTINUOUS
10
175.12
20
-103.234
11
175.108
21
-103.249
0
LINE
8
BLACK
6
CONTINUOUS
10
175.108
20
-103.249
11
175.098
21
-103.265
0
LINE
8
BLACK
6
CONTINUOUS
10
175.098
20
-103.265
11
175.092
21
-103.268
0
LINE
8
BLACK
6
CONTINUOUS
10
175.092
20
-103.268
11
175.088
21
-103.273
0
LINE
8
BLACK
6
CONTINUOUS
10
175.088
20
-103.273
11
175.068
21
-103.276
0
LINE
8
BLACK
6
CONTINUOUS
10
175.068
20
-103.276
11
175.05
21
-103.283
0
LINE
8
BLACK
6
CONTINUOUS
10
175.05
20
-103.283
11
161.25
21
-103.283
0
LINE
8
BLACK
6
CONTINUOUS
10
161.25
20
-103.283
11
161.24
21
-103.281
0
LINE
8
BLACK
6
CONTINUOUS
10
161.24
20
-103.281
11
161.237
21
-103.282
0
LINE
8
BLACK
6
CONTINUOUS
10
161.237
20
-103.282
11
161.234
21
-103.28
0
LINE
8
BLACK
6
CONTINUOUS
10
161.234
20
-103.28
11
161.224
21
-103.278
0
LINE
8
BLACK
6
CONTINUOUS
10
161.224
20
-103.278
11
161.209
21
-103.266
0
LINE
8
BLACK
6
CONTINUOUS
10
161.209
20
-103.266
11
161.193
21
-103.256
0
LINE
8
BLACK
6
CONTINUOUS
10
161.193
20
-103.256
11
161.19
21
-103.25
0
LINE
8
BLACK
6
CONTINUOUS
10
161.19
20
-103.25
11
161.185
21
-103.245
0
LINE
8
BLACK
6
CONTINUOUS
10
161.185
20
-103.245
11
161.182
21
-103.226
0
LINE
8
BLACK
6
CONTINUOUS
10
161.182
20
-103.226
11
161.175
21
-103.208
0
LINE
8
BLACK
6
CONTINUOUS
10
161.175
20
-103.208
11
161.175
21
-89.408
0
LINE
8
BLACK
6
CONTINUOUS
10
161.175
20
-89.408
11
161.177
21
-89.3983
0
LINE
8
BLACK
6
CONTINUOUS
10
161.177
20
-89.3983
11
161.176
21
-89.395
0
LINE
8
BLACK
6
CONTINUOUS
10
161.176
20
-89.395
11
161.178
21
-89.3921
0
LINE
8
BLACK
6
CONTINUOUS
10
161.178
20
-89.3921
11
161.18
21
-89.3823
0
LINE
8
BLACK
6
CONTINUOUS
10
161.18
20
-89.3823
11
161.192
21
-89.3674
0
LINE
8
BLACK
6
CONTINUOUS
10
161.192
20
-89.3674
11
161.202
21
-89.3505
0
LINE
8
BLACK
6
CONTINUOUS
10
161.202
20
-89.3505
11
161.208
21
-89.3482
0
LINE
8
BLACK
6
CONTINUOUS
10
161.208
20
-89.3482
11
161.213
21
-89.343
0
LINE
8
BLACK
6
CONTINUOUS
10
161.213
20
-89.343
11
161.232
21
-89.3397
0
LINE
8
BLACK
6
CONTINUOUS
10
161.232
20
-89.3397
11
161.25
21
-89.333
0
LINE
8
BLACK
6
CONTINUOUS
10
161.25
20
-89.333
11
175.05
21
-89.333
0
LINE
8
BLACK
6
CONTINUOUS
10
175.05
20
-89.333
11
175.06
21
-89.3347
0
LINE
8
BLACK
6
CONTINUOUS
10
161.325
20
-89.483
11
161.325
21
-103.133
0
LINE
8
BLACK
6
CONTINUOUS
10
161.325
20
-103.133
11
174.975
21
-103.133
0
LINE
8
BLACK
6
CONTINUOUS
10
174.975
20
-103.133
11
174.975
21
-89.483
0
LINE
8
BLACK
6
CONTINUOUS
10
174.975
20
-89.483
11
161.325
21
-89.483
0
LINE
8
BLACK
6
CONTINUOUS
10
156.01
20
-87.3347
11
156.013
21
-87.3341
0
LINE
8
BLACK
6
CONTINUOUS
10
156.013
20
-87.3341
11
156.016
21
-87.3358
0
LINE
8
BLACK
6
CONTINUOUS
10
156.016
20
-87.3358
11
156.026
21
-87.3375
0
LINE
8
BLACK
6
CONTINUOUS
10
156.026
20
-87.3375
11
156.041
21
-87.35
0
LINE
8
BLACK
6
CONTINUOUS
10
156.041
20
-87.35
11
156.057
21
-87.3598
0
LINE
8
BLACK
6
CONTINUOUS
10
156.057
20
-87.3598
11
156.06
21
-87.3661
0
LINE
8
BLACK
6
CONTINUOUS
10
156.06
20
-87.3661
11
156.065
21
-87.3705
0
LINE
8
BLACK
6
CONTINUOUS
10
156.065
20
-87.3705
11
156.068
21
-87.3897
0
LINE
8
BLACK
6
CONTINUOUS
10
156.068
20
-87.3897
11
156.075
21
-87.408
0
LINE
8
BLACK
6
CONTINUOUS
10
156.075
20
-87.408
11
156.075
21
-101.208
0
LINE
8
BLACK
6
CONTINUOUS
10
156.075
20
-101.208
11
156.073
21
-101.218
0
LINE
8
BLACK
6
CONTINUOUS
10
156.073
20
-101.218
11
156.074
21
-101.221
0
LINE
8
BLACK
6
CONTINUOUS
10
156.074
20
-101.221
11
156.072
21
-101.224
0
LINE
8
BLACK
6
CONTINUOUS
10
156.072
20
-101.224
11
156.07
21
-101.234
0
LINE
8
BLACK
6
CONTINUOUS
10
156.07
20
-101.234
11
156.058
21
-101.249
0
LINE
8
BLACK
6
CONTINUOUS
10
156.058
20
-101.249
11
156.048
21
-101.265
0
LINE
8
BLACK
6
CONTINUOUS
10
156.048
20
-101.265
11
156.042
21
-101.268
0
LINE
8
BLACK
6
CONTINUOUS
10
156.042
20
-101.268
11
156.037
21
-101.273
0
LINE
8
BLACK
6
CONTINUOUS
10
156.037
20
-101.273
11
156.018
21
-101.276
0
LINE
8
BLACK
6
CONTINUOUS
10
156.018
20
-101.276
11
156
21
-101.283
0
LINE
8
BLACK
6
CONTINUOUS
10
156
20
-101.283
11
142.2
21
-101.283
0
LINE
8
BLACK
6
CONTINUOUS
10
142.2
20
-101.283
11
142.19
21
-101.281
0
LINE
8
BLACK
6
CONTINUOUS
10
142.19
20
-101.281
11
142.187
21
-101.282
0
LINE
8
BLACK
6
CONTINUOUS
10
142.187
20
-101.282
11
142.184
21
-101.28
0
LINE
8
BLACK
6
CONTINUOUS
10
142.184
20
-101.28
11
142.174
21
-101.278
0
LINE
8
BLACK
6
CONTINUOUS
10
142.174
20
-101.278
11
142.159
21
-101.266
0
LINE
8
BLACK
6
CONTINUOUS
10
142.159
20
-101.266
11
142.143
21
-101.256
0
LINE
8
BLACK
6
CONTINUOUS
10
142.143
20
-101.256
11
142.14
21
-101.25
0
LINE
8
BLACK
6
CONTINUOUS
10
142.14
20
-101.25
11
142.135
21
-101.245
0
LINE
8
BLACK
6
CONTINUOUS
10
142.135
20
-101.245
11
142.132
21
-101.226
0
LINE
8
BLACK
6
CONTINUOUS
10
142.132
20
-101.226
11
142.125
21
-101.208
0
LINE
8
BLACK
6
CONTINUOUS
10
142.125
20
-101.208
11
142.125
21
-87.408
0
LINE
8
BLACK
6
CONTINUOUS
10
142.125
20
-87.408
11
142.127
21
-87.3983
0
LINE
8
BLACK
6
CONTINUOUS
10
142.127
20
-87.3983
11
142.126
21
-87.395
0
LINE
8
BLACK
6
CONTINUOUS
10
142.126
20
-87.395
11
142.128
21
-87.3921
0
LINE
8
BLACK
6
CONTINUOUS
10
142.128
20
-87.3921
11
142.13
21
-87.3823
0
LINE
8
BLACK
6
CONTINUOUS
10
142.13
20
-87.3823
11
142.142
21
-87.3674
0
LINE
8
BLACK
6
CONTINUOUS
10
142.142
20
-87.3674
11
142.152
21
-87.3505
0
LINE
8
BLACK
6
CONTINUOUS
10
142.152
20
-87.3505
11
142.158
21
-87.3482
0
LINE
8
BLACK
6
CONTINUOUS
10
142.158
20
-87.3482
11
142.162
21
-87.343
0
LINE
8
BLACK
6
CONTINUOUS
10
142.162
20
-87.343
11
142.182
21
-87.3397
0
LINE
8
BLACK
6
CONTINUOUS
10
142.182
20
-87.3397
11
142.2
21
-87.333
0
LINE
8
BLACK
6
CONTINUOUS
10
142.2
20
-87.333
11
156
21
-87.333
0
LINE
8
BLACK
6
CONTINUOUS
10
156
20
-87.333
11
156.01
21
-87.3347
0
LINE
8
BLACK
6
CONTINUOUS
10
142.275
20
-87.483
11
142.275
21
-101.133
0
LINE
8
BLACK
6
CONTINUOUS
10
142.275
20
-101.133
11
155.925
21
-101.133
0
LINE
8
BLACK
6
CONTINUOUS
10
155.925
20
-101.133
11
155.925
21
-87.483
0
LINE
8
BLACK
6
CONTINUOUS
10
155.925
20
-87.483
11
142.275
21
-87.483
0
LINE
8
BLACK
6
CONTINUOUS
10
117.91
20
-87.3347
11
117.913
21
-87.3341
0
LINE
8
BLACK
6
CONTINUOUS
10
117.913
20
-87.3341
11
117.916
21
-87.3358
0
LINE
8
BLACK
6
CONTINUOUS
10
117.916
20
-87.3358
11
117.926
21
-87.3375
0
LINE
8
BLACK
6
CONTINUOUS
10
117.926
20
-87.3375
11
117.941
21
-87.35
0
LINE
8
BLACK
6
CONTINUOUS
10
117.941
20
-87.35
11
117.957
21
-87.3598
0
LINE
8
BLACK
6
CONTINUOUS
10
117.957
20
-87.3598
11
117.96
21
-87.3661
0
LINE
8
BLACK
6
CONTINUOUS
10
117.96
20
-87.3661
11
117.965
21
-87.3705
0
LINE
8
BLACK
6
CONTINUOUS
10
117.965
20
-87.3705
11
117.968
21
-87.3897
0
LINE
8
BLACK
6
CONTINUOUS
10
117.968
20
-87.3897
11
117.975
21
-87.408
0
LINE
8
BLACK
6
CONTINUOUS
10
117.975
20
-87.408
11
117.975
21
-101.208
0
LINE
8
BLACK
6
CONTINUOUS
10
117.975
20
-101.208
11
117.973
21
-101.218
0
LINE
8
BLACK
6
CONTINUOUS
10
117.973
20
-101.218
11
117.974
21
-101.221
0
LINE
8
BLACK
6
CONTINUOUS
10
117.974
20
-101.221
11
117.972
21
-101.224
0
LINE
8
BLACK
6
CONTINUOUS
10
117.972
20
-101.224
11
117.97
21
-101.234
0
LINE
8
BLACK
6
CONTINUOUS
10
117.97
20
-101.234
11
117.958
21
-101.249
0
LINE
8
BLACK
6
CONTINUOUS
10
117.958
20
-101.249
11
117.948
21
-101.265
0
LINE
8
BLACK
6
CONTINUOUS
10
117.948
20
-101.265
11
117.942
21
-101.268
0
LINE
8
BLACK
6
CONTINUOUS
10
117.942
20
-101.268
11
117.938
21
-101.273
0
LINE
8
BLACK
6
CONTINUOUS
10
117.938
20
-101.273
11
117.918
21
-101.276
0
LINE
8
BLACK
6
CONTINUOUS
10
117.918
20
-101.276
11
117.9
21
-101.283
0
LINE
8
BLACK
6
CONTINUOUS
10
117.9
20
-101.283
11
104.1
21
-101.283
0
LINE
8
BLACK
6
CONTINUOUS
10
104.1
20
-101.283
11
104.09
21
-101.281
0
LINE
8
BLACK
6
CONTINUOUS
10
104.09
20
-101.281
11
104.087
21
-101.282
0
LINE
8
BLACK
6
CONTINUOUS
10
104.087
20
-101.282
11
104.084
21
-101.28
0
LINE
8
BLACK
6
CONTINUOUS
10
104.084
20
-101.28
11
104.074
21
-101.278
0
LINE
8
BLACK
6
CONTINUOUS
10
104.074
20
-101.278
11
104.059
21
-101.266
0
LINE
8
BLACK
6
CONTINUOUS
10
104.059
20
-101.266
11
104.043
21
-101.256
0
LINE
8
BLACK
6
CONTINUOUS
10
104.043
20
-101.256
11
104.04
21
-101.25
0
LINE
8
BLACK
6
CONTINUOUS
10
104.04
20
-101.25
11
104.035
21
-101.245
0
LINE
8
BLACK
6
CONTINUOUS
10
104.035
20
-101.245
11
104.032
21
-101.226
0
LINE
8
BLACK
6
CONTINUOUS
10
104.032
20
-101.226
11
104.025
21
-101.208
0
LINE
8
BLACK
6
CONTINUOUS
10
104.025
20
-101.208
11
104.025
21
-87.408
0
LINE
8
BLACK
6
CONTINUOUS
10
104.025
20
-87.408
11
104.027
21
-87.3983
0
LINE
8
BLACK
6
CONTINUOUS
10
104.027
20
-87.3983
11
104.026
21
-87.395
0
LINE
8
BLACK
6
CONTINUOUS
10
104.026
20
-87.395
11
104.028
21
-87.3921
0
LINE
8
BLACK
6
CONTINUOUS
10
104.028
20
-87.3921
11
104.03
21
-87.3823
0
LINE
8
BLACK
6
CONTINUOUS
10
104.03
20
-87.3823
11
104.042
21
-87.3674
0
LINE
8
BLACK
6
CONTINUOUS
10
104.042
20
-87.3674
11
104.052
21
-87.3505
0
LINE
8
BLACK
6
CONTINUOUS
10
104.052
20
-87.3505
11
104.058
21
-87.3482
0
LINE
8
BLACK
6
CONTINUOUS
10
104.058
20
-87.3482
11
104.062
21
-87.343
0
LINE
8
BLACK
6
CONTINUOUS
10
104.062
20
-87.343
11
104.082
21
-87.3397
0
LINE
8
BLACK
6
CONTINUOUS
10
104.082
20
-87.3397
11
104.1
21
-87.333
0
LINE
8
BLACK
6
CONTINUOUS
10
104.1
20
-87.333
11
117.9
21
-87.333
0
LINE
8
BLACK
6
CONTINUOUS
10
117.9
20
-87.333
11
117.91
21
-87.3347
0
LINE
8
BLACK
6
CONTINUOUS
10
104.175
20
-87.483
11
104.175
21
-101.133
0
LINE
8
BLACK
6
CONTINUOUS
10
104.175
20
-101.133
11
117.825
21
-101.133
0
LINE
8
BLACK
6
CONTINUOUS
10
117.825
20
-101.133
11
117.825
21
-87.483
0
LINE
8
BLACK
6
CONTINUOUS
10
117.825
20
-87.483
11
104.175
21
-87.483
0
LINE
8
BLACK
6
CONTINUOUS
10
136.96
20
-82.3347
11
136.963
21
-82.3341
0
LINE
8
BLACK
6
CONTINUOUS
10
136.963
20
-82.3341
11
136.966
21
-82.3358
0
LINE
8
BLACK
6
CONTINUOUS
10
136.966
20
-82.3358
11
136.976
21
-82.3375
0
LINE
8
BLACK
6
CONTINUOUS
10
136.976
20
-82.3375
11
136.991
21
-82.35
0
LINE
8
BLACK
6
CONTINUOUS
10
136.991
20
-82.35
11
137.007
21
-82.3598
0
LINE
8
BLACK
6
CONTINUOUS
10
137.007
20
-82.3598
11
137.01
21
-82.3661
0
LINE
8
BLACK
6
CONTINUOUS
10
137.01
20
-82.3661
11
137.015
21
-82.3705
0
LINE
8
BLACK
6
CONTINUOUS
10
137.015
20
-82.3705
11
137.018
21
-82.3897
0
LINE
8
BLACK
6
CONTINUOUS
10
137.018
20
-82.3897
11
137.025
21
-82.408
0
LINE
8
BLACK
6
CONTINUOUS
10
137.025
20
-82.408
11
137.025
21
-96.208
0
LINE
8
BLACK
6
CONTINUOUS
10
137.025
20
-96.208
11
137.023
21
-96.2177
0
LINE
8
BLACK
6
CONTINUOUS
10
137.023
20
-96.2177
11
137.024
21
-96.221
0
LINE
8
BLACK
6
CONTINUOUS
10
137.024
20
-96.221
11
137.022
21
-96.2239
0
LINE
8
BLACK
6
CONTINUOUS
10
137.022
20
-96.2239
11
137.02
21
-96.2337
0
LINE
8
BLACK
6
CONTINUOUS
10
137.02
20
-96.2337
11
137.008
21
-96.2486
0
LINE
8
BLACK
6
CONTINUOUS
10
137.008
20
-96.2486
11
136.998
21
-96.2655
0
LINE
8
BLACK
6
CONTINUOUS
10
136.998
20
-96.2655
11
136.992
21
-96.2678
0
LINE
8
BLACK
6
CONTINUOUS
10
136.992
20
-96.2678
11
136.987
21
-96.273
0
LINE
8
BLACK
6
CONTINUOUS
10
136.987
20
-96.273
11
136.968
21
-96.2763
0
LINE
8
BLACK
6
CONTINUOUS
10
136.968
20
-96.2763
11
136.95
21
-96.283
0
LINE
8
BLACK
6
CONTINUOUS
10
136.95
20
-96.283
11
123.15
21
-96.283
0
LINE
8
BLACK
6
CONTINUOUS
10
123.15
20
-96.283
11
123.14
21
-96.2813
0
LINE
8
BLACK
6
CONTINUOUS
10
123.14
20
-96.2813
11
123.137
21
-96.2819
0
LINE
8
BLACK
6
CONTINUOUS
10
123.137
20
-96.2819
11
123.134
21
-96.2802
0
LINE
8
BLACK
6
CONTINUOUS
10
123.134
20
-96.2802
11
123.124
21
-96.2785
0
LINE
8
BLACK
6
CONTINUOUS
10
123.124
20
-96.2785
11
123.109
21
-96.266
0
LINE
8
BLACK
6
CONTINUOUS
10
123.109
20
-96.266
11
123.093
21
-96.2562
0
LINE
8
BLACK
6
CONTINUOUS
10
123.093
20
-96.2562
11
123.09
21
-96.2498
0
LINE
8
BLACK
6
CONTINUOUS
10
123.09
20
-96.2498
11
123.085
21
-96.2455
0
LINE
8
BLACK
6
CONTINUOUS
10
123.085
20
-96.2455
11
123.082
21
-96.2263
0
LINE
8
BLACK
6
CONTINUOUS
10
123.082
20
-96.2263
11
123.075
21
-96.208
0
LINE
8
BLACK
6
CONTINUOUS
10
123.075
20
-96.208
11
123.075
21
-82.408
0
LINE
8
BLACK
6
CONTINUOUS
10
123.075
20
-82.408
11
123.077
21
-82.3983
0
LINE
8
BLACK
6
CONTINUOUS
10
123.077
20
-82.3983
11
123.076
21
-82.395
0
LINE
8
BLACK
6
CONTINUOUS
10
123.076
20
-82.395
11
123.078
21
-82.3921
0
LINE
8
BLACK
6
CONTINUOUS
10
123.078
20
-82.3921
11
123.08
21
-82.3823
0
LINE
8
BLACK
6
CONTINUOUS
10
123.08
20
-82.3823
11
123.092
21
-82.3674
0
LINE
8
BLACK
6
CONTINUOUS
10
123.092
20
-82.3674
11
123.102
21
-82.3505
0
LINE
8
BLACK
6
CONTINUOUS
10
123.102
20
-82.3505
11
123.108
21
-82.3482
0
LINE
8
BLACK
6
CONTINUOUS
10
123.108
20
-82.3482
11
123.112
21
-82.343
0
LINE
8
BLACK
6
CONTINUOUS
10
123.112
20
-82.343
11
123.132
21
-82.3397
0
LINE
8
BLACK
6
CONTINUOUS
10
123.132
20
-82.3397
11
123.15
21
-82.333
0
LINE
8
BLACK
6
CONTINUOUS
10
123.15
20
-82.333
11
136.95
21
-82.333
0
LINE
8
BLACK
6
CONTINUOUS
10
136.95
20
-82.333
11
136.96
21
-82.3347
0
LINE
8
BLACK
6
CONTINUOUS
10
123.225
20
-82.483
11
123.225
21
-96.133
0
LINE
8
BLACK
6
CONTINUOUS
10
123.225
20
-96.133
11
136.875
21
-96.133
0
LINE
8
BLACK
6
CONTINUOUS
10
136.875
20
-96.133
11
136.875
21
-82.483
0
LINE
8
BLACK
6
CONTINUOUS
10
136.875
20
-82.483
11
123.225
21
-82.483
0
LINE
8
BLACK
6
CONTINUOUS
10
98.8597
20
-80.2847
11
98.863
21
-80.2841
0
LINE
8
BLACK
6
CONTINUOUS
10
98.863
20
-80.2841
11
98.8659
21
-80.2858
0
LINE
8
BLACK
6
CONTINUOUS
10
98.8659
20
-80.2858
11
98.8757
21
-80.2875
0
LINE
8
BLACK
6
CONTINUOUS
10
98.8757
20
-80.2875
11
98.8906
21
-80.3
0
LINE
8
BLACK
6
CONTINUOUS
10
98.8906
20
-80.3
11
98.9075
21
-80.3098
0
LINE
8
BLACK
6
CONTINUOUS
10
98.9075
20
-80.3098
11
98.9098
21
-80.3161
0
LINE
8
BLACK
6
CONTINUOUS
10
98.9098
20
-80.3161
11
98.915
21
-80.3205
0
LINE
8
BLACK
6
CONTINUOUS
10
98.915
20
-80.3205
11
98.9183
21
-80.3397
0
LINE
8
BLACK
6
CONTINUOUS
10
98.9183
20
-80.3397
11
98.925
21
-80.358
0
LINE
8
BLACK
6
CONTINUOUS
10
98.925
20
-80.358
11
98.925
21
-94.158
0
LINE
8
BLACK
6
CONTINUOUS
10
98.925
20
-94.158
11
98.9233
21
-94.1677
0
LINE
8
BLACK
6
CONTINUOUS
10
98.9233
20
-94.1677
11
98.9239
21
-94.171
0
LINE
8
BLACK
6
CONTINUOUS
10
98.9239
20
-94.171
11
98.9222
21
-94.1739
0
LINE
8
BLACK
6
CONTINUOUS
10
98.9222
20
-94.1739
11
98.9205
21
-94.1837
0
LINE
8
BLACK
6
CONTINUOUS
10
98.9205
20
-94.1837
11
98.908
21
-94.1986
0
LINE
8
BLACK
6
CONTINUOUS
10
98.908
20
-94.1986
11
98.8982
21
-94.2155
0
LINE
8
BLACK
6
CONTINUOUS
10
98.8982
20
-94.2155
11
98.8918
21
-94.2178
0
LINE
8
BLACK
6
CONTINUOUS
10
98.8918
20
-94.2178
11
98.8875
21
-94.223
0
LINE
8
BLACK
6
CONTINUOUS
10
98.8875
20
-94.223
11
98.8683
21
-94.2263
0
LINE
8
BLACK
6
CONTINUOUS
10
98.8683
20
-94.2263
11
98.85
21
-94.233
0
LINE
8
BLACK
6
CONTINUOUS
10
98.85
20
-94.233
11
85.05
21
-94.233
0
LINE
8
BLACK
6
CONTINUOUS
10
85.05
20
-94.233
11
85.0403
21
-94.2313
0
LINE
8
BLACK
6
CONTINUOUS
10
85.0403
20
-94.2313
11
85.037
21
-94.2319
0
LINE
8
BLACK
6
CONTINUOUS
10
85.037
20
-94.2319
11
85.0341
21
-94.2302
0
LINE
8
BLACK
6
CONTINUOUS
10
85.0341
20
-94.2302
11
85.0243
21
-94.2285
0
LINE
8
BLACK
6
CONTINUOUS
10
85.0243
20
-94.2285
11
85.0094
21
-94.216
0
LINE
8
BLACK
6
CONTINUOUS
10
85.0094
20
-94.216
11
84.9925
21
-94.2062
0
LINE
8
BLACK
6
CONTINUOUS
10
84.9925
20
-94.2062
11
84.9902
21
-94.1998
0
LINE
8
BLACK
6
CONTINUOUS
10
84.9902
20
-94.1998
11
84.985
21
-94.1955
0
LINE
8
BLACK
6
CONTINUOUS
10
84.985
20
-94.1955
11
84.9817
21
-94.1763
0
LINE
8
BLACK
6
CONTINUOUS
10
84.9817
20
-94.1763
11
84.975
21
-94.158
0
LINE
8
BLACK
6
CONTINUOUS
10
84.975
20
-94.158
11
84.975
21
-80.358
0
LINE
8
BLACK
6
CONTINUOUS
10
84.975
20
-80.358
11
84.9767
21
-80.3483
0
LINE
8
BLACK
6
CONTINUOUS
10
84.9767
20
-80.3483
11
84.9761
21
-80.345
0
LINE
8
BLACK
6
CONTINUOUS
10
84.9761
20
-80.345
11
84.9778
21
-80.3421
0
LINE
8
BLACK
6
CONTINUOUS
10
84.9778
20
-80.3421
11
84.9795
21
-80.3323
0
LINE
8
BLACK
6
CONTINUOUS
10
84.9795
20
-80.3323
11
84.992
21
-80.3174
0
LINE
8
BLACK
6
CONTINUOUS
10
84.992
20
-80.3174
11
85.0018
21
-80.3005
0
LINE
8
BLACK
6
CONTINUOUS
10
85.0018
20
-80.3005
11
85.0082
21
-80.2982
0
LINE
8
BLACK
6
CONTINUOUS
10
85.0082
20
-80.2982
11
85.0125
21
-80.293
0
LINE
8
BLACK
6
CONTINUOUS
10
85.0125
20
-80.293
11
85.0317
21
-80.2897
0
LINE
8
BLACK
6
CONTINUOUS
10
85.0317
20
-80.2897
11
85.05
21
-80.283
0
LINE
8
BLACK
6
CONTINUOUS
10
85.05
20
-80.283
11
98.85
21
-80.283
0
LINE
8
BLACK
6
CONTINUOUS
10
98.85
20
-80.283
11
98.8597
21
-80.2847
0
LINE
8
BLACK
6
CONTINUOUS
10
85.125
20
-80.433
11
85.125
21
-94.083
0
LINE
8
BLACK
6
CONTINUOUS
10
85.125
20
-94.083
11
98.775
21
-94.083
0
LINE
8
BLACK
6
CONTINUOUS
10
98.775
20
-94.083
11
98.775
21
-80.433
0
LINE
8
BLACK
6
CONTINUOUS
10
98.775
20
-80.433
11
85.125
21
-80.433
0
LINE
8
BLACK
6
CONTINUOUS
10
79.8097
20
-80.2847
11
79.813
21
-80.2841
0
LINE
8
BLACK
6
CONTINUOUS
10
79.813
20
-80.2841
11
79.8159
21
-80.2858
0
LINE
8
BLACK
6
CONTINUOUS
10
79.8159
20
-80.2858
11
79.8257
21
-80.2875
0
LINE
8
BLACK
6
CONTINUOUS
10
79.8257
20
-80.2875
11
79.8406
21
-80.3
0
LINE
8
BLACK
6
CONTINUOUS
10
79.8406
20
-80.3
11
79.8575
21
-80.3098
0
LINE
8
BLACK
6
CONTINUOUS
10
79.8575
20
-80.3098
11
79.8598
21
-80.3161
0
LINE
8
BLACK
6
CONTINUOUS
10
79.8598
20
-80.3161
11
79.865
21
-80.3205
0
LINE
8
BLACK
6
CONTINUOUS
10
79.865
20
-80.3205
11
79.8683
21
-80.3397
0
LINE
8
BLACK
6
CONTINUOUS
10
79.8683
20
-80.3397
11
79.875
21
-80.358
0
LINE
8
BLACK
6
CONTINUOUS
10
79.875
20
-80.358
11
79.875
21
-94.158
0
LINE
8
BLACK
6
CONTINUOUS
10
79.875
20
-94.158
11
79.8733
21
-94.1677
0
LINE
8
BLACK
6
CONTINUOUS
10
79.8733
20
-94.1677
11
79.8739
21
-94.171
0
LINE
8
BLACK
6
CONTINUOUS
10
79.8739
20
-94.171
11
79.8722
21
-94.1739
0
LINE
8
BLACK
6
CONTINUOUS
10
79.8722
20
-94.1739
11
79.8705
21
-94.1837
0
LINE
8
BLACK
6
CONTINUOUS
10
79.8705
20
-94.1837
11
79.858
21
-94.1986
0
LINE
8
BLACK
6
CONTINUOUS
10
79.858
20
-94.1986
11
79.8482
21
-94.2155
0
LINE
8
BLACK
6
CONTINUOUS
10
79.8482
20
-94.2155
11
79.8418
21
-94.2178
0
LINE
8
BLACK
6
CONTINUOUS
10
79.8418
20
-94.2178
11
79.8375
21
-94.223
0
LINE
8
BLACK
6
CONTINUOUS
10
79.8375
20
-94.223
11
79.8183
21
-94.2263
0
LINE
8
BLACK
6
CONTINUOUS
10
79.8183
20
-94.2263
11
79.8
21
-94.233
0
LINE
8
BLACK
6
CONTINUOUS
10
79.8
20
-94.233
11
66
21
-94.233
0
LINE
8
BLACK
6
CONTINUOUS
10
66
20
-94.233
11
65.9903
21
-94.2313
0
LINE
8
BLACK
6
CONTINUOUS
10
65.9903
20
-94.2313
11
65.987
21
-94.2319
0
LINE
8
BLACK
6
CONTINUOUS
10
65.987
20
-94.2319
11
65.9841
21
-94.2302
0
LINE
8
BLACK
6
CONTINUOUS
10
65.9841
20
-94.2302
11
65.9743
21
-94.2285
0
LINE
8
BLACK
6
CONTINUOUS
10
65.9743
20
-94.2285
11
65.9594
21
-94.216
0
LINE
8
BLACK
6
CONTINUOUS
10
65.9594
20
-94.216
11
65.9425
21
-94.2062
0
LINE
8
BLACK
6
CONTINUOUS
10
65.9425
20
-94.2062
11
65.9402
21
-94.1998
0
LINE
8
BLACK
6
CONTINUOUS
10
65.9402
20
-94.1998
11
65.935
21
-94.1955
0
LINE
8
BLACK
6
CONTINUOUS
10
65.935
20
-94.1955
11
65.9317
21
-94.1763
0
LINE
8
BLACK
6
CONTINUOUS
10
65.9317
20
-94.1763
11
65.925
21
-94.158
0
LINE
8
BLACK
6
CONTINUOUS
10
65.925
20
-94.158
11
65.925
21
-80.358
0
LINE
8
BLACK
6
CONTINUOUS
10
65.925
20
-80.358
11
65.9267
21
-80.3483
0
LINE
8
BLACK
6
CONTINUOUS
10
65.9267
20
-80.3483
11
65.9261
21
-80.345
0
LINE
8
BLACK
6
CONTINUOUS
10
65.9261
20
-80.345
11
65.9278
21
-80.3421
0
LINE
8
BLACK
6
CONTINUOUS
10
65.9278
20
-80.3421
11
65.9295
21
-80.3323
0
LINE
8
BLACK
6
CONTINUOUS
10
65.9295
20
-80.3323
11
65.942
21
-80.3174
0
LINE
8
BLACK
6
CONTINUOUS
10
65.942
20
-80.3174
11
65.9518
21
-80.3005
0
LINE
8
BLACK
6
CONTINUOUS
10
65.9518
20
-80.3005
11
65.9582
21
-80.2982
0
LINE
8
BLACK
6
CONTINUOUS
10
65.9582
20
-80.2982
11
65.9625
21
-80.293
0
LINE
8
BLACK
6
CONTINUOUS
10
65.9625
20
-80.293
11
65.9817
21
-80.2897
0
LINE
8
BLACK
6
CONTINUOUS
10
65.9817
20
-80.2897
11
66
21
-80.283
0
LINE
8
BLACK
6
CONTINUOUS
10
66
20
-80.283
11
79.8
21
-80.283
0
LINE
8
BLACK
6
CONTINUOUS
10
79.8
20
-80.283
11
79.8097
21
-80.2847
0
LINE
8
BLACK
6
CONTINUOUS
10
66.075
20
-80.433
11
66.075
21
-94.083
0
LINE
8
BLACK
6
CONTINUOUS
10
66.075
20
-94.083
11
79.725
21
-94.083
0
LINE
8
BLACK
6
CONTINUOUS
10
79.725
20
-94.083
11
79.725
21
-80.433
0
LINE
8
BLACK
6
CONTINUOUS
10
79.725
20
-80.433
11
66.075
21
-80.433
0
LINE
8
BLACK
6
CONTINUOUS
10
175.06
20
-70.1977
11
175.063
21
-70.1971
0
LINE
8
BLACK
6
CONTINUOUS
10
175.063
20
-70.1971
11
175.066
21
-70.1988
0
LINE
8
BLACK
6
CONTINUOUS
10
175.066
20
-70.1988
11
175.076
21
-70.2005
0
LINE
8
BLACK
6
CONTINUOUS
10
175.076
20
-70.2005
11
175.091
21
-70.213
0
LINE
8
BLACK
6
CONTINUOUS
10
175.091
20
-70.213
11
175.107
21
-70.2228
0
LINE
8
BLACK
6
CONTINUOUS
10
175.107
20
-70.2228
11
175.11
21
-70.2291
0
LINE
8
BLACK
6
CONTINUOUS
10
175.11
20
-70.2291
11
175.115
21
-70.2335
0
LINE
8
BLACK
6
CONTINUOUS
10
175.115
20
-70.2335
11
175.118
21
-70.2527
0
LINE
8
BLACK
6
CONTINUOUS
10
175.118
20
-70.2527
11
175.125
21
-70.271
0
LINE
8
BLACK
6
CONTINUOUS
10
175.125
20
-70.271
11
175.125
21
-84.071
0
LINE
8
BLACK
6
CONTINUOUS
10
175.125
20
-84.071
11
175.123
21
-84.0807
0
LINE
8
BLACK
6
CONTINUOUS
10
175.123
20
-84.0807
11
175.124
21
-84.084
0
LINE
8
BLACK
6
CONTINUOUS
10
175.124
20
-84.084
11
175.122
21
-84.0869
0
LINE
8
BLACK
6
CONTINUOUS
10
175.122
20
-84.0869
11
175.12
21
-84.0967
0
LINE
8
BLACK
6
CONTINUOUS
10
175.12
20
-84.0967
11
175.108
21
-84.1116
0
LINE
8
BLACK
6
CONTINUOUS
10
175.108
20
-84.1116
11
175.098
21
-84.1285
0
LINE
8
BLACK
6
CONTINUOUS
10
175.098
20
-84.1285
11
175.092
21
-84.1308
0
LINE
8
BLACK
6
CONTINUOUS
10
175.092
20
-84.1308
11
175.088
21
-84.136
0
LINE
8
BLACK
6
CONTINUOUS
10
175.088
20
-84.136
11
175.068
21
-84.1393
0
LINE
8
BLACK
6
CONTINUOUS
10
175.068
20
-84.1393
11
175.05
21
-84.146
0
LINE
8
BLACK
6
CONTINUOUS
10
175.05
20
-84.146
11
161.25
21
-84.146
0
LINE
8
BLACK
6
CONTINUOUS
10
161.25
20
-84.146
11
161.24
21
-84.1443
0
LINE
8
BLACK
6
CONTINUOUS
10
161.24
20
-84.1443
11
161.237
21
-84.1449
0
LINE
8
BLACK
6
CONTINUOUS
10
161.237
20
-84.1449
11
161.234
21
-84.1432
0
LINE
8
BLACK
6
CONTINUOUS
10
161.234
20
-84.1432
11
161.224
21
-84.1415
0
LINE
8
BLACK
6
CONTINUOUS
10
161.224
20
-84.1415
11
161.209
21
-84.129
0
LINE
8
BLACK
6
CONTINUOUS
10
161.209
20
-84.129
11
161.193
21
-84.1192
0
LINE
8
BLACK
6
CONTINUOUS
10
161.193
20
-84.1192
11
161.19
21
-84.1128
0
LINE
8
BLACK
6
CONTINUOUS
10
161.19
20
-84.1128
11
161.185
21
-84.1085
0
LINE
8
BLACK
6
CONTINUOUS
10
161.185
20
-84.1085
11
161.182
21
-84.0893
0
LINE
8
BLACK
6
CONTINUOUS
10
161.182
20
-84.0893
11
161.175
21
-84.071
0
LINE
8
BLACK
6
CONTINUOUS
10
161.175
20
-84.071
11
161.175
21
-70.271
0
LINE
8
BLACK
6
CONTINUOUS
10
161.175
20
-70.271
11
161.177
21
-70.2613
0
LINE
8
BLACK
6
CONTINUOUS
10
161.177
20
-70.2613
11
161.176
21
-70.258
0
LINE
8
BLACK
6
CONTINUOUS
10
161.176
20
-70.258
11
161.178
21
-70.2551
0
LINE
8
BLACK
6
CONTINUOUS
10
161.178
20
-70.2551
11
161.18
21
-70.2453
0
LINE
8
BLACK
6
CONTINUOUS
10
161.18
20
-70.2453
11
161.192
21
-70.2304
0
LINE
8
BLACK
6
CONTINUOUS
10
161.192
20
-70.2304
11
161.202
21
-70.2135
0
LINE
8
BLACK
6
CONTINUOUS
10
161.202
20
-70.2135
11
161.208
21
-70.2112
0
LINE
8
BLACK
6
CONTINUOUS
10
161.208
20
-70.2112
11
161.213
21
-70.206
0
LINE
8
BLACK
6
CONTINUOUS
10
161.213
20
-70.206
11
161.232
21
-70.2027
0
LINE
8
BLACK
6
CONTINUOUS
10
161.232
20
-70.2027
11
161.25
21
-70.196
0
LINE
8
BLACK
6
CONTINUOUS
10
161.25
20
-70.196
11
175.05
21
-70.196
0
LINE
8
BLACK
6
CONTINUOUS
10
175.05
20
-70.196
11
175.06
21
-70.1977
0
LINE
8
BLACK
6
CONTINUOUS
10
161.325
20
-70.346
11
161.325
21
-83.996
0
LINE
8
BLACK
6
CONTINUOUS
10
161.325
20
-83.996
11
174.975
21
-83.996
0
LINE
8
BLACK
6
CONTINUOUS
10
174.975
20
-83.996
11
174.975
21
-70.346
0
LINE
8
BLACK
6
CONTINUOUS
10
174.975
20
-70.346
11
161.325
21
-70.346
0
LINE
8
BLACK
6
CONTINUOUS
10
156.01
20
-68.2847
11
156.013
21
-68.2841
0
LINE
8
BLACK
6
CONTINUOUS
10
156.013
20
-68.2841
11
156.016
21
-68.2858
0
LINE
8
BLACK
6
CONTINUOUS
10
156.016
20
-68.2858
11
156.026
21
-68.2875
0
LINE
8
BLACK
6
CONTINUOUS
10
156.026
20
-68.2875
11
156.041
21
-68.3
0
LINE
8
BLACK
6
CONTINUOUS
10
156.041
20
-68.3
11
156.057
21
-68.3098
0
LINE
8
BLACK
6
CONTINUOUS
10
156.057
20
-68.3098
11
156.06
21
-68.3161
0
LINE
8
BLACK
6
CONTINUOUS
10
156.06
20
-68.3161
11
156.065
21
-68.3205
0
LINE
8
BLACK
6
CONTINUOUS
10
156.065
20
-68.3205
11
156.068
21
-68.3397
0
LINE
8
BLACK
6
CONTINUOUS
10
156.068
20
-68.3397
11
156.075
21
-68.358
0
LINE
8
BLACK
6
CONTINUOUS
10
156.075
20
-68.358
11
156.075
21
-82.158
0
LINE
8
BLACK
6
CONTINUOUS
10
156.075
20
-82.158
11
156.073
21
-82.1677
0
LINE
8
BLACK
6
CONTINUOUS
10
156.073
20
-82.1677
11
156.074
21
-82.171
0
LINE
8
BLACK
6
CONTINUOUS
10
156.074
20
-82.171
11
156.072
21
-82.1739
0
LINE
8
BLACK
6
CONTINUOUS
10
156.072
20
-82.1739
11
156.07
21
-82.1837
0
LINE
8
BLACK
6
CONTINUOUS
10
156.07
20
-82.1837
11
156.058
21
-82.1986
0
LINE
8
BLACK
6
CONTINUOUS
10
156.058
20
-82.1986
11
156.048
21
-82.2155
0
LINE
8
BLACK
6
CONTINUOUS
10
156.048
20
-82.2155
11
156.042
21
-82.2178
0
LINE
8
BLACK
6
CONTINUOUS
10
156.042
20
-82.2178
11
156.037
21
-82.223
0
LINE
8
BLACK
6
CONTINUOUS
10
156.037
20
-82.223
11
156.018
21
-82.2263
0
LINE
8
BLACK
6
CONTINUOUS
10
156.018
20
-82.2263
11
156
21
-82.233
0
LINE
8
BLACK
6
CONTINUOUS
10
156
20
-82.233
11
142.2
21
-82.233
0
LINE
8
BLACK
6
CONTINUOUS
10
142.2
20
-82.233
11
142.19
21
-82.2313
0
LINE
8
BLACK
6
CONTINUOUS
10
142.19
20
-82.2313
11
142.187
21
-82.2319
0
LINE
8
BLACK
6
CONTINUOUS
10
142.187
20
-82.2319
11
142.184
21
-82.2302
0
LINE
8
BLACK
6
CONTINUOUS
10
142.184
20
-82.2302
11
142.174
21
-82.2285
0
LINE
8
BLACK
6
CONTINUOUS
10
142.174
20
-82.2285
11
142.159
21
-82.216
0
LINE
8
BLACK
6
CONTINUOUS
10
142.159
20
-82.216
11
142.143
21
-82.2062
0
LINE
8
BLACK
6
CONTINUOUS
10
142.143
20
-82.2062
11
142.14
21
-82.1998
0
LINE
8
BLACK
6
CONTINUOUS
10
142.14
20
-82.1998
11
142.135
21
-82.1955
0
LINE
8
BLACK
6
CONTINUOUS
10
142.135
20
-82.1955
11
142.132
21
-82.1763
0
LINE
8
BLACK
6
CONTINUOUS
10
142.132
20
-82.1763
11
142.125
21
-82.158
0
LINE
8
BLACK
6
CONTINUOUS
10
142.125
20
-82.158
11
142.125
21
-68.358
0
LINE
8
BLACK
6
CONTINUOUS
10
142.125
20
-68.358
11
142.127
21
-68.3483
0
LINE
8
BLACK
6
CONTINUOUS
10
142.127
20
-68.3483
11
142.126
21
-68.345
0
LINE
8
BLACK
6
CONTINUOUS
10
142.126
20
-68.345
11
142.128
21
-68.3421
0
LINE
8
BLACK
6
CONTINUOUS
10
142.128
20
-68.3421
11
142.13
21
-68.3323
0
LINE
8
BLACK
6
CONTINUOUS
10
142.13
20
-68.3323
11
142.142
21
-68.3174
0
LINE
8
BLACK
6
CONTINUOUS
10
142.142
20
-68.3174
11
142.152
21
-68.3005
0
LINE
8
BLACK
6
CONTINUOUS
10
142.152
20
-68.3005
11
142.158
21
-68.2982
0
LINE
8
BLACK
6
CONTINUOUS
10
142.158
20
-68.2982
11
142.162
21
-68.293
0
LINE
8
BLACK
6
CONTINUOUS
10
142.162
20
-68.293
11
142.182
21
-68.2897
0
LINE
8
BLACK
6
CONTINUOUS
10
142.182
20
-68.2897
11
142.2
21
-68.283
0
LINE
8
BLACK
6
CONTINUOUS
10
142.2
20
-68.283
11
156
21
-68.283
0
LINE
8
BLACK
6
CONTINUOUS
10
156
20
-68.283
11
156.01
21
-68.2847
0
LINE
8
BLACK
6
CONTINUOUS
10
142.275
20
-68.433
11
142.275
21
-82.083
0
LINE
8
BLACK
6
CONTINUOUS
10
142.275
20
-82.083
11
155.925
21
-82.083
0
LINE
8
BLACK
6
CONTINUOUS
10
155.925
20
-82.083
11
155.925
21
-68.433
0
LINE
8
BLACK
6
CONTINUOUS
10
155.925
20
-68.433
11
142.275
21
-68.433
0
LINE
8
BLACK
6
CONTINUOUS
10
117.91
20
-68.2847
11
117.913
21
-68.2841
0
LINE
8
BLACK
6
CONTINUOUS
10
117.913
20
-68.2841
11
117.916
21
-68.2858
0
LINE
8
BLACK
6
CONTINUOUS
10
117.916
20
-68.2858
11
117.926
21
-68.2875
0
LINE
8
BLACK
6
CONTINUOUS
10
117.926
20
-68.2875
11
117.941
21
-68.3
0
LINE
8
BLACK
6
CONTINUOUS
10
117.941
20
-68.3
11
117.957
21
-68.3098
0
LINE
8
BLACK
6
CONTINUOUS
10
117.957
20
-68.3098
11
117.96
21
-68.3161
0
LINE
8
BLACK
6
CONTINUOUS
10
117.96
20
-68.3161
11
117.965
21
-68.3205
0
LINE
8
BLACK
6
CONTINUOUS
10
117.965
20
-68.3205
11
117.968
21
-68.3397
0
LINE
8
BLACK
6
CONTINUOUS
10
117.968
20
-68.3397
11
117.975
21
-68.358
0
LINE
8
BLACK
6
CONTINUOUS
10
117.975
20
-68.358
11
117.975
21
-82.158
0
LINE
8
BLACK
6
CONTINUOUS
10
117.975
20
-82.158
11
117.973
21
-82.1677
0
LINE
8
BLACK
6
CONTINUOUS
10
117.973
20
-82.1677
11
117.974
21
-82.171
0
LINE
8
BLACK
6
CONTINUOUS
10
117.974
20
-82.171
11
117.972
21
-82.1739
0
LINE
8
BLACK
6
CONTINUOUS
10
117.972
20
-82.1739
11
117.97
21
-82.1837
0
LINE
8
BLACK
6
CONTINUOUS
10
117.97
20
-82.1837
11
117.958
21
-82.1986
0
LINE
8
BLACK
6
CONTINUOUS
10
117.958
20
-82.1986
11
117.948
21
-82.2155
0
LINE
8
BLACK
6
CONTINUOUS
10
117.948
20
-82.2155
11
117.942
21
-82.2178
0
LINE
8
BLACK
6
CONTINUOUS
10
117.942
20
-82.2178
11
117.938
21
-82.223
0
LINE
8
BLACK
6
CONTINUOUS
10
117.938
20
-82.223
11
117.918
21
-82.2263
0
LINE
8
BLACK
6
CONTINUOUS
10
117.918
20
-82.2263
11
117.9
21
-82.233
0
LINE
8
BLACK
6
CONTINUOUS
10
117.9
20
-82.233
11
104.1
21
-82.233
0
LINE
8
BLACK
6
CONTINUOUS
10
104.1
20
-82.233
11
104.09
21
-82.2313
0
LINE
8
BLACK
6
CONTINUOUS
10
104.09
20
-82.2313
11
104.087
21
-82.2319
0
LINE
8
BLACK
6
CONTINUOUS
10
104.087
20
-82.2319
11
104.084
21
-82.2302
0
LINE
8
BLACK
6
CONTINUOUS
10
104.084
20
-82.2302
11
104.074
21
-82.2285
0
LINE
8
BLACK
6
CONTINUOUS
10
104.074
20
-82.2285
11
104.059
21
-82.216
0
LINE
8
BLACK
6
CONTINUOUS
10
104.059
20
-82.216
11
104.043
21
-82.2062
0
LINE
8
BLACK
6
CONTINUOUS
10
104.043
20
-82.2062
11
104.04
21
-82.1998
0
LINE
8
BLACK
6
CONTINUOUS
10
104.04
20
-82.1998
11
104.035
21
-82.1955
0
LINE
8
BLACK
6
CONTINUOUS
10
104.035
20
-82.1955
11
104.032
21
-82.1763
0
LINE
8
BLACK
6
CONTINUOUS
10
104.032
20
-82.1763
11
104.025
21
-82.158
0
LINE
8
BLACK
6
CONTINUOUS
10
104.025
20
-82.158
11
104.025
21
-68.358
0
LINE
8
BLACK
6
CONTINUOUS
10
104.025
20
-68.358
11
104.027
21
-68.3483
0
LINE
8
BLACK
6
CONTINUOUS
10
104.027
20
-68.3483
11
104.026
21
-68.345
0
LINE
8
BLACK
6
CONTINUOUS
10
104.026
20
-68.345
11
104.028
21
-68.3421
0
LINE
8
BLACK
6
CONTINUOUS
10
104.028
20
-68.3421
11
104.03
21
-68.3323
0
LINE
8
BLACK
6
CONTINUOUS
10
104.03
20
-68.3323
11
104.042
21
-68.3174
0
LINE
8
BLACK
6
CONTINUOUS
10
104.042
20
-68.3174
11
104.052
21
-68.3005
0
LINE
8
BLACK
6
CONTINUOUS
10
104.052
20
-68.3005
11
104.058
21
-68.2982
0
LINE
8
BLACK
6
CONTINUOUS
10
104.058
20
-68.2982
11
104.062
21
-68.293
0
LINE
8
BLACK
6
CONTINUOUS
10
104.062
20
-68.293
11
104.082
21
-68.2897
0
LINE
8
BLACK
6
CONTINUOUS
10
104.082
20
-68.2897
11
104.1
21
-68.283
0
LINE
8
BLACK
6
CONTINUOUS
10
104.1
20
-68.283
11
117.9
21
-68.283
0
LINE
8
BLACK
6
CONTINUOUS
10
117.9
20
-68.283
11
117.91
21
-68.2847
0
LINE
8
BLACK
6
CONTINUOUS
10
104.175
20
-68.433
11
104.175
21
-82.083
0
LINE
8
BLACK
6
CONTINUOUS
10
104.175
20
-82.083
11
117.825
21
-82.083
0
LINE
8
BLACK
6
CONTINUOUS
10
117.825
20
-82.083
11
117.825
21
-68.433
0
LINE
8
BLACK
6
CONTINUOUS
10
117.825
20
-68.433
11
104.175
21
-68.433
0
LINE
8
BLACK
6
CONTINUOUS
10
136.96
20
-63.2847
11
136.963
21
-63.2841
0
LINE
8
BLACK
6
CONTINUOUS
10
136.963
20
-63.2841
11
136.966
21
-63.2858
0
LINE
8
BLACK
6
CONTINUOUS
10
136.966
20
-63.2858
11
136.976
21
-63.2875
0
LINE
8
BLACK
6
CONTINUOUS
10
136.976
20
-63.2875
11
136.991
21
-63.3
0
LINE
8
BLACK
6
CONTINUOUS
10
136.991
20
-63.3
11
137.007
21
-63.3098
0
LINE
8
BLACK
6
CONTINUOUS
10
137.007
20
-63.3098
11
137.01
21
-63.3162
0
LINE
8
BLACK
6
CONTINUOUS
10
137.01
20
-63.3162
11
137.015
21
-63.3205
0
LINE
8
BLACK
6
CONTINUOUS
10
137.015
20
-63.3205
11
137.018
21
-63.3397
0
LINE
8
BLACK
6
CONTINUOUS
10
137.018
20
-63.3397
11
137.025
21
-63.358
0
LINE
8
BLACK
6
CONTINUOUS
10
137.025
20
-63.358
11
137.025
21
-77.158
0
LINE
8
BLACK
6
CONTINUOUS
10
137.025
20
-77.158
11
137.023
21
-77.1677
0
LINE
8
BLACK
6
CONTINUOUS
10
137.023
20
-77.1677
11
137.024
21
-77.171
0
LINE
8
BLACK
6
CONTINUOUS
10
137.024
20
-77.171
11
137.022
21
-77.1739
0
LINE
8
BLACK
6
CONTINUOUS
10
137.022
20
-77.1739
11
137.02
21
-77.1837
0
LINE
8
BLACK
6
CONTINUOUS
10
137.02
20
-77.1837
11
137.008
21
-77.1986
0
LINE
8
BLACK
6
CONTINUOUS
10
137.008
20
-77.1986
11
136.998
21
-77.2155
0
LINE
8
BLACK
6
CONTINUOUS
10
136.998
20
-77.2155
11
136.992
21
-77.2178
0
LINE
8
BLACK
6
CONTINUOUS
10
136.992
20
-77.2178
11
136.987
21
-77.223
0
LINE
8
BLACK
6
CONTINUOUS
10
136.987
20
-77.223
11
136.968
21
-77.2263
0
LINE
8
BLACK
6
CONTINUOUS
10
136.968
20
-77.2263
11
136.95
21
-77.233
0
LINE
8
BLACK
6
CONTINUOUS
10
136.95
20
-77.233
11
123.15
21
-77.233
0
LINE
8
BLACK
6
CONTINUOUS
10
123.15
20
-77.233
11
123.14
21
-77.2313
0
LINE
8
BLACK
6
CONTINUOUS
10
123.14
20
-77.2313
11
123.137
21
-77.2319
0
LINE
8
BLACK
6
CONTINUOUS
10
123.137
20
-77.2319
11
123.134
21
-77.2302
0
LINE
8
BLACK
6
CONTINUOUS
10
123.134
20
-77.2302
11
123.124
21
-77.2285
0
LINE
8
BLACK
6
CONTINUOUS
10
123.124
20
-77.2285
11
123.109
21
-77.216
0
LINE
8
BLACK
6
CONTINUOUS
10
123.109
20
-77.216
11
123.093
21
-77.2062
0
LINE
8
BLACK
6
CONTINUOUS
10
123.093
20
-77.2062
11
123.09
21
-77.1998
0
LINE
8
BLACK
6
CONTINUOUS
10
123.09
20
-77.1998
11
123.085
21
-77.1955
0
LINE
8
BLACK
6
CONTINUOUS
10
123.085
20
-77.1955
11
123.082
21
-77.1763
0
LINE
8
BLACK
6
CONTINUOUS
10
123.082
20
-77.1763
11
123.075
21
-77.158
0
LINE
8
BLACK
6
CONTINUOUS
10
123.075
20
-77.158
11
123.075
21
-63.358
0
LINE
8
BLACK
6
CONTINUOUS
10
123.075
20
-63.358
11
123.077
21
-63.3483
0
LINE
8
BLACK
6
CONTINUOUS
10
123.077
20
-63.3483
11
123.076
21
-63.345
0
LINE
8
BLACK
6
CONTINUOUS
10
123.076
20
-63.345
11
123.078
21
-63.3421
0
LINE
8
BLACK
6
CONTINUOUS
10
123.078
20
-63.3421
11
123.08
21
-63.3323
0
LINE
8
BLACK
6
CONTINUOUS
10
123.08
20
-63.3323
11
123.092
21
-63.3174
0
LINE
8
BLACK
6
CONTINUOUS
10
123.092
20
-63.3174
11
123.102
21
-63.3005
0
LINE
8
BLACK
6
CONTINUOUS
10
123.102
20
-63.3005
11
123.108
21
-63.2982
0
LINE
8
BLACK
6
CONTINUOUS
10
123.108
20
-63.2982
11
123.112
21
-63.293
0
LINE
8
BLACK
6
CONTINUOUS
10
123.112
20
-63.293
11
123.132
21
-63.2897
0
LINE
8
BLACK
6
CONTINUOUS
10
123.132
20
-63.2897
11
123.15
21
-63.283
0
LINE
8
BLACK
6
CONTINUOUS
10
123.15
20
-63.283
11
136.95
21
-63.283
0
LINE
8
BLACK
6
CONTINUOUS
10
136.95
20
-63.283
11
136.96
21
-63.2847
0
LINE
8
BLACK
6
CONTINUOUS
10
123.225
20
-63.433
11
123.225
21
-77.083
0
LINE
8
BLACK
6
CONTINUOUS
10
123.225
20
-77.083
11
136.875
21
-77.083
0
LINE
8
BLACK
6
CONTINUOUS
10
136.875
20
-77.083
11
136.875
21
-63.433
0
LINE
8
BLACK
6
CONTINUOUS
10
136.875
20
-63.433
11
123.225
21
-63.433
0
LINE
8
BLACK
6
CONTINUOUS
10
79.8097
20
-61.2347
11
79.813
21
-61.2341
0
LINE
8
BLACK
6
CONTINUOUS
10
79.813
20
-61.2341
11
79.8159
21
-61.2358
0
LINE
8
BLACK
6
CONTINUOUS
10
79.8159
20
-61.2358
11
79.8257
21
-61.2375
0
LINE
8
BLACK
6
CONTINUOUS
10
79.8257
20
-61.2375
11
79.8406
21
-61.25
0
LINE
8
BLACK
6
CONTINUOUS
10
79.8406
20
-61.25
11
79.8575
21
-61.2598
0
LINE
8
BLACK
6
CONTINUOUS
10
79.8575
20
-61.2598
11
79.8598
21
-61.2661
0
LINE
8
BLACK
6
CONTINUOUS
10
79.8598
20
-61.2661
11
79.865
21
-61.2705
0
LINE
8
BLACK
6
CONTINUOUS
10
79.865
20
-61.2705
11
79.8683
21
-61.2897
0
LINE
8
BLACK
6
CONTINUOUS
10
79.8683
20
-61.2897
11
79.875
21
-61.308
0
LINE
8
BLACK
6
CONTINUOUS
10
79.875
20
-61.308
11
79.875
21
-75.108
0
LINE
8
BLACK
6
CONTINUOUS
10
79.875
20
-75.108
11
79.8733
21
-75.1177
0
LINE
8
BLACK
6
CONTINUOUS
10
79.8733
20
-75.1177
11
79.8739
21
-75.121
0
LINE
8
BLACK
6
CONTINUOUS
10
79.8739
20
-75.121
11
79.8722
21
-75.1239
0
LINE
8
BLACK
6
CONTINUOUS
10
79.8722
20
-75.1239
11
79.8705
21
-75.1337
0
LINE
8
BLACK
6
CONTINUOUS
10
79.8705
20
-75.1337
11
79.858
21
-75.1486
0
LINE
8
BLACK
6
CONTINUOUS
10
79.858
20
-75.1486
11
79.8482
21
-75.1655
0
LINE
8
BLACK
6
CONTINUOUS
10
79.8482
20
-75.1655
11
79.8418
21
-75.1678
0
LINE
8
BLACK
6
CONTINUOUS
10
79.8418
20
-75.1678
11
79.8375
21
-75.173
0
LINE
8
BLACK
6
CONTINUOUS
10
79.8375
20
-75.173
11
79.8183
21
-75.1763
0
LINE
8
BLACK
6
CONTINUOUS
10
79.8183
20
-75.1763
11
79.8
21
-75.183
0
LINE
8
BLACK
6
CONTINUOUS
10
79.8
20
-75.183
11
66
21
-75.183
0
LINE
8
BLACK
6
CONTINUOUS
10
66
20
-75.183
11
65.9903
21
-75.1813
0
LINE
8
BLACK
6
CONTINUOUS
10
65.9903
20
-75.1813
11
65.987
21
-75.1819
0
LINE
8
BLACK
6
CONTINUOUS
10
65.987
20
-75.1819
11
65.9841
21
-75.1802
0
LINE
8
BLACK
6
CONTINUOUS
10
65.9841
20
-75.1802
11
65.9743
21
-75.1785
0
LINE
8
BLACK
6
CONTINUOUS
10
65.9743
20
-75.1785
11
65.9594
21
-75.166
0
LINE
8
BLACK
6
CONTINUOUS
10
65.9594
20
-75.166
11
65.9425
21
-75.1562
0
LINE
8
BLACK
6
CONTINUOUS
10
65.9425
20
-75.1562
11
65.9402
21
-75.1499
0
LINE
8
BLACK
6
CONTINUOUS
10
65.9402
20
-75.1499
11
65.935
21
-75.1455
0
LINE
8
BLACK
6
CONTINUOUS
10
65.935
20
-75.1455
11
65.9317
21
-75.1263
0
LINE
8
BLACK
6
CONTINUOUS
10
65.9317
20
-75.1263
11
65.925
21
-75.108
0
LINE
8
BLACK
6
CONTINUOUS
10
65.925
20
-75.108
11
65.925
21
-61.308
0
LINE
8
BLACK
6
CONTINUOUS
10
65.925
20
-61.308
11
65.9267
21
-61.2983
0
LINE
8
BLACK
6
CONTINUOUS
10
65.9267
20
-61.2983
11
65.9261
21
-61.295
0
LINE
8
BLACK
6
CONTINUOUS
10
65.9261
20
-61.295
11
65.9278
21
-61.2921
0
LINE
8
BLACK
6
CONTINUOUS
10
65.9278
20
-61.2921
11
65.9295
21
-61.2823
0
LINE
8
BLACK
6
CONTINUOUS
10
65.9295
20
-61.2823
11
65.942
21
-61.2674
0
LINE
8
BLACK
6
CONTINUOUS
10
65.942
20
-61.2674
11
65.9518
21
-61.2505
0
LINE
8
BLACK
6
CONTINUOUS
10
65.9518
20
-61.2505
11
65.9582
21
-61.2482
0
LINE
8
BLACK
6
CONTINUOUS
10
65.9582
20
-61.2482
11
65.9625
21
-61.243
0
LINE
8
BLACK
6
CONTINUOUS
10
65.9625
20
-61.243
11
65.9817
21
-61.2397
0
LINE
8
BLACK
6
CONTINUOUS
10
65.9817
20
-61.2397
11
66
21
-61.233
0
LINE
8
BLACK
6
CONTINUOUS
10
66
20
-61.233
11
79.8
21
-61.233
0
LINE
8
BLACK
6
CONTINUOUS
10
79.8
20
-61.233
11
79.8097
21
-61.2347
0
LINE
8
BLACK
6
CONTINUOUS
10
66.075
20
-61.383
11
66.075
21
-75.033
0
LINE
8
BLACK
6
CONTINUOUS
10
66.075
20
-75.033
11
79.725
21
-75.033
0
LINE
8
BLACK
6
CONTINUOUS
10
79.725
20
-75.033
11
79.725
21
-61.383
0
LINE
8
BLACK
6
CONTINUOUS
10
79.725
20
-61.383
11
66.075
21
-61.383
0
LINE
8
BLACK
6
CONTINUOUS
10
98.8597
20
-61.2347
11
98.863
21
-61.2341
0
LINE
8
BLACK
6
CONTINUOUS
10
98.863
20
-61.2341
11
98.8659
21
-61.2358
0
LINE
8
BLACK
6
CONTINUOUS
10
98.8659
20
-61.2358
11
98.8757
21
-61.2375
0
LINE
8
BLACK
6
CONTINUOUS
10
98.8757
20
-61.2375
11
98.8906
21
-61.25
0
LINE
8
BLACK
6
CONTINUOUS
10
98.8906
20
-61.25
11
98.9075
21
-61.2598
0
LINE
8
BLACK
6
CONTINUOUS
10
98.9075
20
-61.2598
11
98.9098
21
-61.2661
0
LINE
8
BLACK
6
CONTINUOUS
10
98.9098
20
-61.2661
11
98.915
21
-61.2705
0
LINE
8
BLACK
6
CONTINUOUS
10
98.915
20
-61.2705
11
98.9183
21
-61.2897
0
LINE
8
BLACK
6
CONTINUOUS
10
98.9183
20
-61.2897
11
98.925
21
-61.308
0
LINE
8
BLACK
6
CONTINUOUS
10
98.925
20
-61.308
11
98.925
21
-75.108
0
LINE
8
BLACK
6
CONTINUOUS
10
98.925
20
-75.108
11
98.9233
21
-75.1177
0
LINE
8
BLACK
6
CONTINUOUS
10
98.9233
20
-75.1177
11
98.9239
21
-75.121
0
LINE
8
BLACK
6
CONTINUOUS
10
98.9239
20
-75.121
11
98.9222
21
-75.1239
0
LINE
8
BLACK
6
CONTINUOUS
10
98.9222
20
-75.1239
11
98.9205
21
-75.1337
0
LINE
8
BLACK
6
CONTINUOUS
10
98.9205
20
-75.1337
11
98.908
21
-75.1486
0
LINE
8
BLACK
6
CONTINUOUS
10
98.908
20
-75.1486
11
98.8982
21
-75.1655
0
LINE
8
BLACK
6
CONTINUOUS
10
98.8982
20
-75.1655
11
98.8918
21
-75.1678
0
LINE
8
BLACK
6
CONTINUOUS
10
98.8918
20
-75.1678
11
98.8875
21
-75.173
0
LINE
8
BLACK
6
CONTINUOUS
10
98.8875
20
-75.173
11
98.8683
21
-75.1763
0
LINE
8
BLACK
6
CONTINUOUS
10
98.8683
20
-75.1763
11
98.85
21
-75.183
0
LINE
8
BLACK
6
CONTINUOUS
10
98.85
20
-75.183
11
85.05
21
-75.183
0
LINE
8
BLACK
6
CONTINUOUS
10
85.05
20
-75.183
11
85.0403
21
-75.1813
0
LINE
8
BLACK
6
CONTINUOUS
10
85.0403
20
-75.1813
11
85.037
21
-75.1819
0
LINE
8
BLACK
6
CONTINUOUS
10
85.037
20
-75.1819
11
85.0341
21
-75.1802
0
LINE
8
BLACK
6
CONTINUOUS
10
85.0341
20
-75.1802
11
85.0243
21
-75.1785
0
LINE
8
BLACK
6
CONTINUOUS
10
85.0243
20
-75.1785
11
85.0094
21
-75.166
0
LINE
8
BLACK
6
CONTINUOUS
10
85.0094
20
-75.166
11
84.9925
21
-75.1562
0
LINE
8
BLACK
6
CONTINUOUS
10
84.9925
20
-75.1562
11
84.9902
21
-75.1499
0
LINE
8
BLACK
6
CONTINUOUS
10
84.9902
20
-75.1499
11
84.985
21
-75.1455
0
LINE
8
BLACK
6
CONTINUOUS
10
84.985
20
-75.1455
11
84.9817
21
-75.1263
0
LINE
8
BLACK
6
CONTINUOUS
10
84.9817
20
-75.1263
11
84.975
21
-75.108
0
LINE
8
BLACK
6
CONTINUOUS
10
84.975
20
-75.108
11
84.975
21
-61.308
0
LINE
8
BLACK
6
CONTINUOUS
10
84.975
20
-61.308
11
84.9767
21
-61.2983
0
LINE
8
BLACK
6
CONTINUOUS
10
84.9767
20
-61.2983
11
84.9761
21
-61.295
0
LINE
8
BLACK
6
CONTINUOUS
10
84.9761
20
-61.295
11
84.9778
21
-61.2921
0
LINE
8
BLACK
6
CONTINUOUS
10
84.9778
20
-61.2921
11
84.9795
21
-61.2823
0
LINE
8
BLACK
6
CONTINUOUS
10
84.9795
20
-61.2823
11
84.992
21
-61.2674
0
LINE
8
BLACK
6
CONTINUOUS
10
84.992
20
-61.2674
11
85.0018
21
-61.2505
0
LINE
8
BLACK
6
CONTINUOUS
10
85.0018
20
-61.2505
11
85.0082
21
-61.2482
0
LINE
8
BLACK
6
CONTINUOUS
10
85.0082
20
-61.2482
11
85.0125
21
-61.243
0
LINE
8
BLACK
6
CONTINUOUS
10
85.0125
20
-61.243
11
85.0317
21
-61.2397
0
LINE
8
BLACK
6
CONTINUOUS
10
85.0317
20
-61.2397
11
85.05
21
-61.233
0
LINE
8
BLACK
6
CONTINUOUS
10
85.05
20
-61.233
11
98.85
21
-61.233
0
LINE
8
BLACK
6
CONTINUOUS
10
98.85
20
-61.233
11
98.8597
21
-61.2347
0
LINE
8
BLACK
6
CONTINUOUS
10
85.125
20
-61.383
11
85.125
21
-75.033
0
LINE
8
BLACK
6
CONTINUOUS
10
85.125
20
-75.033
11
98.775
21
-75.033
0
LINE
8
BLACK
6
CONTINUOUS
10
98.775
20
-75.033
11
98.775
21
-61.383
0
LINE
8
BLACK
6
CONTINUOUS
10
98.775
20
-61.383
11
85.125
21
-61.383
0
LINE
8
BLACK
6
CONTINUOUS
10
175.06
20
-51.2347
11
175.063
21
-51.2341
0
LINE
8
BLACK
6
CONTINUOUS
10
175.063
20
-51.2341
11
175.066
21
-51.2358
0
LINE
8
BLACK
6
CONTINUOUS
10
175.066
20
-51.2358
11
175.076
21
-51.2375
0
LINE
8
BLACK
6
CONTINUOUS
10
175.076
20
-51.2375
11
175.091
21
-51.25
0
LINE
8
BLACK
6
CONTINUOUS
10
175.091
20
-51.25
11
175.107
21
-51.2598
0
LINE
8
BLACK
6
CONTINUOUS
10
175.107
20
-51.2598
11
175.11
21
-51.2661
0
LINE
8
BLACK
6
CONTINUOUS
10
175.11
20
-51.2661
11
175.115
21
-51.2705
0
LINE
8
BLACK
6
CONTINUOUS
10
175.115
20
-51.2705
11
175.118
21
-51.2897
0
LINE
8
BLACK
6
CONTINUOUS
10
175.118
20
-51.2897
11
175.125
21
-51.308
0
LINE
8
BLACK
6
CONTINUOUS
10
175.125
20
-51.308
11
175.125
21
-65.108
0
LINE
8
BLACK
6
CONTINUOUS
10
175.125
20
-65.108
11
175.123
21
-65.1177
0
LINE
8
BLACK
6
CONTINUOUS
10
175.123
20
-65.1177
11
175.124
21
-65.121
0
LINE
8
BLACK
6
CONTINUOUS
10
175.124
20
-65.121
11
175.122
21
-65.1239
0
LINE
8
BLACK
6
CONTINUOUS
10
175.122
20
-65.1239
11
175.12
21
-65.1337
0
LINE
8
BLACK
6
CONTINUOUS
10
175.12
20
-65.1337
11
175.108
21
-65.1486
0
LINE
8
BLACK
6
CONTINUOUS
10
175.108
20
-65.1486
11
175.098
21
-65.1655
0
LINE
8
BLACK
6
CONTINUOUS
10
175.098
20
-65.1655
11
175.092
21
-65.1678
0
LINE
8
BLACK
6
CONTINUOUS
10
175.092
20
-65.1678
11
175.088
21
-65.173
0
LINE
8
BLACK
6
CONTINUOUS
10
175.088
20
-65.173
11
175.068
21
-65.1763
0
LINE
8
BLACK
6
CONTINUOUS
10
175.068
20
-65.1763
11
175.05
21
-65.183
0
LINE
8
BLACK
6
CONTINUOUS
10
175.05
20
-65.183
11
161.25
21
-65.183
0
LINE
8
BLACK
6
CONTINUOUS
10
161.25
20
-65.183
11
161.24
21
-65.1813
0
LINE
8
BLACK
6
CONTINUOUS
10
161.24
20
-65.1813
11
161.237
21
-65.1819
0
LINE
8
BLACK
6
CONTINUOUS
10
161.237
20
-65.1819
11
161.234
21
-65.1802
0
LINE
8
BLACK
6
CONTINUOUS
10
161.234
20
-65.1802
11
161.224
21
-65.1785
0
LINE
8
BLACK
6
CONTINUOUS
10
161.224
20
-65.1785
11
161.209
21
-65.166
0
LINE
8
BLACK
6
CONTINUOUS
10
161.209
20
-65.166
11
161.193
21
-65.1562
0
LINE
8
BLACK
6
CONTINUOUS
10
161.193
20
-65.1562
11
161.19
21
-65.1499
0
LINE
8
BLACK
6
CONTINUOUS
10
161.19
20
-65.1499
11
161.185
21
-65.1455
0
LINE
8
BLACK
6
CONTINUOUS
10
161.185
20
-65.1455
11
161.182
21
-65.1263
0
LINE
8
BLACK
6
CONTINUOUS
10
161.182
20
-65.1263
11
161.175
21
-65.108
0
LINE
8
BLACK
6
CONTINUOUS
10
161.175
20
-65.108
11
161.175
21
-51.308
0
LINE
8
BLACK
6
CONTINUOUS
10
161.175
20
-51.308
11
161.177
21
-51.2983
0
LINE
8
BLACK
6
CONTINUOUS
10
161.177
20
-51.2983
11
161.176
21
-51.295
0
LINE
8
BLACK
6
CONTINUOUS
10
161.176
20
-51.295
11
161.178
21
-51.2921
0
LINE
8
BLACK
6
CONTINUOUS
10
161.178
20
-51.2921
11
161.18
21
-51.2823
0
LINE
8
BLACK
6
CONTINUOUS
10
161.18
20
-51.2823
11
161.192
21
-51.2674
0
LINE
8
BLACK
6
CONTINUOUS
10
161.192
20
-51.2674
11
161.202
21
-51.2505
0
LINE
8
BLACK
6
CONTINUOUS
10
161.202
20
-51.2505
11
161.208
21
-51.2482
0
LINE
8
BLACK
6
CONTINUOUS
10
161.208
20
-51.2482
11
161.213
21
-51.243
0
LINE
8
BLACK
6
CONTINUOUS
10
161.213
20
-51.243
11
161.232
21
-51.2397
0
LINE
8
BLACK
6
CONTINUOUS
10
161.232
20
-51.2397
11
161.25
21
-51.233
0
LINE
8
BLACK
6
CONTINUOUS
10
161.25
20
-51.233
11
175.05
21
-51.233
0
LINE
8
BLACK
6
CONTINUOUS
10
175.05
20
-51.233
11
175.06
21
-51.2347
0
LINE
8
BLACK
6
CONTINUOUS
10
161.325
20
-51.383
11
161.325
21
-65.033
0
LINE
8
BLACK
6
CONTINUOUS
10
161.325
20
-65.033
11
174.975
21
-65.033
0
LINE
8
BLACK
6
CONTINUOUS
10
174.975
20
-65.033
11
174.975
21
-51.383
0
LINE
8
BLACK
6
CONTINUOUS
10
174.975
20
-51.383
11
161.325
21
-51.383
0
LINE
8
BLACK
6
CONTINUOUS
10
156.01
20
-49.2347
11
156.013
21
-49.2341
0
LINE
8
BLACK
6
CONTINUOUS
10
156.013
20
-49.2341
11
156.016
21
-49.2358
0
LINE
8
BLACK
6
CONTINUOUS
10
156.016
20
-49.2358
11
156.026
21
-49.2375
0
LINE
8
BLACK
6
CONTINUOUS
10
156.026
20
-49.2375
11
156.041
21
-49.25
0
LINE
8
BLACK
6
CONTINUOUS
10
156.041
20
-49.25
11
156.057
21
-49.2598
0
LINE
8
BLACK
6
CONTINUOUS
10
156.057
20
-49.2598
11
156.06
21
-49.2661
0
LINE
8
BLACK
6
CONTINUOUS
10
156.06
20
-49.2661
11
156.065
21
-49.2705
0
LINE
8
BLACK
6
CONTINUOUS
10
156.065
20
-49.2705
11
156.068
21
-49.2897
0
LINE
8
BLACK
6
CONTINUOUS
10
156.068
20
-49.2897
11
156.075
21
-49.308
0
LINE
8
BLACK
6
CONTINUOUS
10
156.075
20
-49.308
11
156.075
21
-63.108
0
LINE
8
BLACK
6
CONTINUOUS
10
156.075
20
-63.108
11
156.073
21
-63.1177
0
LINE
8
BLACK
6
CONTINUOUS
10
156.073
20
-63.1177
11
156.074
21
-63.121
0
LINE
8
BLACK
6
CONTINUOUS
10
156.074
20
-63.121
11
156.072
21
-63.1239
0
LINE
8
BLACK
6
CONTINUOUS
10
156.072
20
-63.1239
11
156.07
21
-63.1337
0
LINE
8
BLACK
6
CONTINUOUS
10
156.07
20
-63.1337
11
156.058
21
-63.1486
0
LINE
8
BLACK
6
CONTINUOUS
10
156.058
20
-63.1486
11
156.048
21
-63.1655
0
LINE
8
BLACK
6
CONTINUOUS
10
156.048
20
-63.1655
11
156.042
21
-63.1678
0
LINE
8
BLACK
6
CONTINUOUS
10
156.042
20
-63.1678
11
156.037
21
-63.173
0
LINE
8
BLACK
6
CONTINUOUS
10
156.037
20
-63.173
11
156.018
21
-63.1763
0
LINE
8
BLACK
6
CONTINUOUS
10
156.018
20
-63.1763
11
156
21
-63.183
0
LINE
8
BLACK
6
CONTINUOUS
10
156
20
-63.183
11
142.2
21
-63.183
0
LINE
8
BLACK
6
CONTINUOUS
10
142.2
20
-63.183
11
142.19
21
-63.1813
0
LINE
8
BLACK
6
CONTINUOUS
10
142.19
20
-63.1813
11
142.187
21
-63.1819
0
LINE
8
BLACK
6
CONTINUOUS
10
142.187
20
-63.1819
11
142.184
21
-63.1802
0
LINE
8
BLACK
6
CONTINUOUS
10
142.184
20
-63.1802
11
142.174
21
-63.1785
0
LINE
8
BLACK
6
CONTINUOUS
10
142.174
20
-63.1785
11
142.159
21
-63.166
0
LINE
8
BLACK
6
CONTINUOUS
10
142.159
20
-63.166
11
142.143
21
-63.1562
0
LINE
8
BLACK
6
CONTINUOUS
10
142.143
20
-63.1562
11
142.14
21
-63.1498
0
LINE
8
BLACK
6
CONTINUOUS
10
142.14
20
-63.1498
11
142.135
21
-63.1455
0
LINE
8
BLACK
6
CONTINUOUS
10
142.135
20
-63.1455
11
142.132
21
-63.1263
0
LINE
8
BLACK
6
CONTINUOUS
10
142.132
20
-63.1263
11
142.125
21
-63.108
0
LINE
8
BLACK
6
CONTINUOUS
10
142.125
20
-63.108
11
142.125
21
-49.308
0
LINE
8
BLACK
6
CONTINUOUS
10
142.125
20
-49.308
11
142.127
21
-49.2983
0
LINE
8
BLACK
6
CONTINUOUS
10
142.127
20
-49.2983
11
142.126
21
-49.295
0
LINE
8
BLACK
6
CONTINUOUS
10
142.126
20
-49.295
11
142.128
21
-49.2921
0
LINE
8
BLACK
6
CONTINUOUS
10
142.128
20
-49.2921
11
142.13
21
-49.2823
0
LINE
8
BLACK
6
CONTINUOUS
10
142.13
20
-49.2823
11
142.142
21
-49.2674
0
LINE
8
BLACK
6
CONTINUOUS
10
142.142
20
-49.2674
11
142.152
21
-49.2505
0
LINE
8
BLACK
6
CONTINUOUS
10
142.152
20
-49.2505
11
142.158
21
-49.2482
0
LINE
8
BLACK
6
CONTINUOUS
10
142.158
20
-49.2482
11
142.162
21
-49.243
0
LINE
8
BLACK
6
CONTINUOUS
10
142.162
20
-49.243
11
142.182
21
-49.2397
0
LINE
8
BLACK
6
CONTINUOUS
10
142.182
20
-49.2397
11
142.2
21
-49.233
0
LINE
8
BLACK
6
CONTINUOUS
10
142.2
20
-49.233
11
156
21
-49.233
0
LINE
8
BLACK
6
CONTINUOUS
10
156
20
-49.233
11
156.01
21
-49.2347
0
LINE
8
BLACK
6
CONTINUOUS
10
142.275
20
-49.383
11
142.275
21
-63.033
0
LINE
8
BLACK
6
CONTINUOUS
10
142.275
20
-63.033
11
155.925
21
-63.033
0
LINE
8
BLACK
6
CONTINUOUS
10
155.925
20
-63.033
11
155.925
21
-49.383
0
LINE
8
BLACK
6
CONTINUOUS
10
155.925
20
-49.383
11
142.275
21
-49.383
0
LINE
8
BLACK
6
CONTINUOUS
10
117.91
20
-49.2347
11
117.913
21
-49.2341
0
LINE
8
BLACK
6
CONTINUOUS
10
117.913
20
-49.2341
11
117.916
21
-49.2358
0
LINE
8
BLACK
6
CONTINUOUS
10
117.916
20
-49.2358
11
117.926
21
-49.2375
0
LINE
8
BLACK
6
CONTINUOUS
10
117.926
20
-49.2375
11
117.941
21
-49.25
0
LINE
8
BLACK
6
CONTINUOUS
10
117.941
20
-49.25
11
117.957
21
-49.2598
0
LINE
8
BLACK
6
CONTINUOUS
10
117.957
20
-49.2598
11
117.96
21
-49.2661
0
LINE
8
BLACK
6
CONTINUOUS
10
117.96
20
-49.2661
11
117.965
21
-49.2705
0
LINE
8
BLACK
6
CONTINUOUS
10
117.965
20
-49.2705
11
117.968
21
-49.2897
0
LINE
8
BLACK
6
CONTINUOUS
10
117.968
20
-49.2897
11
117.975
21
-49.308
0
LINE
8
BLACK
6
CONTINUOUS
10
117.975
20
-49.308
11
117.975
21
-63.108
0
LINE
8
BLACK
6
CONTINUOUS
10
117.975
20
-63.108
11
117.973
21
-63.1177
0
LINE
8
BLACK
6
CONTINUOUS
10
117.973
20
-63.1177
11
117.974
21
-63.121
0
LINE
8
BLACK
6
CONTINUOUS
10
117.974
20
-63.121
11
117.972
21
-63.1239
0
LINE
8
BLACK
6
CONTINUOUS
10
117.972
20
-63.1239
11
117.97
21
-63.1337
0
LINE
8
BLACK
6
CONTINUOUS
10
117.97
20
-63.1337
11
117.958
21
-63.1486
0
LINE
8
BLACK
6
CONTINUOUS
10
117.958
20
-63.1486
11
117.948
21
-63.1655
0
LINE
8
BLACK
6
CONTINUOUS
10
117.948
20
-63.1655
11
117.942
21
-63.1678
0
LINE
8
BLACK
6
CONTINUOUS
10
117.942
20
-63.1678
11
117.938
21
-63.173
0
LINE
8
BLACK
6
CONTINUOUS
10
117.938
20
-63.173
11
117.918
21
-63.1763
0
LINE
8
BLACK
6
CONTINUOUS
10
117.918
20
-63.1763
11
117.9
21
-63.183
0
LINE
8
BLACK
6
CONTINUOUS
10
117.9
20
-63.183
11
104.1
21
-63.183
0
LINE
8
BLACK
6
CONTINUOUS
10
104.1
20
-63.183
11
104.09
21
-63.1813
0
LINE
8
BLACK
6
CONTINUOUS
10
104.09
20
-63.1813
11
104.087
21
-63.1819
0
LINE
8
BLACK
6
CONTINUOUS
10
104.087
20
-63.1819
11
104.084
21
-63.1802
0
LINE
8
BLACK
6
CONTINUOUS
10
104.084
20
-63.1802
11
104.074
21
-63.1785
0
LINE
8
BLACK
6
CONTINUOUS
10
104.074
20
-63.1785
11
104.059
21
-63.166
0
LINE
8
BLACK
6
CONTINUOUS
10
104.059
20
-63.166
11
104.043
21
-63.1562
0
LINE
8
BLACK
6
CONTINUOUS
10
104.043
20
-63.1562
11
104.04
21
-63.1498
0
LINE
8
BLACK
6
CONTINUOUS
10
104.04
20
-63.1498
11
104.035
21
-63.1455
0
LINE
8
BLACK
6
CONTINUOUS
10
104.035
20
-63.1455
11
104.032
21
-63.1263
0
LINE
8
BLACK
6
CONTINUOUS
10
104.032
20
-63.1263
11
104.025
21
-63.108
0
LINE
8
BLACK
6
CONTINUOUS
10
104.025
20
-63.108
11
104.025
21
-49.308
0
LINE
8
BLACK
6
CONTINUOUS
10
104.025
20
-49.308
11
104.027
21
-49.2983
0
LINE
8
BLACK
6
CONTINUOUS
10
104.027
20
-49.2983
11
104.026
21
-49.295
0
LINE
8
BLACK
6
CONTINUOUS
10
104.026
20
-49.295
11
104.028
21
-49.2921
0
LINE
8
BLACK
6
CONTINUOUS
10
104.028
20
-49.2921
11
104.03
21
-49.2823
0
LINE
8
BLACK
6
CONTINUOUS
10
104.03
20
-49.2823
11
104.042
21
-49.2674
0
LINE
8
BLACK
6
CONTINUOUS
10
104.042
20
-49.2674
11
104.052
21
-49.2505
0
LINE
8
BLACK
6
CONTINUOUS
10
104.052
20
-49.2505
11
104.058
21
-49.2482
0
LINE
8
BLACK
6
CONTINUOUS
10
104.058
20
-49.2482
11
104.062
21
-49.243
0
LINE
8
BLACK
6
CONTINUOUS
10
104.062
20
-49.243
11
104.082
21
-49.2397
0
LINE
8
BLACK
6
CONTINUOUS
10
104.082
20
-49.2397
11
104.1
21
-49.233
0
LINE
8
BLACK
6
CONTINUOUS
10
104.1
20
-49.233
11
117.9
21
-49.233
0
LINE
8
BLACK
6
CONTINUOUS
10
117.9
20
-49.233
11
117.91
21
-49.2347
0
LINE
8
BLACK
6
CONTINUOUS
10
104.175
20
-49.383
11
104.175
21
-63.033
0
LINE
8
BLACK
6
CONTINUOUS
10
104.175
20
-63.033
11
117.825
21
-63.033
0
LINE
8
BLACK
6
CONTINUOUS
10
117.825
20
-63.033
11
117.825
21
-49.383
0
LINE
8
BLACK
6
CONTINUOUS
10
117.825
20
-49.383
11
104.175
21
-49.383
0
LINE
8
BLACK
6
CONTINUOUS
10
136.96
20
-44.2347
11
136.963
21
-44.2341
0
LINE
8
BLACK
6
CONTINUOUS
10
136.963
20
-44.2341
11
136.966
21
-44.2358
0
LINE
8
BLACK
6
CONTINUOUS
10
136.966
20
-44.2358
11
136.976
21
-44.2375
0
LINE
8
BLACK
6
CONTINUOUS
10
136.976
20
-44.2375
11
136.991
21
-44.25
0
LINE
8
BLACK
6
CONTINUOUS
10
136.991
20
-44.25
11
137.007
21
-44.2598
0
LINE
8
BLACK
6
CONTINUOUS
10
137.007
20
-44.2598
11
137.01
21
-44.2661
0
LINE
8
BLACK
6
CONTINUOUS
10
137.01
20
-44.2661
11
137.015
21
-44.2705
0
LINE
8
BLACK
6
CONTINUOUS
10
137.015
20
-44.2705
11
137.018
21
-44.2897
0
LINE
8
BLACK
6
CONTINUOUS
10
137.018
20
-44.2897
11
137.025
21
-44.308
0
LINE
8
BLACK
6
CONTINUOUS
10
137.025
20
-44.308
11
137.025
21
-58.108
0
LINE
8
BLACK
6
CONTINUOUS
10
137.025
20
-58.108
11
137.023
21
-58.1177
0
LINE
8
BLACK
6
CONTINUOUS
10
137.023
20
-58.1177
11
137.024
21
-58.121
0
LINE
8
BLACK
6
CONTINUOUS
10
137.024
20
-58.121
11
137.022
21
-58.1239
0
LINE
8
BLACK
6
CONTINUOUS
10
137.022
20
-58.1239
11
137.02
21
-58.1337
0
LINE
8
BLACK
6
CONTINUOUS
10
137.02
20
-58.1337
11
137.008
21
-58.1486
0
LINE
8
BLACK
6
CONTINUOUS
10
137.008
20
-58.1486
11
136.998
21
-58.1655
0
LINE
8
BLACK
6
CONTINUOUS
10
136.998
20
-58.1655
11
136.992
21
-58.1678
0
LINE
8
BLACK
6
CONTINUOUS
10
136.992
20
-58.1678
11
136.987
21
-58.173
0
LINE
8
BLACK
6
CONTINUOUS
10
136.987
20
-58.173
11
136.968
21
-58.1763
0
LINE
8
BLACK
6
CONTINUOUS
10
136.968
20
-58.1763
11
136.95
21
-58.183
0
LINE
8
BLACK
6
CONTINUOUS
10
136.95
20
-58.183
11
123.15
21
-58.183
0
LINE
8
BLACK
6
CONTINUOUS
10
123.15
20
-58.183
11
123.14
21
-58.1813
0
LINE
8
BLACK
6
CONTINUOUS
10
123.14
20
-58.1813
11
123.137
21
-58.1819
0
LINE
8
BLACK
6
CONTINUOUS
10
123.137
20
-58.1819
11
123.134
21
-58.1802
0
LINE
8
BLACK
6
CONTINUOUS
10
123.134
20
-58.1802
11
123.124
21
-58.1785
0
LINE
8
BLACK
6
CONTINUOUS
10
123.124
20
-58.1785
11
123.109
21
-58.166
0
LINE
8
BLACK
6
CONTINUOUS
10
123.109
20
-58.166
11
123.093
21
-58.1562
0
LINE
8
BLACK
6
CONTINUOUS
10
123.093
20
-58.1562
11
123.09
21
-58.1499
0
LINE
8
BLACK
6
CONTINUOUS
10
123.09
20
-58.1499
11
123.085
21
-58.1455
0
LINE
8
BLACK
6
CONTINUOUS
10
123.085
20
-58.1455
11
123.082
21
-58.1263
0
LINE
8
BLACK
6
CONTINUOUS
10
123.082
20
-58.1263
11
123.075
21
-58.108
0
LINE
8
BLACK
6
CONTINUOUS
10
123.075
20
-58.108
11
123.075
21
-44.308
0
LINE
8
BLACK
6
CONTINUOUS
10
123.075
20
-44.308
11
123.077
21
-44.2983
0
LINE
8
BLACK
6
CONTINUOUS
10
123.077
20
-44.2983
11
123.076
21
-44.295
0
LINE
8
BLACK
6
CONTINUOUS
10
123.076
20
-44.295
11
123.078
21
-44.2921
0
LINE
8
BLACK
6
CONTINUOUS
10
123.078
20
-44.2921
11
123.08
21
-44.2823
0
LINE
8
BLACK
6
CONTINUOUS
10
123.08
20
-44.2823
11
123.092
21
-44.2674
0
LINE
8
BLACK
6
CONTINUOUS
10
123.092
20
-44.2674
11
123.102
21
-44.2505
0
LINE
8
BLACK
6
CONTINUOUS
10
123.102
20
-44.2505
11
123.108
21
-44.2482
0
LINE
8
BLACK
6
CONTINUOUS
10
123.108
20
-44.2482
11
123.112
21
-44.243
0
LINE
8
BLACK
6
CONTINUOUS
10
123.112
20
-44.243
11
123.132
21
-44.2397
0
LINE
8
BLACK
6
CONTINUOUS
10
123.132
20
-44.2397
11
123.15
21
-44.233
0
LINE
8
BLACK
6
CONTINUOUS
10
123.15
20
-44.233
11
136.95
21
-44.233
0
LINE
8
BLACK
6
CONTINUOUS
10
136.95
20
-44.233
11
136.96
21
-44.2347
0
LINE
8
BLACK
6
CONTINUOUS
10
123.225
20
-44.383
11
123.225
21
-58.033
0
LINE
8
BLACK
6
CONTINUOUS
10
123.225
20
-58.033
11
136.875
21
-58.033
0
LINE
8
BLACK
6
CONTINUOUS
10
136.875
20
-58.033
11
136.875
21
-44.383
0
LINE
8
BLACK
6
CONTINUOUS
10
136.875
20
-44.383
11
123.225
21
-44.383
  0
ENDSEC
  0
EOF
